<svg width="1600" height="1000" viewBox="0 0 1600 1000" fill="none" xmlns="http://www.w3.org/2000/svg">
<g clip-path="url(#clip0_38_428)">
<rect width="1600" height="1000" fill="white"/>
<rect y="100" width="100" height="100" fill="#DE0000"/>
<rect width="100" height="100" fill="#D9D9D9"/>
<rect y="100" width="100" height="100" fill="#DE0000"/>
<rect y="300" width="100" height="100" fill="#DE0000"/>
<rect y="200" width="100" height="100" fill="#D9D9D9"/>
<rect y="500" width="100" height="100" fill="#DE0000"/>
<rect y="400" width="100" height="100" fill="#D9D9D9"/>
<rect y="500" width="100" height="100" fill="#DE0000"/>
<rect y="400" width="100" height="100" fill="#D9D9D9"/>
<rect y="700" width="100" height="100" fill="#DE0000"/>
<rect y="600" width="100" height="100" fill="#D9D9D9"/>
<rect y="900" width="100" height="100" fill="#DE0000"/>
<rect y="800" width="100" height="100" fill="#D9D9D9"/>
<rect y="900" width="100" height="100" fill="#DE0000"/>
<rect y="800" width="100" height="100" fill="#D9D9D9"/>
<rect x="200" y="900" width="100" height="100" transform="rotate(-180 200 900)" fill="#DE0000"/>
<rect x="200" y="1000" width="100" height="100" transform="rotate(-180 200 1000)" fill="#D9D9D9"/>
<rect x="200" y="900" width="100" height="100" transform="rotate(-180 200 900)" fill="#DE0000"/>
<rect x="200" y="1000" width="100" height="100" transform="rotate(-180 200 1000)" fill="#D9D9D9"/>
<rect x="200" y="700" width="100" height="100" transform="rotate(-180 200 700)" fill="#DE0000"/>
<rect x="200" y="800" width="100" height="100" transform="rotate(-180 200 800)" fill="#D9D9D9"/>
<rect x="200" y="500" width="100" height="100" transform="rotate(-180 200 500)" fill="#DE0000"/>
<rect x="200" y="600" width="100" height="100" transform="rotate(-180 200 600)" fill="#D9D9D9"/>
<rect x="200" y="500" width="100" height="100" transform="rotate(-180 200 500)" fill="#DE0000"/>
<rect x="200" y="600" width="100" height="100" transform="rotate(-180 200 600)" fill="#D9D9D9"/>
<rect x="200" y="300" width="100" height="100" transform="rotate(-180 200 300)" fill="#DE0000"/>
<rect x="200" y="400" width="100" height="100" transform="rotate(-180 200 400)" fill="#D9D9D9"/>
<rect x="200" y="100" width="100" height="100" transform="rotate(-180 200 100)" fill="#DE0000"/>
<rect x="200" y="200" width="100" height="100" transform="rotate(-180 200 200)" fill="#D9D9D9"/>
<rect x="200" y="100" width="100" height="100" transform="rotate(-180 200 100)" fill="#DE0000"/>
<rect x="200" y="200" width="100" height="100" transform="rotate(-180 200 200)" fill="#D9D9D9"/>
<rect x="200" y="100" width="100" height="100" fill="#DE0000"/>
<rect x="200" width="100" height="100" fill="#D9D9D9"/>
<rect x="200" y="100" width="100" height="100" fill="#DE0000"/>
<rect x="200" width="100" height="100" fill="#D9D9D9"/>
<rect x="200" y="300" width="100" height="100" fill="#DE0000"/>
<rect x="200" y="200" width="100" height="100" fill="#D9D9D9"/>
<rect x="200" y="500" width="100" height="100" fill="#DE0000"/>
<rect x="200" y="400" width="100" height="100" fill="#D9D9D9"/>
<rect x="200" y="500" width="100" height="100" fill="#DE0000"/>
<rect x="200" y="400" width="100" height="100" fill="#D9D9D9"/>
<rect x="200" y="700" width="100" height="100" fill="#DE0000"/>
<rect x="200" y="600" width="100" height="100" fill="#D9D9D9"/>
<rect x="200" y="900" width="100" height="100" fill="#DE0000"/>
<rect x="200" y="800" width="100" height="100" fill="#D9D9D9"/>
<rect x="200" y="900" width="100" height="100" fill="#DE0000"/>
<rect x="200" y="800" width="100" height="100" fill="#D9D9D9"/>
<rect x="400" y="900" width="100" height="100" transform="rotate(-180 400 900)" fill="#DE0000"/>
<rect x="400" y="1000" width="100" height="100" transform="rotate(-180 400 1000)" fill="#D9D9D9"/>
<rect x="400" y="900" width="100" height="100" transform="rotate(-180 400 900)" fill="#DE0000"/>
<rect x="400" y="1000" width="100" height="100" transform="rotate(-180 400 1000)" fill="#D9D9D9"/>
<rect x="400" y="700" width="100" height="100" transform="rotate(-180 400 700)" fill="#DE0000"/>
<rect x="400" y="800" width="100" height="100" transform="rotate(-180 400 800)" fill="#D9D9D9"/>
<rect x="400" y="500" width="100" height="100" transform="rotate(-180 400 500)" fill="#DE0000"/>
<rect x="400" y="600" width="100" height="100" transform="rotate(-180 400 600)" fill="#D9D9D9"/>
<rect x="400" y="500" width="100" height="100" transform="rotate(-180 400 500)" fill="#DE0000"/>
<rect x="400" y="600" width="100" height="100" transform="rotate(-180 400 600)" fill="#D9D9D9"/>
<rect x="400" y="300" width="100" height="100" transform="rotate(-180 400 300)" fill="#DE0000"/>
<rect x="400" y="400" width="100" height="100" transform="rotate(-180 400 400)" fill="#D9D9D9"/>
<rect x="400" y="100" width="100" height="100" transform="rotate(-180 400 100)" fill="#DE0000"/>
<rect x="400" y="200" width="100" height="100" transform="rotate(-180 400 200)" fill="#D9D9D9"/>
<rect x="400" y="100" width="100" height="100" transform="rotate(-180 400 100)" fill="#DE0000"/>
<rect x="400" y="200" width="100" height="100" transform="rotate(-180 400 200)" fill="#D9D9D9"/>
<rect y="100" width="100" height="100" fill="#DE0000"/>
<rect y="100" width="100" height="100" fill="#00CD52"/>
<rect y="300" width="100" height="100" fill="#00CD52"/>
<rect y="200" width="100" height="100" fill="#00CD52"/>
<rect y="500" width="100" height="100" fill="#DE0000"/>
<rect y="400" width="100" height="100" fill="#D9D9D9"/>
<rect y="500" width="100" height="100" fill="#00CD52"/>
<rect y="400" width="100" height="100" fill="#00CD52"/>
<rect y="700" width="100" height="100" fill="#C97500"/>
<rect y="600" width="100" height="100" fill="#C97500"/>
<rect y="900" width="100" height="100" fill="#DE0000"/>
<rect y="800" width="100" height="100" fill="#D9D9D9"/>
<rect y="900" width="100" height="100" fill="#00CD52"/>
<rect y="800" width="100" height="100" fill="#00CD52"/>
<rect x="200" y="900" width="100" height="100" transform="rotate(-180 200 900)" fill="#DE0000"/>
<rect x="200" y="1000" width="100" height="100" transform="rotate(-180 200 1000)" fill="#D9D9D9"/>
<rect x="200" y="900" width="100" height="100" transform="rotate(-180 200 900)" fill="#00CD52"/>
<rect x="200" y="1000" width="100" height="100" transform="rotate(-180 200 1000)" fill="#00CD52"/>
<rect x="200" y="700" width="100" height="100" transform="rotate(-180 200 700)" fill="#C97500"/>
<rect x="200" y="800" width="100" height="100" transform="rotate(-180 200 800)" fill="#C97500"/>
<rect x="200" y="500" width="100" height="100" transform="rotate(-180 200 500)" fill="#DE0000"/>
<rect x="200" y="600" width="100" height="100" transform="rotate(-180 200 600)" fill="#D9D9D9"/>
<rect x="200" y="500" width="100" height="100" transform="rotate(-180 200 500)" fill="#04BC4E"/>
<rect x="200" y="600" width="100" height="100" transform="rotate(-180 200 600)" fill="#00CD52"/>
<rect x="200" y="300" width="100" height="100" transform="rotate(-180 200 300)" fill="#00CD52"/>
<rect x="200" y="400" width="100" height="100" transform="rotate(-180 200 400)" fill="#00CD52"/>
<rect x="200" y="200" width="100" height="100" transform="rotate(-180 200 200)" fill="#D9D9D9"/>
<rect x="200" y="200" width="100" height="100" transform="rotate(-180 200 200)" fill="#00CD52"/>
<rect x="200" y="100" width="100" height="100" fill="#DE0000"/>
<path d="M0 1.11288e-06H100V100H0V1.11288e-06Z" fill="#9C3800"/>
<path d="M200 100H100V1.11288e-06L200 0L200 100Z" fill="#9C3800"/>
<path d="M200 0L300 1.11288e-06V100H200L200 0Z" fill="#9C3800"/>
<rect x="200" y="100" width="100" height="100" fill="#00CD52"/>
<rect x="200" y="300" width="100" height="100" fill="#00CD52"/>
<rect x="200" y="200" width="100" height="100" fill="#00CD52"/>
<rect x="200" y="500" width="100" height="100" fill="#DE0000"/>
<rect x="200" y="400" width="100" height="100" fill="#D9D9D9"/>
<rect x="200" y="500" width="100" height="100" fill="#00CD52"/>
<rect x="200" y="400" width="100" height="100" fill="#00CD52"/>
<rect x="200" y="700" width="100" height="100" fill="#C97500"/>
<rect x="200" y="600" width="100" height="100" fill="#C97500"/>
<rect x="200" y="900" width="100" height="100" fill="#DE0000"/>
<rect x="200" y="800" width="100" height="100" fill="#D9D9D9"/>
<rect x="200" y="900" width="100" height="100" fill="#00CD52"/>
<rect x="200" y="800" width="100" height="100" fill="#00CD52"/>
<rect x="400" y="900" width="100" height="100" transform="rotate(-180 400 900)" fill="#DE0000"/>
<rect x="400" y="1000" width="100" height="100" transform="rotate(-180 400 1000)" fill="#D9D9D9"/>
<rect x="400" y="900" width="100" height="100" transform="rotate(-180 400 900)" fill="#00CD52"/>
<rect x="400" y="1000" width="100" height="100" transform="rotate(-180 400 1000)" fill="#00CD52"/>
<rect x="400" y="700" width="100" height="100" transform="rotate(-180 400 700)" fill="#C97500"/>
<rect x="400" y="800" width="100" height="100" transform="rotate(-180 400 800)" fill="#C97500"/>
<rect x="400" y="500" width="100" height="100" transform="rotate(-180 400 500)" fill="#DE0000"/>
<rect x="400" y="600" width="100" height="100" transform="rotate(-180 400 600)" fill="#D9D9D9"/>
<rect x="400" y="500" width="100" height="100" transform="rotate(-180 400 500)" fill="#C97500"/>
<rect x="400" y="600" width="100" height="100" transform="rotate(-180 400 600)" fill="#C97500"/>
<rect x="400" y="300" width="100" height="100" transform="rotate(-180 400 300)" fill="#C97500"/>
<rect x="400" y="400" width="100" height="100" transform="rotate(-180 400 400)" fill="#C97500"/>
<rect x="400" y="100" width="100" height="100" transform="rotate(-180 400 100)" fill="#DE0000"/>
<rect x="400" y="200" width="100" height="100" transform="rotate(-180 400 200)" fill="#D9D9D9"/>
<rect x="400" y="200" width="100" height="100" transform="rotate(-180 400 200)" fill="#00CD52"/>
<rect x="400" y="100" width="100" height="100" fill="#DE0000"/>
<rect x="400" width="100" height="100" fill="#D9D9D9"/>
<rect x="400" y="100" width="100" height="100" fill="#00CD52"/>
<rect x="400" y="300" width="100" height="100" fill="#C97500"/>
<rect x="400" y="200" width="100" height="100" fill="#C97500"/>
<rect x="400" y="500" width="100" height="100" fill="#DE0000"/>
<rect x="400" y="400" width="100" height="100" fill="#D9D9D9"/>
<rect x="400" y="500" width="100" height="100" fill="#C97500"/>
<rect x="400" y="400" width="100" height="100" fill="#C97500"/>
<rect x="400" y="700" width="100" height="100" fill="#C97500"/>
<rect x="400" y="600" width="100" height="100" fill="#C97500"/>
<rect x="400" y="900" width="100" height="100" fill="#DE0000"/>
<rect x="400" y="800" width="100" height="100" fill="#D9D9D9"/>
<rect x="400" y="900" width="100" height="100" fill="#00CD52"/>
<rect x="400" y="800" width="100" height="100" fill="#00CD52"/>
<rect x="600" y="900" width="100" height="100" transform="rotate(-180 600 900)" fill="#DE0000"/>
<rect x="600" y="1000" width="100" height="100" transform="rotate(-180 600 1000)" fill="#D9D9D9"/>
<rect x="600" y="900" width="100" height="100" transform="rotate(-180 600 900)" fill="#00CD52"/>
<rect x="600" y="1000" width="100" height="100" transform="rotate(-180 600 1000)" fill="#00CD52"/>
<rect x="600" y="700" width="100" height="100" transform="rotate(-180 600 700)" fill="#00CD52"/>
<rect x="600" y="800" width="100" height="100" transform="rotate(-180 600 800)" fill="#00CD52"/>
<rect x="600" y="500" width="100" height="100" transform="rotate(-180 600 500)" fill="#DE0000"/>
<rect x="600" y="600" width="100" height="100" transform="rotate(-180 600 600)" fill="#D9D9D9"/>
<rect x="600" y="500" width="100" height="100" transform="rotate(-180 600 500)" fill="#00CD52"/>
<rect x="600" y="600" width="100" height="100" transform="rotate(-180 600 600)" fill="#00CD52"/>
<rect x="600" y="300" width="100" height="100" transform="rotate(-180 600 300)" fill="#C97500"/>
<rect x="600" y="400" width="100" height="100" transform="rotate(-180 600 400)" fill="#C97500"/>
<rect x="600" y="100" width="100" height="100" transform="rotate(-180 600 100)" fill="#DE0000"/>
<rect x="600" y="200" width="100" height="100" transform="rotate(-180 600 200)" fill="#D9D9D9"/>
<rect x="400" y="100" width="100" height="100" transform="rotate(-180 400 100)" fill="#9C3800"/>
<rect x="400" width="100" height="100" fill="#9C3800"/>
<rect x="600" y="100" width="100" height="100" transform="rotate(-180 600 100)" fill="#9C3800"/>
<rect x="600" y="200" width="100" height="100" transform="rotate(-180 600 200)" fill="#00CD52"/>
<rect x="600" y="100" width="100" height="100" fill="#DE0000"/>
<rect x="600" width="100" height="100" fill="#D9D9D9"/>
<rect x="600" y="100" width="100" height="100" fill="#00CD52"/>
<rect x="600" width="100" height="100" fill="#00CD52"/>
<rect x="600" y="300" width="100" height="100" fill="#C97500"/>
<rect x="600" y="200" width="100" height="100" fill="#C97500"/>
<rect x="600" y="400" width="100" height="100" fill="#D9D9D9"/>
<rect x="600" y="400" width="100" height="100" fill="#00CD52"/>
<rect x="600" y="700" width="100" height="100" fill="#00CD52"/>
<rect x="600" y="600" width="100" height="100" fill="#00CD52"/>
<rect x="600" y="900" width="100" height="100" fill="#DE0000"/>
<rect x="600" y="800" width="100" height="100" fill="#D9D9D9"/>
<rect x="600" y="900" width="100" height="100" fill="#00CD52"/>
<rect x="600" y="800" width="100" height="100" fill="#00CD52"/>
<rect x="800" y="900" width="100" height="100" transform="rotate(-180 800 900)" fill="#DE0000"/>
<rect x="800" y="1000" width="100" height="100" transform="rotate(-180 800 1000)" fill="#D9D9D9"/>
<rect x="800" y="900" width="100" height="100" transform="rotate(-180 800 900)" fill="#00CD52"/>
<rect x="800" y="1000" width="100" height="100" transform="rotate(-180 800 1000)" fill="#00CD52"/>
<rect x="800" y="700" width="100" height="100" transform="rotate(-180 800 700)" fill="#00CD52"/>
<rect x="800" y="800" width="100" height="100" transform="rotate(-180 800 800)" fill="#00CD52"/>
<rect x="800" y="500" width="100" height="100" transform="rotate(-180 800 500)" fill="#DE0000"/>
<rect x="800" y="600" width="100" height="100" transform="rotate(-180 800 600)" fill="#D9D9D9"/>
<rect x="800" y="500" width="100" height="100" transform="rotate(-180 800 500)" fill="#00CD52"/>
<rect x="800" y="600" width="100" height="100" transform="rotate(-180 800 600)" fill="#00CD52"/>
<rect x="800" y="300" width="100" height="100" transform="rotate(-180 800 300)" fill="#C97500"/>
<rect x="800" y="400" width="100" height="100" transform="rotate(-180 800 400)" fill="#C97500"/>
<rect x="800" y="100" width="100" height="100" transform="rotate(-180 800 100)" fill="#DE0000"/>
<rect x="800" y="200" width="100" height="100" transform="rotate(-180 800 200)" fill="#D9D9D9"/>
<rect x="800" y="100" width="100" height="100" transform="rotate(-180 800 100)" fill="#00CD52"/>
<rect x="800" y="200" width="100" height="100" transform="rotate(-180 800 200)" fill="#00CD52"/>
<rect x="800" y="100" width="100" height="100" fill="#DE0000"/>
<rect x="800" width="100" height="100" fill="#D9D9D9"/>
<rect x="800" y="100" width="100" height="100" fill="#DE0000"/>
<rect x="800" width="100" height="100" fill="#D9D9D9"/>
<rect x="800" y="300" width="100" height="100" fill="#DE0000"/>
<rect x="800" y="200" width="100" height="100" fill="#D9D9D9"/>
<rect x="800" y="500" width="100" height="100" fill="#DE0000"/>
<rect x="800" y="400" width="100" height="100" fill="#D9D9D9"/>
<rect x="800" y="500" width="100" height="100" fill="#DE0000"/>
<rect x="800" y="400" width="100" height="100" fill="#D9D9D9"/>
<rect x="800" y="700" width="100" height="100" fill="#DE0000"/>
<rect x="800" y="600" width="100" height="100" fill="#D9D9D9"/>
<rect x="800" y="900" width="100" height="100" fill="#DE0000"/>
<rect x="800" y="800" width="100" height="100" fill="#D9D9D9"/>
<rect x="800" y="900" width="100" height="100" fill="#DE0000"/>
<rect x="800" y="800" width="100" height="100" fill="#D9D9D9"/>
<rect x="1000" y="900" width="100" height="100" transform="rotate(-180 1000 900)" fill="#DE0000"/>
<rect x="1000" y="1000" width="100" height="100" transform="rotate(-180 1000 1000)" fill="#D9D9D9"/>
<rect x="1000" y="900" width="100" height="100" transform="rotate(-180 1000 900)" fill="#DE0000"/>
<rect x="1000" y="1000" width="100" height="100" transform="rotate(-180 1000 1000)" fill="#D9D9D9"/>
<rect x="1000" y="700" width="100" height="100" transform="rotate(-180 1000 700)" fill="#DE0000"/>
<rect x="1000" y="800" width="100" height="100" transform="rotate(-180 1000 800)" fill="#D9D9D9"/>
<rect x="1000" y="500" width="100" height="100" transform="rotate(-180 1000 500)" fill="#DE0000"/>
<rect x="1000" y="600" width="100" height="100" transform="rotate(-180 1000 600)" fill="#D9D9D9"/>
<rect x="1000" y="500" width="100" height="100" transform="rotate(-180 1000 500)" fill="#DE0000"/>
<rect x="1000" y="600" width="100" height="100" transform="rotate(-180 1000 600)" fill="#D9D9D9"/>
<rect x="1000" y="300" width="100" height="100" transform="rotate(-180 1000 300)" fill="#DE0000"/>
<rect x="1000" y="400" width="100" height="100" transform="rotate(-180 1000 400)" fill="#D9D9D9"/>
<rect x="1000" y="100" width="100" height="100" transform="rotate(-180 1000 100)" fill="#DE0000"/>
<rect x="1000" y="200" width="100" height="100" transform="rotate(-180 1000 200)" fill="#D9D9D9"/>
<rect x="1000" y="100" width="100" height="100" transform="rotate(-180 1000 100)" fill="#DE0000"/>
<rect x="1000" y="200" width="100" height="100" transform="rotate(-180 1000 200)" fill="#D9D9D9"/>
<rect x="1000" y="100" width="100" height="100" fill="#DE0000"/>
<rect x="1000" width="100" height="100" fill="#D9D9D9"/>
<rect x="1000" y="100" width="100" height="100" fill="#DE0000"/>
<rect x="1000" width="100" height="100" fill="#D9D9D9"/>
<rect x="1000" y="300" width="100" height="100" fill="#DE0000"/>
<rect x="1000" y="200" width="100" height="100" fill="#D9D9D9"/>
<rect x="1000" y="500" width="100" height="100" fill="#DE0000"/>
<rect x="1000" y="400" width="100" height="100" fill="#D9D9D9"/>
<rect x="1000" y="500" width="100" height="100" fill="#DE0000"/>
<rect x="1000" y="400" width="100" height="100" fill="#D9D9D9"/>
<rect x="1000" y="700" width="100" height="100" fill="#DE0000"/>
<rect x="1000" y="600" width="100" height="100" fill="#D9D9D9"/>
<rect x="1000" y="900" width="100" height="100" fill="#DE0000"/>
<rect x="1000" y="800" width="100" height="100" fill="#D9D9D9"/>
<rect x="1000" y="900" width="100" height="100" fill="#DE0000"/>
<rect x="1000" y="800" width="100" height="100" fill="#D9D9D9"/>
<rect x="1200" y="900" width="100" height="100" transform="rotate(-180 1200 900)" fill="#DE0000"/>
<rect x="1200" y="1000" width="100" height="100" transform="rotate(-180 1200 1000)" fill="#D9D9D9"/>
<rect x="1200" y="900" width="100" height="100" transform="rotate(-180 1200 900)" fill="#DE0000"/>
<rect x="1200" y="1000" width="100" height="100" transform="rotate(-180 1200 1000)" fill="#D9D9D9"/>
<rect x="1200" y="700" width="100" height="100" transform="rotate(-180 1200 700)" fill="#DE0000"/>
<rect x="1200" y="800" width="100" height="100" transform="rotate(-180 1200 800)" fill="#D9D9D9"/>
<rect x="1200" y="500" width="100" height="100" transform="rotate(-180 1200 500)" fill="#DE0000"/>
<rect x="1200" y="600" width="100" height="100" transform="rotate(-180 1200 600)" fill="#D9D9D9"/>
<rect x="1200" y="500" width="100" height="100" transform="rotate(-180 1200 500)" fill="#DE0000"/>
<rect x="1200" y="600" width="100" height="100" transform="rotate(-180 1200 600)" fill="#D9D9D9"/>
<rect x="1200" y="300" width="100" height="100" transform="rotate(-180 1200 300)" fill="#DE0000"/>
<rect x="1200" y="400" width="100" height="100" transform="rotate(-180 1200 400)" fill="#D9D9D9"/>
<rect x="1200" y="100" width="100" height="100" transform="rotate(-180 1200 100)" fill="#DE0000"/>
<rect x="1200" y="200" width="100" height="100" transform="rotate(-180 1200 200)" fill="#D9D9D9"/>
<rect x="1200" y="100" width="100" height="100" transform="rotate(-180 1200 100)" fill="#DE0000"/>
<rect x="1200" y="200" width="100" height="100" transform="rotate(-180 1200 200)" fill="#D9D9D9"/>
<rect x="800" y="100" width="100" height="100" fill="#DE0000"/>
<rect x="800" width="100" height="100" fill="#D9D9D9"/>
<rect x="800" y="100" width="100" height="100" fill="#00CD52"/>
<rect x="800" width="100" height="100" fill="#00CD52"/>
<rect x="800" y="300" width="100" height="100" fill="#C97500"/>
<rect x="800" y="200" width="100" height="100" fill="#C97500"/>
<rect x="800" y="500" width="100" height="100" fill="#DE0000"/>
<rect x="800" y="400" width="100" height="100" fill="#D9D9D9"/>
<rect x="800" y="500" width="100" height="100" fill="#C97500"/>
<rect x="800" y="400" width="100" height="100" fill="#C97500"/>
<rect x="800" y="700" width="100" height="100" fill="#00CD52"/>
<rect x="800" y="600" width="100" height="100" fill="#C97500"/>
<rect x="800" y="900" width="100" height="100" fill="#DE0000"/>
<rect x="800" y="800" width="100" height="100" fill="#D9D9D9"/>
<rect x="800" y="900" width="100" height="100" fill="#00CD52"/>
<rect x="800" y="800" width="100" height="100" fill="#00CD52"/>
<rect x="1000" y="900" width="100" height="100" transform="rotate(-180 1000 900)" fill="#DE0000"/>
<rect x="1000" y="1000" width="100" height="100" transform="rotate(-180 1000 1000)" fill="#D9D9D9"/>
<rect x="1000" y="900" width="100" height="100" transform="rotate(-180 1000 900)" fill="#00CD52"/>
<rect x="1000" y="1000" width="100" height="100" transform="rotate(-180 1000 1000)" fill="#00CD52"/>
<rect x="1000" y="700" width="100" height="100" transform="rotate(-180 1000 700)" fill="#C97500"/>
<rect x="1000" y="800" width="100" height="100" transform="rotate(-180 1000 800)" fill="#00CD52"/>
<rect x="1000" y="500" width="100" height="100" transform="rotate(-180 1000 500)" fill="#DE0000"/>
<rect x="1000" y="600" width="100" height="100" transform="rotate(-180 1000 600)" fill="#D9D9D9"/>
<rect x="1000" y="500" width="100" height="100" transform="rotate(-180 1000 500)" fill="#C97500"/>
<rect x="1000" y="600" width="100" height="100" transform="rotate(-180 1000 600)" fill="#C97500"/>
<rect x="1000" y="300" width="100" height="100" transform="rotate(-180 1000 300)" fill="#C97500"/>
<rect x="1000" y="400" width="100" height="100" transform="rotate(-180 1000 400)" fill="#C97500"/>
<rect x="1000" y="100" width="100" height="100" transform="rotate(-180 1000 100)" fill="#DE0000"/>
<rect x="1000" y="200" width="100" height="100" transform="rotate(-180 1000 200)" fill="#D9D9D9"/>
<rect x="1000" y="100" width="100" height="100" transform="rotate(-180 1000 100)" fill="#00CD52"/>
<rect x="1000" y="200" width="100" height="100" transform="rotate(-180 1000 200)" fill="#00CD52"/>
<rect x="1000" y="100" width="100" height="100" fill="#DE0000"/>
<rect x="1000" width="100" height="100" fill="#D9D9D9"/>
<rect x="1000" y="100" width="100" height="100" fill="#00CD52"/>
<rect x="1000" width="100" height="100" fill="#00CD52"/>
<rect x="1000" y="300" width="100" height="100" fill="#00CD52"/>
<rect x="1000" y="200" width="100" height="100" fill="#00CD52"/>
<rect x="1000" y="500" width="100" height="100" fill="#DE0000"/>
<rect x="1000" y="400" width="100" height="100" fill="#D9D9D9"/>
<rect x="1000" y="500" width="100" height="100" fill="#C97500"/>
<rect x="1000" y="400" width="100" height="100" fill="#00CD52"/>
<rect x="1000" y="700" width="100" height="100" fill="#00CD52"/>
<rect x="1000" y="600" width="100" height="100" fill="#C97500"/>
<rect x="1000" y="900" width="100" height="100" fill="#DE0000"/>
<rect x="1000" y="800" width="100" height="100" fill="#D9D9D9"/>
<rect x="1000" y="900" width="100" height="100" fill="#00CD52"/>
<rect x="1000" y="800" width="100" height="100" fill="#00CD52"/>
<rect x="1200" y="900" width="100" height="100" transform="rotate(-180 1200 900)" fill="#DE0000"/>
<rect x="1200" y="1000" width="100" height="100" transform="rotate(-180 1200 1000)" fill="#D9D9D9"/>
<rect x="1200" y="900" width="100" height="100" transform="rotate(-180 1200 900)" fill="#00CD52"/>
<rect x="1200" y="1000" width="100" height="100" transform="rotate(-180 1200 1000)" fill="#00CD52"/>
<rect x="1200" y="700" width="100" height="100" transform="rotate(-180 1200 700)" fill="#C97500"/>
<rect x="1200" y="800" width="100" height="100" transform="rotate(-180 1200 800)" fill="#00CD52"/>
<rect x="1200" y="500" width="100" height="100" transform="rotate(-180 1200 500)" fill="#DE0000"/>
<rect x="1200" y="600" width="100" height="100" transform="rotate(-180 1200 600)" fill="#D9D9D9"/>
<rect x="1200" y="500" width="100" height="100" transform="rotate(-180 1200 500)" fill="#00CD52"/>
<rect x="1200" y="600" width="100" height="100" transform="rotate(-180 1200 600)" fill="#C97500"/>
<rect x="1200" y="300" width="100" height="100" transform="rotate(-180 1200 300)" fill="#00CD52"/>
<g style="mix-blend-mode:multiply">
<rect x="1200" y="400" width="100" height="100" transform="rotate(-180 1200 400)" fill="#04BC4E"/>
</g>
<rect x="1200" y="100" width="100" height="100" transform="rotate(-180 1200 100)" fill="#DE0000"/>
<rect x="1200" y="200" width="100" height="100" transform="rotate(-180 1200 200)" fill="#D9D9D9"/>
<rect x="1200" y="100" width="100" height="100" transform="rotate(-180 1200 100)" fill="#00CD52"/>
<rect x="1200" y="200" width="100" height="100" transform="rotate(-180 1200 200)" fill="#00CD52"/>
<rect x="1200" y="100" width="100" height="100" fill="#DE0000"/>
<rect x="1200" width="100" height="100" fill="#D9D9D9"/>
<rect x="1200" y="100" width="100" height="100" fill="#00CD52"/>
<rect x="1200" width="100" height="100" fill="#00CD52"/>
<rect x="1200" y="300" width="100" height="100" fill="#00CD52"/>
<rect x="1200" y="200" width="100" height="100" fill="#00CD52"/>
<rect x="1200" y="500" width="100" height="100" fill="#DE0000"/>
<rect x="1200" y="400" width="100" height="100" fill="#D9D9D9"/>
<rect x="1200" y="500" width="100" height="100" fill="#C97500"/>
<rect x="1200" y="400" width="100" height="100" fill="#00CD52"/>
<rect x="1200" y="700" width="100" height="100" fill="#00CD52"/>
<rect x="1200" y="600" width="100" height="100" fill="#C97500"/>
<rect x="1200" y="900" width="100" height="100" fill="#DE0000"/>
<rect x="1200" y="800" width="100" height="100" fill="#D9D9D9"/>
<rect x="1200" y="900" width="100" height="100" fill="#00CD52"/>
<rect x="1200" y="800" width="100" height="100" fill="#00CD52"/>
<rect x="1400" y="900" width="100" height="100" transform="rotate(-180 1400 900)" fill="#DE0000"/>
<rect x="1400" y="1000" width="100" height="100" transform="rotate(-180 1400 1000)" fill="#D9D9D9"/>
<rect x="1400" y="900" width="100" height="100" transform="rotate(-180 1400 900)" fill="#00CD52"/>
<rect x="1400" y="1000" width="100" height="100" transform="rotate(-180 1400 1000)" fill="#00CD52"/>
<rect x="1400" y="700" width="100" height="100" transform="rotate(-180 1400 700)" fill="#C97500"/>
<rect x="1400" y="800" width="100" height="100" transform="rotate(-180 1400 800)" fill="#00CD52"/>
<rect x="1400" y="500" width="100" height="100" transform="rotate(-180 1400 500)" fill="#DE0000"/>
<rect x="1400" y="600" width="100" height="100" transform="rotate(-180 1400 600)" fill="#D9D9D9"/>
<rect x="1400" y="500" width="100" height="100" transform="rotate(-180 1400 500)" fill="#00CD52"/>
<rect x="1400" y="600" width="100" height="100" transform="rotate(-180 1400 600)" fill="#C97500"/>
<rect x="1400" y="300" width="100" height="100" transform="rotate(-180 1400 300)" fill="#00CD52"/>
<rect x="1400" y="400" width="100" height="100" transform="rotate(-180 1400 400)" fill="#00CD52"/>
<rect x="1400" y="100" width="100" height="100" transform="rotate(-180 1400 100)" fill="#DE0000"/>
<rect x="1400" y="200" width="100" height="100" transform="rotate(-180 1400 200)" fill="#D9D9D9"/>
<rect x="1400" y="100" width="100" height="100" transform="rotate(-180 1400 100)" fill="#00CD52"/>
<rect x="1400" y="200" width="100" height="100" transform="rotate(-180 1400 200)" fill="#00CD52"/>
<rect x="1400" y="100" width="100" height="100" fill="#DE0000"/>
<rect x="1400" width="100" height="100" fill="#D9D9D9"/>
<rect x="1400" y="100" width="100" height="100" fill="#00CD52"/>
<rect x="1400" width="100" height="100" fill="#00CD52"/>
<rect x="1400" y="300" width="100" height="100" fill="#00CD52"/>
<rect x="1400" y="200" width="100" height="100" fill="#00CD52"/>
<rect x="1400" y="500" width="100" height="100" fill="#DE0000"/>
<rect x="1400" y="400" width="100" height="100" fill="#D9D9D9"/>
<rect x="1400" y="900" width="100" height="100" fill="#DE0000"/>
<rect x="1400" y="800" width="100" height="100" fill="#D9D9D9"/>
<rect x="1400" y="900" width="100" height="100" fill="#00CD52"/>
<rect x="1400" y="800" width="100" height="100" fill="#00CD52"/>
<rect x="1600" y="900" width="100" height="100" transform="rotate(-180 1600 900)" fill="#DE0000"/>
<rect x="1600" y="1000" width="100" height="100" transform="rotate(-180 1600 1000)" fill="#D9D9D9"/>
<rect x="1600" y="900" width="100" height="100" transform="rotate(-180 1600 900)" fill="#00CD52"/>
<rect x="1600" y="1000" width="100" height="100" transform="rotate(-180 1600 1000)" fill="#00CD52"/>
<rect x="1600" y="500" width="100" height="100" transform="rotate(-180 1600 500)" fill="#DE0000"/>
<rect x="1600" y="600" width="100" height="100" transform="rotate(-180 1600 600)" fill="#D9D9D9"/>
<path d="M1400 500H1500V600H1400V500Z" fill="#A6A7A5"/>
<path d="M1400 400H1500V500H1400V400Z" fill="#A6A7A5"/>
<path d="M1400 700H1500V800H1400V700Z" fill="#A6A7A5"/>
<path d="M1400 600H1500V700H1400V600Z" fill="#A6A7A5"/>
<path d="M1600 700H1500V600H1600L1600 700Z" fill="#A6A7A5"/>
<path d="M1600 800H1500V700H1600V800Z" fill="#A6A7A5"/>
<path d="M1600 500H1500V400H1600L1600 500Z" fill="#A6A7A5"/>
<path d="M1600 600H1500V500H1600L1600 600Z" fill="#A6A7A5"/>
<rect x="1600" y="300" width="100" height="100" transform="rotate(-180 1600 300)" fill="#00CD52"/>
<rect x="1600" y="400" width="100" height="100" transform="rotate(-180 1600 400)" fill="#00CD52"/>
<rect x="1600" y="100" width="100" height="100" transform="rotate(-180 1600 100)" fill="#DE0000"/>
<rect x="1600" y="200" width="100" height="100" transform="rotate(-180 1600 200)" fill="#D9D9D9"/>
<rect x="1600" y="100" width="100" height="100" transform="rotate(-180 1600 100)" fill="#00CD52"/>
<rect x="1600" y="200" width="100" height="100" transform="rotate(-180 1600 200)" fill="#00CD52"/>
<path d="M299 100V101H300H450H600H601V100V50L601 0V-1H600L450 -0.999999H300H299V0V50V100Z" fill="url(#paint0_radial_38_428)" stroke="black" stroke-width="2"/>
<path d="M-1 100V101H0H150H300H301V100V50L301 0V-1H300L150 -0.999999H0H-1V0V50V100Z" fill="url(#paint1_radial_38_428)" stroke="black" stroke-width="2"/>
<path d="M665 832.333L684.837 893L742.878 900L773 832.333L742.878 852.167L756.837 832.333L723.776 841.667L731.122 804.333L712.02 846.333L705.408 767L690.714 852.167L684.837 799.667L679.694 852.167L665 832.333Z" fill="url(#paint2_linear_38_428)" stroke="url(#paint3_linear_38_428)" stroke-width="3"/>
<path d="M1042 148.333L1061.84 209L1119.88 216L1150 148.333L1119.88 168.167L1133.84 148.333L1100.78 157.667L1108.12 120.333L1089.02 162.333L1082.41 83L1067.71 168.167L1061.84 115.667L1056.69 168.167L1042 148.333Z" fill="url(#paint4_linear_38_428)" stroke="url(#paint5_linear_38_428)" stroke-width="3"/>
<path d="M1300 882.333L1319.84 943L1377.88 950L1408 882.333L1377.88 902.167L1391.84 882.333L1358.78 891.667L1366.12 854.333L1347.02 896.333L1340.41 817L1325.71 902.167L1319.84 849.667L1314.69 902.167L1300 882.333Z" fill="url(#paint6_linear_38_428)" stroke="url(#paint7_linear_38_428)" stroke-width="3"/>
<path d="M61 265.333L80.8367 326L138.878 333L169 265.333L138.878 285.167L152.837 265.333L119.776 274.667L127.122 237.333L108.02 279.333L101.408 200L86.7143 285.167L80.8367 232.667L75.6939 285.167L61 265.333Z" fill="url(#paint8_linear_38_428)" stroke="url(#paint9_linear_38_428)" stroke-width="3"/>
<path d="M1500.5 388L1598.79 501.25H1402.21L1500.5 388Z" fill="#D9D9D9"/>
<g style="mix-blend-mode:multiply">
<rect x="700" y="600" width="100" height="100" transform="rotate(-180 700 600)" fill="#04BC4E"/>
</g>
</g>
<defs>
<radialGradient id="paint0_radial_38_428" cx="0" cy="0" r="1" gradientUnits="userSpaceOnUse" gradientTransform="translate(450 50) rotate(90) scale(50 150)">
<stop stop-color="#CB4A01"/>
<stop offset="1" stop-color="#CB4A01" stop-opacity="0"/>
</radialGradient>
<radialGradient id="paint1_radial_38_428" cx="0" cy="0" r="1" gradientUnits="userSpaceOnUse" gradientTransform="translate(150 50) rotate(90) scale(50 150)">
<stop stop-color="#CB4A01"/>
<stop offset="1" stop-color="#CB4A01" stop-opacity="0"/>
</radialGradient>
<linearGradient id="paint2_linear_38_428" x1="719" y1="767" x2="719" y2="900" gradientUnits="userSpaceOnUse">
<stop stop-color="#00CD52"/>
<stop offset="0.0001" stop-color="#00CD52" stop-opacity="0.947917"/>
<stop offset="1" stop-color="#00CD52" stop-opacity="0"/>
</linearGradient>
<linearGradient id="paint3_linear_38_428" x1="719" y1="767" x2="719" y2="900" gradientUnits="userSpaceOnUse">
<stop stop-color="#259300"/>
<stop offset="1" stop-color="#259300" stop-opacity="0"/>
</linearGradient>
<linearGradient id="paint4_linear_38_428" x1="1096" y1="83" x2="1096" y2="216" gradientUnits="userSpaceOnUse">
<stop stop-color="#00CD52"/>
<stop offset="0.0001" stop-color="#00CD52" stop-opacity="0.947917"/>
<stop offset="1" stop-color="#00CD52" stop-opacity="0"/>
</linearGradient>
<linearGradient id="paint5_linear_38_428" x1="1096" y1="83" x2="1096" y2="216" gradientUnits="userSpaceOnUse">
<stop stop-color="#259300"/>
<stop offset="1" stop-color="#259300" stop-opacity="0"/>
</linearGradient>
<linearGradient id="paint6_linear_38_428" x1="1354" y1="817" x2="1354" y2="950" gradientUnits="userSpaceOnUse">
<stop stop-color="#00CD52"/>
<stop offset="0.0001" stop-color="#00CD52" stop-opacity="0.947917"/>
<stop offset="1" stop-color="#00CD52" stop-opacity="0"/>
</linearGradient>
<linearGradient id="paint7_linear_38_428" x1="1354" y1="817" x2="1354" y2="950" gradientUnits="userSpaceOnUse">
<stop stop-color="#259300"/>
<stop offset="1" stop-color="#259300" stop-opacity="0"/>
</linearGradient>
<linearGradient id="paint8_linear_38_428" x1="115" y1="200" x2="115" y2="333" gradientUnits="userSpaceOnUse">
<stop stop-color="#00CD52"/>
<stop offset="0.0001" stop-color="#00CD52" stop-opacity="0.947917"/>
<stop offset="1" stop-color="#00CD52" stop-opacity="0"/>
</linearGradient>
<linearGradient id="paint9_linear_38_428" x1="115" y1="200" x2="115" y2="333" gradientUnits="userSpaceOnUse">
<stop stop-color="#259300"/>
<stop offset="1" stop-color="#259300" stop-opacity="0"/>
</linearGradient>
<clipPath id="clip0_38_428">
<rect width="1600" height="1000" fill="white"/>
</clipPath>
</defs>
</svg>
