<svg width="1600" height="1000" viewBox="0 0 1600 1000" fill="none" xmlns="http://www.w3.org/2000/svg">
<g clip-path="url(#clip0_145_2)">
<rect width="1600" height="1000" fill="white"/>
<rect y="100" width="100" height="100" fill="#00CD52"/>
<rect width="100" height="100" fill="#D9D9D9"/>
<rect y="100" width="100" height="100" fill="#00CD52"/>
<rect width="100" height="100" fill="#D9D9D9"/>
<rect y="300" width="100" height="100" fill="#00CD52"/>
<rect y="200" width="100" height="100" fill="#00CD52"/>
<rect y="500" width="100" height="100" fill="#00CD52"/>
<rect y="400" width="100" height="100" fill="#00CD52"/>
<rect y="500" width="100" height="100" fill="#00CD52"/>
<rect y="400" width="100" height="100" fill="#00CD52"/>
<rect y="700" width="100" height="100" fill="#00CD52"/>
<rect y="600" width="100" height="100" fill="#00CD52"/>
<rect y="900" width="100" height="100" fill="#00CD52"/>
<rect y="800" width="100" height="100" fill="#00CD52"/>
<rect y="900" width="100" height="100" fill="#00CD52"/>
<rect y="800" width="100" height="100" fill="#00CD52"/>
<rect x="200" y="900" width="100" height="100" transform="rotate(-180 200 900)" fill="#DE0000"/>
<rect x="200" y="1000" width="100" height="100" transform="rotate(-180 200 1000)" fill="#00CD52"/>
<rect x="200" y="900" width="100" height="100" transform="rotate(-180 200 900)" fill="#DE0000"/>
<rect x="200" y="1000" width="100" height="100" transform="rotate(-180 200 1000)" fill="#00CD52"/>
<rect x="200" y="700" width="100" height="100" transform="rotate(-180 200 700)" fill="#C97500"/>
<rect x="200" y="800" width="100" height="100" transform="rotate(-180 200 800)" fill="#C97500"/>
<rect x="200" y="500" width="100" height="100" transform="rotate(-180 200 500)" fill="#00CD52"/>
<rect x="200" y="600" width="100" height="100" transform="rotate(-180 200 600)" fill="#00CD52"/>
<rect x="200" y="500" width="100" height="100" transform="rotate(-180 200 500)" fill="#00CD52"/>
<rect x="200" y="600" width="100" height="100" transform="rotate(-180 200 600)" fill="#00CD52"/>
<rect x="200" y="300" width="100" height="100" transform="rotate(-180 200 300)" fill="#00CD52"/>
<rect x="200" y="400" width="100" height="100" transform="rotate(-180 200 400)" fill="#00CD52"/>
<rect x="200" y="100" width="100" height="100" transform="rotate(-180 200 100)" fill="#DE0000"/>
<rect x="200" y="200" width="100" height="100" transform="rotate(-180 200 200)" fill="#00CD52"/>
<rect x="200" y="100" width="100" height="100" transform="rotate(-180 200 100)" fill="#DE0000"/>
<rect x="200" y="200" width="100" height="100" transform="rotate(-180 200 200)" fill="#00CD52"/>
<rect x="200" y="100" width="100" height="100" fill="#00CD52"/>
<rect x="200" width="100" height="100" fill="#D9D9D9"/>
<rect x="200" y="100" width="100" height="100" fill="#00CD52"/>
<rect x="200" width="100" height="100" fill="#D9D9D9"/>
<rect x="200" y="300" width="100" height="100" fill="#00CD52"/>
<rect x="200" y="200" width="100" height="100" fill="#00CD52"/>
<rect x="200" y="500" width="100" height="100" fill="#00CD52"/>
<rect x="200" y="400" width="100" height="100" fill="#00CD52"/>
<rect x="200" y="500" width="100" height="100" fill="#00CD52"/>
<rect x="200" y="400" width="100" height="100" fill="#00CD52"/>
<rect x="200" y="700" width="100" height="100" fill="#C97500"/>
<rect x="200" y="600" width="100" height="100" fill="#C97500"/>
<rect x="200" y="900" width="100" height="100" fill="#00CD52"/>
<rect x="200" y="800" width="100" height="100" fill="#D9D9D9"/>
<rect x="200" y="900" width="100" height="100" fill="#00CD52"/>
<rect x="200" y="800" width="100" height="100" fill="#D9D9D9"/>
<rect x="400" y="900" width="100" height="100" transform="rotate(-180 400 900)" fill="#DE0000"/>
<rect x="400" y="1000" width="100" height="100" transform="rotate(-180 400 1000)" fill="#00CD52"/>
<rect x="400" y="900" width="100" height="100" transform="rotate(-180 400 900)" fill="#DE0000"/>
<rect x="400" y="1000" width="100" height="100" transform="rotate(-180 400 1000)" fill="#00CD52"/>
<rect x="400" y="700" width="100" height="100" transform="rotate(-180 400 700)" fill="#C97500"/>
<rect x="400" y="800" width="100" height="100" transform="rotate(-180 400 800)" fill="#C97500"/>
<rect x="400" y="500" width="100" height="100" transform="rotate(-180 400 500)" fill="#00CD52"/>
<rect x="400" y="600" width="100" height="100" transform="rotate(-180 400 600)" fill="#00CD52"/>
<rect x="400" y="500" width="100" height="100" transform="rotate(-180 400 500)" fill="#00CD52"/>
<rect x="400" y="600" width="100" height="100" transform="rotate(-180 400 600)" fill="#00CD52"/>
<rect x="400" y="300" width="100" height="100" transform="rotate(-180 400 300)" fill="#00CD52"/>
<rect x="400" y="400" width="100" height="100" transform="rotate(-180 400 400)" fill="#00CD52"/>
<rect x="400" y="100" width="100" height="100" transform="rotate(-180 400 100)" fill="#DE0000"/>
<rect x="400" y="200" width="100" height="100" transform="rotate(-180 400 200)" fill="#00CD52"/>
<rect x="400" y="100" width="100" height="100" transform="rotate(-180 400 100)" fill="#DE0000"/>
<rect x="400" y="200" width="100" height="100" transform="rotate(-180 400 200)" fill="#00CD52"/>
<rect y="100" width="100" height="100" fill="#00CD52"/>
<rect width="100" height="100" fill="#D9D9D9"/>
<rect y="100" width="100" height="100" fill="#00CD52"/>
<rect y="300" width="100" height="100" fill="#00CD52"/>
<rect y="200" width="100" height="100" fill="#00CD52"/>
<rect y="500" width="100" height="100" fill="#00CD52"/>
<rect y="400" width="100" height="100" fill="#00CD52"/>
<rect y="500" width="100" height="100" fill="#00CD52"/>
<rect y="400" width="100" height="100" fill="#00CD52"/>
<rect y="900" width="100" height="100" fill="#00CD52"/>
<rect y="800" width="100" height="100" fill="#00CD52"/>
<rect y="900" width="100" height="100" fill="#00CD52"/>
<rect y="800" width="100" height="100" fill="#00CD52"/>
<rect x="200" y="900" width="100" height="100" transform="rotate(-180 200 900)" fill="#DE0000"/>
<rect x="200" y="1000" width="100" height="100" transform="rotate(-180 200 1000)" fill="#00CD52"/>
<rect x="200" y="900" width="100" height="100" transform="rotate(-180 200 900)" fill="#00CD52"/>
<rect x="200" y="1000" width="100" height="100" transform="rotate(-180 200 1000)" fill="#00CD52"/>
<rect x="200" y="500" width="100" height="100" transform="rotate(-180 200 500)" fill="#00CD52"/>
<rect x="200" y="600" width="100" height="100" transform="rotate(-180 200 600)" fill="#00CD52"/>
<rect x="200" y="600" width="100" height="100" transform="rotate(-180 200 600)" fill="#00CD52"/>
<rect x="200" y="300" width="100" height="100" transform="rotate(-180 200 300)" fill="#00CD52"/>
<rect x="200" y="400" width="100" height="100" transform="rotate(-180 200 400)" fill="#00CD52"/>
<rect x="200" y="100" width="100" height="100" transform="rotate(-180 200 100)" fill="#DE0000"/>
<rect x="200" y="200" width="100" height="100" transform="rotate(-180 200 200)" fill="#00CD52"/>
<rect x="200" y="200" width="100" height="100" transform="rotate(-180 200 200)" fill="#00CD52"/>
<rect x="200" y="100" width="100" height="100" fill="#00CD52"/>
<rect x="200" width="100" height="100" fill="#D9D9D9"/>
<rect x="200" y="100" width="100" height="100" fill="#00CD52"/>
<rect x="200" y="300" width="100" height="100" fill="#00CD52"/>
<rect x="200" y="200" width="100" height="100" fill="#00CD52"/>
<rect x="200" y="500" width="100" height="100" fill="#00CD52"/>
<rect x="200" y="400" width="100" height="100" fill="#00CD52"/>
<rect x="200" y="500" width="100" height="100" fill="#00CD52"/>
<rect x="200" y="400" width="100" height="100" fill="#00CD52"/>
<rect x="200" y="900" width="100" height="100" fill="#00CD52"/>
<rect x="200" y="800" width="100" height="100" fill="#D9D9D9"/>
<rect x="200" y="900" width="100" height="100" fill="#00CD52"/>
<rect x="200" y="800" width="100" height="100" fill="#C97500"/>
<rect x="400" y="900" width="100" height="100" transform="rotate(-180 400 900)" fill="#DE0000"/>
<rect x="400" y="1000" width="100" height="100" transform="rotate(-180 400 1000)" fill="#00CD52"/>
<rect x="400" y="900" width="100" height="100" transform="rotate(-180 400 900)" fill="#C97500"/>
<rect x="400" y="1000" width="100" height="100" transform="rotate(-180 400 1000)" fill="#00CD52"/>
<rect x="400" y="500" width="100" height="100" transform="rotate(-180 400 500)" fill="#00CD52"/>
<rect x="400" y="600" width="100" height="100" transform="rotate(-180 400 600)" fill="#00CD52"/>
<rect x="400" y="100" width="100" height="100" transform="rotate(-180 400 100)" fill="#DE0000"/>
<rect x="400" y="200" width="100" height="100" transform="rotate(-180 400 200)" fill="#00CD52"/>
<rect x="400" y="200" width="100" height="100" transform="rotate(-180 400 200)" fill="#00CD52"/>
<rect x="400" y="100" width="100" height="100" fill="#00CD52"/>
<rect x="400" width="100" height="100" fill="#D9D9D9"/>
<rect x="400" y="100" width="100" height="100" fill="#00CD52"/>
<rect x="400" y="500" width="100" height="100" fill="#00CD52"/>
<rect x="400" y="400" width="100" height="100" fill="#00CD52"/>
<rect x="400" y="900" width="100" height="100" fill="#00CD52"/>
<rect x="400" y="800" width="100" height="100" fill="#D9D9D9"/>
<rect x="400" y="900" width="100" height="100" fill="#00CD52"/>
<rect x="400" y="800" width="100" height="100" fill="#C97500"/>
<rect x="600" y="900" width="100" height="100" transform="rotate(-180 600 900)" fill="#DE0000"/>
<rect x="600" y="1000" width="100" height="100" transform="rotate(-180 600 1000)" fill="#00CD52"/>
<rect x="600" y="900" width="100" height="100" transform="rotate(-180 600 900)" fill="#C97500"/>
<rect x="600" y="1000" width="100" height="100" transform="rotate(-180 600 1000)" fill="#00CD52"/>
<rect x="600" y="700" width="100" height="100" transform="rotate(-180 600 700)" fill="#00CD52"/>
<rect x="600" y="800" width="100" height="100" transform="rotate(-180 600 800)" fill="#C97500"/>
<rect x="600" y="500" width="100" height="100" transform="rotate(-180 600 500)" fill="#00CD52"/>
<rect x="600" y="600" width="100" height="100" transform="rotate(-180 600 600)" fill="#00CD52"/>
<rect x="600" y="500" width="100" height="100" transform="rotate(-180 600 500)" fill="#00CD52"/>
<rect x="600" y="600" width="100" height="100" transform="rotate(-180 600 600)" fill="#00CD52"/>
<rect x="600" y="100" width="100" height="100" transform="rotate(-180 600 100)" fill="#DE0000"/>
<rect x="600" y="200" width="100" height="100" transform="rotate(-180 600 200)" fill="#00CD52"/>
<rect x="600" y="200" width="100" height="100" transform="rotate(-180 600 200)" fill="#00CD52"/>
<rect x="600" y="100" width="100" height="100" fill="#00CD52"/>
<rect x="600" width="100" height="100" fill="#00CD52"/>
<rect x="600" y="100" width="100" height="100" fill="#00CD52"/>
<rect x="600" width="100" height="100" fill="#00CD52"/>
<rect x="600" y="500" width="100" height="100" fill="#00CD52"/>
<rect x="600" y="400" width="100" height="100" fill="#00CD52"/>
<rect x="600" y="400" width="100" height="100" fill="#00CD52"/>
<rect x="600" y="700" width="100" height="100" fill="#C97500"/>
<rect x="600" y="600" width="100" height="100" fill="#00CD52"/>
<rect x="600" y="900" width="100" height="100" fill="#00CD52"/>
<rect x="600" y="800" width="100" height="100" fill="#D9D9D9"/>
<rect x="600" y="900" width="100" height="100" fill="#00CD52"/>
<rect x="600" y="800" width="100" height="100" fill="#C97500"/>
<rect x="800" y="900" width="100" height="100" transform="rotate(-180 800 900)" fill="#DE0000"/>
<rect x="800" y="1000" width="100" height="100" transform="rotate(-180 800 1000)" fill="#00CD52"/>
<rect x="800" y="900" width="100" height="100" transform="rotate(-180 800 900)" fill="#C97500"/>
<rect x="800" y="1000" width="100" height="100" transform="rotate(-180 800 1000)" fill="#00CD52"/>
<rect x="800" y="700" width="100" height="100" transform="rotate(-180 800 700)" fill="#00CD52"/>
<rect x="800" y="800" width="100" height="100" transform="rotate(-180 800 800)" fill="#C97500"/>
<rect x="800" y="500" width="100" height="100" transform="rotate(-180 800 500)" fill="#DE0000"/>
<rect x="800" y="600" width="100" height="100" transform="rotate(-180 800 600)" fill="#D9D9D9"/>
<rect x="800" y="500" width="100" height="100" transform="rotate(-180 800 500)" fill="#C97500"/>
<rect x="800" y="600" width="100" height="100" transform="rotate(-180 800 600)" fill="#00CD52"/>
<rect x="800" y="100" width="100" height="100" transform="rotate(-180 800 100)" fill="#00CD52"/>
<rect x="800" y="200" width="100" height="100" transform="rotate(-180 800 200)" fill="#D9D9D9"/>
<rect x="800" y="100" width="100" height="100" transform="rotate(-180 800 100)" fill="#00CD52"/>
<rect x="800" y="200" width="100" height="100" transform="rotate(-180 800 200)" fill="#00CD52"/>
<rect x="800" y="100" width="100" height="100" fill="#DE0000"/>
<rect x="800" width="100" height="100" fill="#00CD52"/>
<rect x="800" y="100" width="100" height="100" fill="#DE0000"/>
<rect x="800" width="100" height="100" fill="#00CD52"/>
<rect x="800" y="300" width="100" height="100" fill="#C97500"/>
<rect x="800" y="200" width="100" height="100" fill="#C97500"/>
<rect x="800" y="500" width="100" height="100" fill="#DE0000"/>
<rect x="800" y="400" width="100" height="100" fill="#D9D9D9"/>
<rect x="800" y="500" width="100" height="100" fill="#DE0000"/>
<rect x="800" y="400" width="100" height="100" fill="#D9D9D9"/>
<rect x="800" y="700" width="100" height="100" fill="#DE0000"/>
<rect x="800" y="600" width="100" height="100" fill="#00CD52"/>
<rect x="800" y="900" width="100" height="100" fill="#00CD52"/>
<rect x="800" y="800" width="100" height="100" fill="#D9D9D9"/>
<rect x="800" y="900" width="100" height="100" fill="#00CD52"/>
<rect x="800" y="800" width="100" height="100" fill="#D9D9D9"/>
<rect x="1000" y="900" width="100" height="100" transform="rotate(-180 1000 900)" fill="#DE0000"/>
<rect x="1000" y="1000" width="100" height="100" transform="rotate(-180 1000 1000)" fill="#00CD52"/>
<rect x="1000" y="900" width="100" height="100" transform="rotate(-180 1000 900)" fill="#DE0000"/>
<rect x="1000" y="1000" width="100" height="100" transform="rotate(-180 1000 1000)" fill="#00CD52"/>
<rect x="1000" y="700" width="100" height="100" transform="rotate(-180 1000 700)" fill="#00CD52"/>
<rect x="1000" y="800" width="100" height="100" transform="rotate(-180 1000 800)" fill="#D9D9D9"/>
<rect x="1000" y="500" width="100" height="100" transform="rotate(-180 1000 500)" fill="#DE0000"/>
<rect x="1000" y="600" width="100" height="100" transform="rotate(-180 1000 600)" fill="#D9D9D9"/>
<rect x="1000" y="500" width="100" height="100" transform="rotate(-180 1000 500)" fill="#DE0000"/>
<rect x="1000" y="600" width="100" height="100" transform="rotate(-180 1000 600)" fill="#D9D9D9"/>
<rect x="1000" y="300" width="100" height="100" transform="rotate(-180 1000 300)" fill="#C97500"/>
<rect x="1000" y="400" width="100" height="100" transform="rotate(-180 1000 400)" fill="#C97500"/>
<rect x="1000" y="100" width="100" height="100" transform="rotate(-180 1000 100)" fill="#00CD52"/>
<rect x="1000" y="200" width="100" height="100" transform="rotate(-180 1000 200)" fill="#D9D9D9"/>
<rect x="1000" y="100" width="100" height="100" transform="rotate(-180 1000 100)" fill="#00CD52"/>
<rect x="1000" y="200" width="100" height="100" transform="rotate(-180 1000 200)" fill="#D9D9D9"/>
<rect x="1000" y="100" width="100" height="100" fill="#DE0000"/>
<rect x="1000" width="100" height="100" fill="#00CD52"/>
<rect x="1000" y="100" width="100" height="100" fill="#DE0000"/>
<rect x="1000" width="100" height="100" fill="#00CD52"/>
<rect x="1000" y="300" width="100" height="100" fill="#00CD52"/>
<rect x="1000" y="200" width="100" height="100" fill="#D9D9D9"/>
<rect x="1000" y="500" width="100" height="100" fill="#DE0000"/>
<rect x="1000" y="400" width="100" height="100" fill="#D9D9D9"/>
<rect x="1000" y="500" width="100" height="100" fill="#DE0000"/>
<rect x="1000" y="400" width="100" height="100" fill="#D9D9D9"/>
<rect x="1000" y="700" width="100" height="100" fill="#DE0000"/>
<rect x="1000" y="600" width="100" height="100" fill="#00CD52"/>
<rect x="1000" y="900" width="100" height="100" fill="#00CD52"/>
<rect x="1000" y="800" width="100" height="100" fill="#D9D9D9"/>
<rect x="1000" y="900" width="100" height="100" fill="#00CD52"/>
<rect x="1000" y="800" width="100" height="100" fill="#D9D9D9"/>
<rect x="1200" y="900" width="100" height="100" transform="rotate(-180 1200 900)" fill="#DE0000"/>
<rect x="1200" y="1000" width="100" height="100" transform="rotate(-180 1200 1000)" fill="#00CD52"/>
<rect x="1200" y="900" width="100" height="100" transform="rotate(-180 1200 900)" fill="#DE0000"/>
<rect x="1200" y="1000" width="100" height="100" transform="rotate(-180 1200 1000)" fill="#00CD52"/>
<rect x="1200" y="800" width="100" height="100" transform="rotate(-180 1200 800)" fill="#D9D9D9"/>
<rect x="1200" y="500" width="100" height="100" transform="rotate(-180 1200 500)" fill="#DE0000"/>
<rect x="1200" y="600" width="100" height="100" transform="rotate(-180 1200 600)" fill="#D9D9D9"/>
<rect x="1200" y="500" width="100" height="100" transform="rotate(-180 1200 500)" fill="#DE0000"/>
<rect x="1200" y="600" width="100" height="100" transform="rotate(-180 1200 600)" fill="#D9D9D9"/>
<rect x="1200" y="300" width="100" height="100" transform="rotate(-180 1200 300)" fill="#DE0000"/>
<rect x="1200" y="400" width="100" height="100" transform="rotate(-180 1200 400)" fill="#00CD52"/>
<rect x="1200" y="100" width="100" height="100" transform="rotate(-180 1200 100)" fill="#DE0000"/>
<rect x="1200" y="200" width="100" height="100" transform="rotate(-180 1200 200)" fill="#D9D9D9"/>
<rect x="1200" y="100" width="100" height="100" transform="rotate(-180 1200 100)" fill="#DE0000"/>
<rect x="1200" y="200" width="100" height="100" transform="rotate(-180 1200 200)" fill="#D9D9D9"/>
<rect x="800" y="100" width="100" height="100" fill="#DE0000"/>
<rect x="800" width="100" height="100" fill="#00CD52"/>
<rect x="800" y="100" width="100" height="100" fill="#C97500"/>
<rect x="800" width="100" height="100" fill="#00CD52"/>
<rect x="800" y="500" width="100" height="100" fill="#C97500"/>
<rect x="800" y="400" width="100" height="100" fill="#C97500"/>
<rect x="800" y="700" width="100" height="100" fill="#C97500"/>
<rect x="800" y="900" width="100" height="100" fill="#00CD52"/>
<rect x="800" y="800" width="100" height="100" fill="#D9D9D9"/>
<rect x="800" y="900" width="100" height="100" fill="#00CD52"/>
<rect x="800" y="800" width="100" height="100" fill="#C97500"/>
<rect x="1000" y="900" width="100" height="100" transform="rotate(-180 1000 900)" fill="#DE0000"/>
<rect x="1000" y="1000" width="100" height="100" transform="rotate(-180 1000 1000)" fill="#00CD52"/>
<rect x="1000" y="900" width="100" height="100" transform="rotate(-180 1000 900)" fill="#C97500"/>
<rect x="1000" y="1000" width="100" height="100" transform="rotate(-180 1000 1000)" fill="#00CD52"/>
<rect x="1000" y="800" width="100" height="100" transform="rotate(-180 1000 800)" fill="#C97500"/>
<rect x="1000" y="500" width="100" height="100" transform="rotate(-180 1000 500)" fill="#C97500"/>
<rect x="1000" y="600" width="100" height="100" transform="rotate(-180 1000 600)" fill="#C97500"/>
<rect x="1000" y="100" width="100" height="100" transform="rotate(-180 1000 100)" fill="#00CD52"/>
<rect x="1000" y="200" width="100" height="100" transform="rotate(-180 1000 200)" fill="#D9D9D9"/>
<rect x="1000" y="100" width="100" height="100" transform="rotate(-180 1000 100)" fill="#00CD52"/>
<rect x="1000" y="200" width="100" height="100" transform="rotate(-180 1000 200)" fill="#C97500"/>
<rect x="1000" y="100" width="100" height="100" fill="#DE0000"/>
<rect x="1000" width="100" height="100" fill="#00CD52"/>
<rect x="1000" y="100" width="100" height="100" fill="#C97500"/>
<rect x="1000" width="100" height="100" fill="#C97500"/>
<rect x="1000" y="200" width="100" height="100" fill="#C97500"/>
<rect x="1000" y="500" width="100" height="100" fill="#C97500"/>
<rect x="1000" y="400" width="100" height="100" fill="#D9D9D9"/>
<rect x="1000" y="400" width="100" height="100" fill="#C97500"/>
<rect x="1000" y="700" width="100" height="100" fill="#C97500"/>
<rect x="1000" y="900" width="100" height="100" fill="#00CD52"/>
<rect x="1000" y="800" width="100" height="100" fill="#D9D9D9"/>
<rect x="1000" y="900" width="100" height="100" fill="#00CD52"/>
<rect x="1000" y="800" width="100" height="100" fill="#C97500"/>
<rect x="1200" y="900" width="100" height="100" transform="rotate(-180 1200 900)" fill="#DE0000"/>
<rect x="1200" y="1000" width="100" height="100" transform="rotate(-180 1200 1000)" fill="#00CD52"/>
<rect x="1200" y="900" width="100" height="100" transform="rotate(-180 1200 900)" fill="#C97500"/>
<rect x="1200" y="1000" width="100" height="100" transform="rotate(-180 1200 1000)" fill="#00CD52"/>
<rect x="1200" y="800" width="100" height="100" transform="rotate(-180 1200 800)" fill="#C97500"/>
<rect x="1200" y="500" width="100" height="100" transform="rotate(-180 1200 500)" fill="#DE0000"/>
<rect x="1200" y="600" width="100" height="100" transform="rotate(-180 1200 600)" fill="#C97500"/>
<rect x="1200" y="500" width="100" height="100" transform="rotate(-180 1200 500)" fill="#C97500"/>
<rect x="1200" y="300" width="100" height="100" transform="rotate(-180 1200 300)" fill="#C97500"/>
<rect x="1200" y="100" width="100" height="100" transform="rotate(-180 1200 100)" fill="#DE0000"/>
<rect x="1200" y="200" width="100" height="100" transform="rotate(-180 1200 200)" fill="#D9D9D9"/>
<rect x="1200" y="100" width="100" height="100" transform="rotate(-180 1200 100)" fill="#C97500"/>
<rect x="1200" y="200" width="100" height="100" transform="rotate(-180 1200 200)" fill="#C97500"/>
<rect x="1200" y="100" width="100" height="100" fill="#DE0000"/>
<rect x="1200" width="100" height="100" fill="#D9D9D9"/>
<rect x="1200" y="100" width="100" height="100" fill="#C97500"/>
<rect x="1200" width="100" height="100" fill="#C97500"/>
<rect x="1200" y="300" width="100" height="100" fill="#00CD52"/>
<rect x="1200" y="200" width="100" height="100" fill="#00CD52"/>
<rect x="1200" y="500" width="100" height="100" fill="#C97500"/>
<rect x="1200" y="400" width="100" height="100" fill="#D9D9D9"/>
<rect x="1200" y="400" width="100" height="100" fill="#C97500"/>
<rect x="1200" y="700" width="100" height="100" fill="#C97500"/>
<rect x="1200" y="900" width="100" height="100" fill="#00CD52"/>
<rect x="1200" y="800" width="100" height="100" fill="#D9D9D9"/>
<rect x="1200" y="900" width="100" height="100" fill="#00CD52"/>
<rect x="1200" y="800" width="100" height="100" fill="#C97500"/>
<rect x="1400" y="900" width="100" height="100" transform="rotate(-180 1400 900)" fill="#DE0000"/>
<rect x="1400" y="1000" width="100" height="100" transform="rotate(-180 1400 1000)" fill="#00CD52"/>
<rect x="1400" y="900" width="100" height="100" transform="rotate(-180 1400 900)" fill="#C97500"/>
<rect x="1400" y="1000" width="100" height="100" transform="rotate(-180 1400 1000)" fill="#00CD52"/>
<rect x="1400" y="800" width="100" height="100" transform="rotate(-180 1400 800)" fill="#C97500"/>
<rect x="1400" y="500" width="100" height="100" transform="rotate(-180 1400 500)" fill="#DE0000"/>
<rect x="1400" y="600" width="100" height="100" transform="rotate(-180 1400 600)" fill="#C97500"/>
<rect x="1400" y="500" width="100" height="100" transform="rotate(-180 1400 500)" fill="#C97500"/>
<rect x="1400" y="300" width="100" height="100" transform="rotate(-180 1400 300)" fill="#00CD52"/>
<rect x="1400" y="400" width="100" height="100" transform="rotate(-180 1400 400)" fill="#00CD52"/>
<rect x="1400" y="100" width="100" height="100" transform="rotate(-180 1400 100)" fill="#00CD52"/>
<rect x="1400" y="200" width="100" height="100" transform="rotate(-180 1400 200)" fill="#00CD52"/>
<rect x="1400" y="100" width="100" height="100" transform="rotate(-180 1400 100)" fill="#00CD52"/>
<rect x="1400" y="200" width="100" height="100" transform="rotate(-180 1400 200)" fill="#00CD52"/>
<rect x="1400" y="100" width="100" height="100" fill="#00CD52"/>
<rect x="1400" width="100" height="100" fill="#00CD52"/>
<rect x="1400" width="100" height="100" fill="#00CD52"/>
<rect x="1400" y="300" width="100" height="100" fill="#00CD52"/>
<rect x="1400" y="200" width="100" height="100" fill="#00CD52"/>
<rect x="1400" y="500" width="100" height="100" fill="#C97500"/>
<rect x="1400" y="400" width="100" height="100" fill="#00CD52"/>
<rect x="1400" y="900" width="100" height="100" fill="#00CD52"/>
<rect x="1400" y="800" width="100" height="100" fill="#D9D9D9"/>
<rect x="1400" y="900" width="100" height="100" fill="#00CD52"/>
<rect x="1400" y="800" width="100" height="100" fill="#00CD52"/>
<rect x="1600" y="900" width="100" height="100" transform="rotate(-180 1600 900)" fill="#DE0000"/>
<rect x="1600" y="1000" width="100" height="100" transform="rotate(-180 1600 1000)" fill="#00CD52"/>
<rect x="1600" y="900" width="100" height="100" transform="rotate(-180 1600 900)" fill="#00CD52"/>
<rect x="1600" y="1000" width="100" height="100" transform="rotate(-180 1600 1000)" fill="#00CD52"/>
<rect x="1600" y="500" width="100" height="100" transform="rotate(-180 1600 500)" fill="#00CD52"/>
<rect x="1600" y="600" width="100" height="100" transform="rotate(-180 1600 600)" fill="#00CD52"/>
<rect x="1600" y="300" width="100" height="100" transform="rotate(-180 1600 300)" fill="#00CD52"/>
<rect x="1600" y="400" width="100" height="100" transform="rotate(-180 1600 400)" fill="#00CD52"/>
<rect x="1600" y="100" width="100" height="100" transform="rotate(-180 1600 100)" fill="#00CD52"/>
<rect x="1600" y="200" width="100" height="100" transform="rotate(-180 1600 200)" fill="#00CD52"/>
<rect x="1600" y="100" width="100" height="100" transform="rotate(-180 1600 100)" fill="#00CD52"/>
<rect x="1600" y="200" width="100" height="100" transform="rotate(-180 1600 200)" fill="#00CD52"/>
<path d="M0 1.11288e-06H100V100H0V1.11288e-06Z" fill="#9C3800"/>
<path d="M200 100H100V1.11288e-06L200 0L200 100Z" fill="#9C3800"/>
<path d="M200 0L300 1.11288e-06V100H200L200 0Z" fill="#9C3800"/>
<path d="M300 1.11288e-06H400V100H300V1.11288e-06Z" fill="#9C3800"/>
<path d="M500 100H400V1.11288e-06L500 0L500 100Z" fill="#9C3800"/>
<path d="M500 0L600 1.11288e-06V100H500L500 0Z" fill="#9C3800"/>
<path d="M151 101H152H300H301V100V52V51V50L301 2V1H300L152 1H151H150H2H1V2V50V51V52V100V101H2H150H151Z" fill="url(#paint0_radial_145_2)" stroke="black" stroke-width="2"/>
<path d="M450 101H451H598H599V100V52V51V50L599 2V1H598L451 1H450H449H302H301V2V50V51V52V100V101H302H449H450Z" fill="url(#paint1_radial_145_2)" stroke="black" stroke-width="2"/>
<rect x="500" y="300" width="100" height="100" transform="rotate(-180 500 300)" fill="#00CD52"/>
<rect x="500" y="200" width="100" height="100" fill="#00CD52"/>
<rect x="400" y="300" width="100" height="100" fill="#00CD52"/>
<rect x="700" y="200" width="100" height="100" fill="#C97500"/>
<rect x="700" y="300" width="100" height="100" transform="rotate(-180 700 300)" fill="#00CD52"/>
<rect x="600" y="400" width="100" height="100" transform="rotate(-180 600 400)" fill="#00CD52"/>
<rect x="800" y="400" width="100" height="100" transform="rotate(-180 800 400)" fill="#C97500"/>
<rect x="500" y="700" width="100" height="100" transform="rotate(-180 500 700)" fill="#00CD52"/>
<rect x="500" y="800" width="100" height="100" transform="rotate(-180 500 800)" fill="#C97500"/>
<rect x="1300" y="700" width="100" height="100" transform="rotate(-180 1300 700)" fill="#C97500"/>
<rect x="1300" y="600" width="100" height="100" fill="#C97500"/>
<rect x="1500" y="700" width="100" height="100" transform="rotate(-180 1500 700)" fill="#C97500"/>
<rect x="1400" y="700" width="100" height="100" fill="#C97500"/>
<rect x="1600" y="800" width="100" height="100" transform="rotate(-180 1600 800)" fill="#00CD52"/>
<rect x="1500" y="600" width="100" height="100" fill="#00CD52"/>
<path d="M1300 250C1300 277.614 1277.61 300 1250 300L1204 300C1176.39 300 1154 277.614 1154 250L1154 203C1154 175.386 1176.39 153 1204 153L1250 153C1277.61 153 1300 175.386 1300 203L1300 250Z" fill="#C97500"/>
<path d="M1500 850C1500 877.614 1477.61 900 1450 900L1404 900C1376.39 900 1354 877.614 1354 850L1354 803C1354 775.386 1376.39 753 1404 753L1450 753C1477.61 753 1500 775.386 1500 803L1500 850Z" fill="#C97500"/>
<path d="M1500 497C1500 524.614 1477.61 547 1450 547L1401 547C1373.39 547 1351 524.614 1351 497L1351 450C1351 422.386 1373.39 400 1401 400L1450 400C1477.61 400 1500 422.386 1500 450L1500 497Z" fill="#C97500"/>
<path d="M846 197C846 224.614 823.614 247 796 247L750 247C722.386 247 700 224.614 700 197L700 150C700 122.386 722.386 100 750 100L796 100C823.614 100 846 122.386 846 150L846 197Z" fill="#C97500"/>
<path d="M846 550C846 577.614 823.614 600 796 600L750 600C722.386 600 700 577.614 700 550L700 503C700 475.386 722.386 453 750 453L796 453C823.614 453 846 475.386 846 503L846 550Z" fill="#C97500"/>
<path d="M246 850C246 877.614 223.614 900 196 900L150 900C122.386 900 100 877.614 100 850L100 803C100 775.386 122.386 753 150 753L196 753C223.614 753 246 775.386 246 803L246 850Z" fill="#C97500"/>
<path d="M400 600V700H350C322.386 700 300 677.614 300 650V600H400Z" fill="#00CD52"/>
<path d="M999.996 0H1100V50C1100 77.6142 1077.61 100 1050 100H999.996V0Z" fill="#00CD52"/>
<path d="M1000 400H930C913.431 400 900 386.569 900 370V330C900 313.431 913.431 300 930 300H1000V400Z" fill="#00CD52"/>
<path d="M1200 600H1270C1286.57 600 1300 613.431 1300 630V670C1300 686.569 1286.57 700 1270 700H1200V600Z" fill="#00CD52"/>
<path d="M1415 148.333L1434.84 209L1492.88 216L1523 148.333L1492.88 168.167L1506.84 148.333L1473.78 157.667L1481.12 120.333L1462.02 162.333L1455.41 83L1440.71 168.167L1434.84 115.667L1429.69 168.167L1415 148.333Z" fill="url(#paint2_linear_145_2)" stroke="url(#paint3_linear_145_2)" stroke-width="3"/>
<path d="M325 596.333L344.837 657L402.878 664L433 596.333L402.878 616.167L416.837 596.333L383.776 605.667L391.122 568.333L372.02 610.333L365.408 531L350.714 616.167L344.837 563.667L339.694 616.167L325 596.333Z" fill="url(#paint4_linear_145_2)" stroke="url(#paint5_linear_145_2)" stroke-width="3"/>
<path d="M1580 915.333L1558.88 976L1497.07 983L1465 915.333L1497.07 935.167L1482.21 915.333L1517.41 924.667L1509.59 887.333L1529.93 929.333L1536.97 850L1552.62 935.167L1558.88 882.667L1564.35 935.167L1580 915.333Z" fill="url(#paint6_linear_145_2)" stroke="url(#paint7_linear_145_2)" stroke-width="3"/>
<path d="M539 206.333L517.878 267L456.075 274L424 206.333L456.075 226.167L441.211 206.333L476.415 215.667L468.592 178.333L488.932 220.333L495.973 141L511.619 226.167L517.878 173.667L523.354 226.167L539 206.333Z" fill="url(#paint8_linear_145_2)" stroke="url(#paint9_linear_145_2)" stroke-width="3"/>
<rect x="600" y="300" width="100" height="100" fill="#00CD52"/>
<rect x="1100" y="600" width="100" height="100" fill="#00CD52"/>
</g>
<defs>
<radialGradient id="paint0_radial_145_2" cx="0" cy="0" r="1" gradientUnits="userSpaceOnUse" gradientTransform="translate(151 51) rotate(90) scale(49 149)">
<stop stop-color="#CB4A01"/>
<stop offset="1" stop-color="#CB4A01" stop-opacity="0"/>
</radialGradient>
<radialGradient id="paint1_radial_145_2" cx="0" cy="0" r="1" gradientUnits="userSpaceOnUse" gradientTransform="translate(450 51) rotate(90) scale(49 148)">
<stop stop-color="#CB4A01"/>
<stop offset="1" stop-color="#CB4A01" stop-opacity="0"/>
</radialGradient>
<linearGradient id="paint2_linear_145_2" x1="1469" y1="83" x2="1469" y2="216" gradientUnits="userSpaceOnUse">
<stop stop-color="#00CD52"/>
<stop offset="0.0001" stop-color="#00CD52" stop-opacity="0.947917"/>
<stop offset="1" stop-color="#00CD52" stop-opacity="0"/>
</linearGradient>
<linearGradient id="paint3_linear_145_2" x1="1469" y1="83" x2="1469" y2="216" gradientUnits="userSpaceOnUse">
<stop stop-color="#259300"/>
<stop offset="1" stop-color="#259300" stop-opacity="0"/>
</linearGradient>
<linearGradient id="paint4_linear_145_2" x1="379" y1="531" x2="379" y2="664" gradientUnits="userSpaceOnUse">
<stop stop-color="#00CD52"/>
<stop offset="0.0001" stop-color="#00CD52" stop-opacity="0.947917"/>
<stop offset="1" stop-color="#00CD52" stop-opacity="0"/>
</linearGradient>
<linearGradient id="paint5_linear_145_2" x1="379" y1="531" x2="379" y2="664" gradientUnits="userSpaceOnUse">
<stop stop-color="#259300"/>
<stop offset="1" stop-color="#259300" stop-opacity="0"/>
</linearGradient>
<linearGradient id="paint6_linear_145_2" x1="1522.5" y1="850" x2="1522.5" y2="983" gradientUnits="userSpaceOnUse">
<stop stop-color="#00CD52"/>
<stop offset="0.0001" stop-color="#00CD52" stop-opacity="0.947917"/>
<stop offset="1" stop-color="#00CD52" stop-opacity="0"/>
</linearGradient>
<linearGradient id="paint7_linear_145_2" x1="1522.5" y1="850" x2="1522.5" y2="983" gradientUnits="userSpaceOnUse">
<stop stop-color="#259300"/>
<stop offset="1" stop-color="#259300" stop-opacity="0"/>
</linearGradient>
<linearGradient id="paint8_linear_145_2" x1="481.5" y1="141" x2="481.5" y2="274" gradientUnits="userSpaceOnUse">
<stop stop-color="#00CD52"/>
<stop offset="0.0001" stop-color="#00CD52" stop-opacity="0.947917"/>
<stop offset="1" stop-color="#00CD52" stop-opacity="0"/>
</linearGradient>
<linearGradient id="paint9_linear_145_2" x1="481.5" y1="141" x2="481.5" y2="274" gradientUnits="userSpaceOnUse">
<stop stop-color="#259300"/>
<stop offset="1" stop-color="#259300" stop-opacity="0"/>
</linearGradient>
<clipPath id="clip0_145_2">
<rect width="1600" height="1000" fill="white"/>
</clipPath>
</defs>
</svg>
