<svg width="1600" height="1000" viewBox="0 0 1600 1000" fill="none" xmlns="http://www.w3.org/2000/svg">
<g clip-path="url(#clip0_30_4)">
<rect width="1600" height="1000" fill="white"/>
<rect y="100" width="100" height="100" fill="#DE0000"/>
<rect width="100" height="100" fill="#D9D9D9"/>
<rect y="100" width="100" height="100" fill="#DE0000"/>
<rect width="100" height="100" fill="#D9D9D9"/>
<rect y="300" width="100" height="100" fill="#DE0000"/>
<rect y="200" width="100" height="100" fill="#D9D9D9"/>
<rect y="500" width="100" height="100" fill="#DE0000"/>
<rect y="400" width="100" height="100" fill="#D9D9D9"/>
<rect y="500" width="100" height="100" fill="#DE0000"/>
<rect y="400" width="100" height="100" fill="#D9D9D9"/>
<rect y="700" width="100" height="100" fill="#DE0000"/>
<rect y="600" width="100" height="100" fill="#D9D9D9"/>
<rect y="900" width="100" height="100" fill="#DE0000"/>
<rect y="800" width="100" height="100" fill="#D9D9D9"/>
<rect y="900" width="100" height="100" fill="#DE0000"/>
<rect y="800" width="100" height="100" fill="#D9D9D9"/>
<rect x="200" y="900" width="100" height="100" transform="rotate(-180 200 900)" fill="#DE0000"/>
<rect x="200" y="1000" width="100" height="100" transform="rotate(-180 200 1000)" fill="#D9D9D9"/>
<rect x="200" y="900" width="100" height="100" transform="rotate(-180 200 900)" fill="#DE0000"/>
<rect x="200" y="1000" width="100" height="100" transform="rotate(-180 200 1000)" fill="#D9D9D9"/>
<rect x="200" y="700" width="100" height="100" transform="rotate(-180 200 700)" fill="#DE0000"/>
<rect x="200" y="800" width="100" height="100" transform="rotate(-180 200 800)" fill="#D9D9D9"/>
<rect x="200" y="500" width="100" height="100" transform="rotate(-180 200 500)" fill="#DE0000"/>
<rect x="200" y="600" width="100" height="100" transform="rotate(-180 200 600)" fill="#D9D9D9"/>
<rect x="200" y="500" width="100" height="100" transform="rotate(-180 200 500)" fill="#DE0000"/>
<rect x="200" y="600" width="100" height="100" transform="rotate(-180 200 600)" fill="#D9D9D9"/>
<rect x="200" y="300" width="100" height="100" transform="rotate(-180 200 300)" fill="#DE0000"/>
<rect x="200" y="400" width="100" height="100" transform="rotate(-180 200 400)" fill="#D9D9D9"/>
<rect x="200" y="100" width="100" height="100" transform="rotate(-180 200 100)" fill="#DE0000"/>
<rect x="200" y="200" width="100" height="100" transform="rotate(-180 200 200)" fill="#D9D9D9"/>
<rect x="200" y="100" width="100" height="100" transform="rotate(-180 200 100)" fill="#DE0000"/>
<rect x="200" y="200" width="100" height="100" transform="rotate(-180 200 200)" fill="#D9D9D9"/>
<rect x="200" y="100" width="100" height="100" fill="#DE0000"/>
<rect x="200" width="100" height="100" fill="#D9D9D9"/>
<rect x="200" y="100" width="100" height="100" fill="#DE0000"/>
<rect x="200" width="100" height="100" fill="#D9D9D9"/>
<rect x="200" y="300" width="100" height="100" fill="#DE0000"/>
<rect x="200" y="200" width="100" height="100" fill="#D9D9D9"/>
<rect x="200" y="500" width="100" height="100" fill="#DE0000"/>
<rect x="200" y="400" width="100" height="100" fill="#D9D9D9"/>
<rect x="200" y="500" width="100" height="100" fill="#DE0000"/>
<rect x="200" y="400" width="100" height="100" fill="#D9D9D9"/>
<rect x="200" y="700" width="100" height="100" fill="#DE0000"/>
<rect x="200" y="600" width="100" height="100" fill="#D9D9D9"/>
<rect x="200" y="900" width="100" height="100" fill="#DE0000"/>
<rect x="200" y="800" width="100" height="100" fill="#D9D9D9"/>
<rect x="200" y="900" width="100" height="100" fill="#DE0000"/>
<rect x="200" y="800" width="100" height="100" fill="#D9D9D9"/>
<rect x="400" y="900" width="100" height="100" transform="rotate(-180 400 900)" fill="#DE0000"/>
<rect x="400" y="1000" width="100" height="100" transform="rotate(-180 400 1000)" fill="#D9D9D9"/>
<rect x="400" y="900" width="100" height="100" transform="rotate(-180 400 900)" fill="#DE0000"/>
<rect x="400" y="1000" width="100" height="100" transform="rotate(-180 400 1000)" fill="#D9D9D9"/>
<rect x="400" y="700" width="100" height="100" transform="rotate(-180 400 700)" fill="#DE0000"/>
<rect x="400" y="800" width="100" height="100" transform="rotate(-180 400 800)" fill="#D9D9D9"/>
<rect x="400" y="500" width="100" height="100" transform="rotate(-180 400 500)" fill="#DE0000"/>
<rect x="400" y="600" width="100" height="100" transform="rotate(-180 400 600)" fill="#D9D9D9"/>
<rect x="400" y="500" width="100" height="100" transform="rotate(-180 400 500)" fill="#DE0000"/>
<rect x="400" y="600" width="100" height="100" transform="rotate(-180 400 600)" fill="#D9D9D9"/>
<rect x="400" y="300" width="100" height="100" transform="rotate(-180 400 300)" fill="#DE0000"/>
<rect x="400" y="400" width="100" height="100" transform="rotate(-180 400 400)" fill="#D9D9D9"/>
<rect x="400" y="100" width="100" height="100" transform="rotate(-180 400 100)" fill="#DE0000"/>
<rect x="400" y="200" width="100" height="100" transform="rotate(-180 400 200)" fill="#D9D9D9"/>
<rect x="400" y="100" width="100" height="100" transform="rotate(-180 400 100)" fill="#DE0000"/>
<rect x="400" y="200" width="100" height="100" transform="rotate(-180 400 200)" fill="#D9D9D9"/>
<rect y="100" width="100" height="100" fill="#DE0000"/>
<rect width="100" height="100" fill="#D9D9D9"/>
<rect y="100" width="100" height="100" fill="#DE0000"/>
<rect width="100" height="100" fill="#2A2D28"/>
<rect y="300" width="100" height="100" fill="#DE0000"/>
<rect y="200" width="100" height="100" fill="#D9D9D9"/>
<rect y="500" width="100" height="100" fill="#DE0000"/>
<rect y="400" width="100" height="100" fill="#D9D9D9"/>
<rect y="500" width="100" height="100" fill="#DE0000"/>
<rect y="400" width="100" height="100" fill="#D9D9D9"/>
<rect y="700" width="100" height="100" fill="#C97500"/>
<rect y="600" width="100" height="100" fill="#C97500"/>
<rect y="900" width="100" height="100" fill="#DE0000"/>
<rect y="800" width="100" height="100" fill="#D9D9D9"/>
<rect y="900" width="100" height="100" fill="#DE0000"/>
<rect y="800" width="100" height="100" fill="#D9D9D9"/>
<rect x="200" y="900" width="100" height="100" transform="rotate(-180 200 900)" fill="#DE0000"/>
<rect x="200" y="1000" width="100" height="100" transform="rotate(-180 200 1000)" fill="#D9D9D9"/>
<rect x="200" y="900" width="100" height="100" transform="rotate(-180 200 900)" fill="#DE0000"/>
<rect x="200" y="1000" width="100" height="100" transform="rotate(-180 200 1000)" fill="#D9D9D9"/>
<rect x="200" y="700" width="100" height="100" transform="rotate(-180 200 700)" fill="#C97500"/>
<rect x="200" y="800" width="100" height="100" transform="rotate(-180 200 800)" fill="#C97500"/>
<rect x="200" y="500" width="100" height="100" transform="rotate(-180 200 500)" fill="#DE0000"/>
<rect x="200" y="600" width="100" height="100" transform="rotate(-180 200 600)" fill="#D9D9D9"/>
<rect x="200" y="500" width="100" height="100" transform="rotate(-180 200 500)" fill="#FAFF04"/>
<rect x="200" y="600" width="100" height="100" transform="rotate(-180 200 600)" fill="#D9D9D9"/>
<rect x="200" y="300" width="100" height="100" transform="rotate(-180 200 300)" fill="#DE0000"/>
<rect x="200" y="400" width="100" height="100" transform="rotate(-180 200 400)" fill="#D9D9D9"/>
<rect x="200" y="100" width="100" height="100" transform="rotate(-180 200 100)" fill="#DE0000"/>
<rect x="200" y="200" width="100" height="100" transform="rotate(-180 200 200)" fill="#D9D9D9"/>
<rect x="200" y="100" width="100" height="100" transform="rotate(-180 200 100)" fill="#2A2D28"/>
<rect x="200" y="200" width="100" height="100" transform="rotate(-180 200 200)" fill="#D9D9D9"/>
<rect x="200" y="100" width="100" height="100" fill="#DE0000"/>
<rect x="200" width="100" height="100" fill="#D9D9D9"/>
<rect x="200" y="100" width="100" height="100" fill="#DE0000"/>
<rect x="200" width="100" height="100" fill="#2A2D28"/>
<rect x="200" y="300" width="100" height="100" fill="#DE0000"/>
<rect x="200" y="200" width="100" height="100" fill="#D9D9D9"/>
<rect x="200" y="500" width="100" height="100" fill="#DE0000"/>
<rect x="200" y="400" width="100" height="100" fill="#D9D9D9"/>
<rect x="200" y="500" width="100" height="100" fill="#DE0000"/>
<rect x="200" y="400" width="100" height="100" fill="#D9D9D9"/>
<rect x="200" y="700" width="100" height="100" fill="#C97500"/>
<rect x="200" y="600" width="100" height="100" fill="#C97500"/>
<rect x="200" y="900" width="100" height="100" fill="#DE0000"/>
<rect x="200" y="800" width="100" height="100" fill="#D9D9D9"/>
<rect x="200" y="900" width="100" height="100" fill="#DE0000"/>
<rect x="200" y="800" width="100" height="100" fill="#D9D9D9"/>
<rect x="400" y="900" width="100" height="100" transform="rotate(-180 400 900)" fill="#DE0000"/>
<rect x="400" y="1000" width="100" height="100" transform="rotate(-180 400 1000)" fill="#D9D9D9"/>
<rect x="400" y="900" width="100" height="100" transform="rotate(-180 400 900)" fill="#DE0000"/>
<rect x="400" y="1000" width="100" height="100" transform="rotate(-180 400 1000)" fill="#D9D9D9"/>
<rect x="400" y="700" width="100" height="100" transform="rotate(-180 400 700)" fill="#C97500"/>
<rect x="400" y="800" width="100" height="100" transform="rotate(-180 400 800)" fill="#C97500"/>
<rect x="400" y="500" width="100" height="100" transform="rotate(-180 400 500)" fill="#DE0000"/>
<rect x="400" y="600" width="100" height="100" transform="rotate(-180 400 600)" fill="#D9D9D9"/>
<rect x="400" y="500" width="100" height="100" transform="rotate(-180 400 500)" fill="#C97500"/>
<rect x="400" y="600" width="100" height="100" transform="rotate(-180 400 600)" fill="#C97500"/>
<rect x="400" y="300" width="100" height="100" transform="rotate(-180 400 300)" fill="#C97500"/>
<rect x="400" y="400" width="100" height="100" transform="rotate(-180 400 400)" fill="#C97500"/>
<rect x="400" y="100" width="100" height="100" transform="rotate(-180 400 100)" fill="#DE0000"/>
<rect x="400" y="200" width="100" height="100" transform="rotate(-180 400 200)" fill="#D9D9D9"/>
<rect x="400" y="100" width="100" height="100" transform="rotate(-180 400 100)" fill="#7000FF"/>
<rect x="400" y="200" width="100" height="100" transform="rotate(-180 400 200)" fill="#D9D9D9"/>
<rect x="400" y="100" width="100" height="100" fill="#DE0000"/>
<rect x="400" width="100" height="100" fill="#D9D9D9"/>
<rect x="400" y="100" width="100" height="100" fill="#DE0000"/>
<rect x="400" width="100" height="100" fill="#7000FF"/>
<rect x="400" y="300" width="100" height="100" fill="#C97500"/>
<rect x="400" y="200" width="100" height="100" fill="#C97500"/>
<rect x="400" y="500" width="100" height="100" fill="#DE0000"/>
<rect x="400" y="400" width="100" height="100" fill="#D9D9D9"/>
<rect x="400" y="500" width="100" height="100" fill="#C97500"/>
<rect x="400" y="400" width="100" height="100" fill="#C97500"/>
<rect x="400" y="700" width="100" height="100" fill="#C97500"/>
<rect x="400" y="600" width="100" height="100" fill="#C97500"/>
<rect x="400" y="900" width="100" height="100" fill="#DE0000"/>
<rect x="400" y="800" width="100" height="100" fill="#D9D9D9"/>
<rect x="400" y="900" width="100" height="100" fill="#DE0000"/>
<rect x="400" y="800" width="100" height="100" fill="#D9D9D9"/>
<rect x="600" y="900" width="100" height="100" transform="rotate(-180 600 900)" fill="#DE0000"/>
<rect x="600" y="1000" width="100" height="100" transform="rotate(-180 600 1000)" fill="#D9D9D9"/>
<rect x="600" y="900" width="100" height="100" transform="rotate(-180 600 900)" fill="#DE0000"/>
<rect x="600" y="1000" width="100" height="100" transform="rotate(-180 600 1000)" fill="#D9D9D9"/>
<rect x="600" y="700" width="100" height="100" transform="rotate(-180 600 700)" fill="#DE0000"/>
<rect x="600" y="800" width="100" height="100" transform="rotate(-180 600 800)" fill="#D9D9D9"/>
<rect x="600" y="500" width="100" height="100" transform="rotate(-180 600 500)" fill="#DE0000"/>
<rect x="600" y="600" width="100" height="100" transform="rotate(-180 600 600)" fill="#D9D9D9"/>
<rect x="600" y="500" width="100" height="100" transform="rotate(-180 600 500)" fill="#DE0000"/>
<rect x="600" y="600" width="100" height="100" transform="rotate(-180 600 600)" fill="#D9D9D9"/>
<rect x="600" y="300" width="100" height="100" transform="rotate(-180 600 300)" fill="#C97500"/>
<rect x="600" y="400" width="100" height="100" transform="rotate(-180 600 400)" fill="#C97500"/>
<rect x="600" y="100" width="100" height="100" transform="rotate(-180 600 100)" fill="#DE0000"/>
<rect x="600" y="200" width="100" height="100" transform="rotate(-180 600 200)" fill="#D9D9D9"/>
<rect x="600" y="100" width="100" height="100" transform="rotate(-180 600 100)" fill="#7000FF"/>
<rect x="600" y="200" width="100" height="100" transform="rotate(-180 600 200)" fill="#D9D9D9"/>
<rect x="600" y="100" width="100" height="100" fill="#DE0000"/>
<rect x="600" width="100" height="100" fill="#D9D9D9"/>
<rect x="600" y="100" width="100" height="100" fill="#DE0000"/>
<rect x="600" width="100" height="100" fill="#D9D9D9"/>
<rect x="600" y="300" width="100" height="100" fill="#C97500"/>
<rect x="600" y="200" width="100" height="100" fill="#C97500"/>
<rect x="600" y="500" width="100" height="100" fill="#DE0000"/>
<rect x="600" y="400" width="100" height="100" fill="#D9D9D9"/>
<rect x="600" y="500" width="100" height="100" fill="#FAFF04"/>
<rect x="600" y="400" width="100" height="100" fill="#D9D9D9"/>
<rect x="600" y="700" width="100" height="100" fill="#DE0000"/>
<rect x="600" y="600" width="100" height="100" fill="#D9D9D9"/>
<rect x="600" y="900" width="100" height="100" fill="#DE0000"/>
<rect x="600" y="800" width="100" height="100" fill="#D9D9D9"/>
<rect x="600" y="900" width="100" height="100" fill="#DE0000"/>
<rect x="600" y="800" width="100" height="100" fill="#D9D9D9"/>
<rect x="800" y="900" width="100" height="100" transform="rotate(-180 800 900)" fill="#DE0000"/>
<rect x="800" y="1000" width="100" height="100" transform="rotate(-180 800 1000)" fill="#D9D9D9"/>
<rect x="800" y="900" width="100" height="100" transform="rotate(-180 800 900)" fill="#DE0000"/>
<rect x="800" y="1000" width="100" height="100" transform="rotate(-180 800 1000)" fill="#D9D9D9"/>
<rect x="800" y="700" width="100" height="100" transform="rotate(-180 800 700)" fill="#DE0000"/>
<rect x="800" y="800" width="100" height="100" transform="rotate(-180 800 800)" fill="#D9D9D9"/>
<rect x="800" y="500" width="100" height="100" transform="rotate(-180 800 500)" fill="#DE0000"/>
<rect x="800" y="600" width="100" height="100" transform="rotate(-180 800 600)" fill="#D9D9D9"/>
<rect x="800" y="500" width="100" height="100" transform="rotate(-180 800 500)" fill="#DE0000"/>
<rect x="800" y="600" width="100" height="100" transform="rotate(-180 800 600)" fill="#D9D9D9"/>
<rect x="800" y="300" width="100" height="100" transform="rotate(-180 800 300)" fill="#C97500"/>
<rect x="800" y="400" width="100" height="100" transform="rotate(-180 800 400)" fill="#C97500"/>
<rect x="800" y="100" width="100" height="100" transform="rotate(-180 800 100)" fill="#DE0000"/>
<rect x="800" y="200" width="100" height="100" transform="rotate(-180 800 200)" fill="#D9D9D9"/>
<rect x="800" y="100" width="100" height="100" transform="rotate(-180 800 100)" fill="#DE0000"/>
<rect x="800" y="200" width="100" height="100" transform="rotate(-180 800 200)" fill="#D9D9D9"/>
<rect x="800" y="100" width="100" height="100" fill="#DE0000"/>
<rect x="800" width="100" height="100" fill="#D9D9D9"/>
<rect x="800" y="100" width="100" height="100" fill="#DE0000"/>
<rect x="800" width="100" height="100" fill="#D9D9D9"/>
<rect x="800" y="300" width="100" height="100" fill="#DE0000"/>
<rect x="800" y="200" width="100" height="100" fill="#D9D9D9"/>
<rect x="800" y="500" width="100" height="100" fill="#DE0000"/>
<rect x="800" y="400" width="100" height="100" fill="#D9D9D9"/>
<rect x="800" y="500" width="100" height="100" fill="#DE0000"/>
<rect x="800" y="400" width="100" height="100" fill="#D9D9D9"/>
<rect x="800" y="700" width="100" height="100" fill="#DE0000"/>
<rect x="800" y="600" width="100" height="100" fill="#D9D9D9"/>
<rect x="800" y="900" width="100" height="100" fill="#DE0000"/>
<rect x="800" y="800" width="100" height="100" fill="#D9D9D9"/>
<rect x="800" y="900" width="100" height="100" fill="#DE0000"/>
<rect x="800" y="800" width="100" height="100" fill="#D9D9D9"/>
<rect x="1000" y="900" width="100" height="100" transform="rotate(-180 1000 900)" fill="#DE0000"/>
<rect x="1000" y="1000" width="100" height="100" transform="rotate(-180 1000 1000)" fill="#D9D9D9"/>
<rect x="1000" y="900" width="100" height="100" transform="rotate(-180 1000 900)" fill="#DE0000"/>
<rect x="1000" y="1000" width="100" height="100" transform="rotate(-180 1000 1000)" fill="#D9D9D9"/>
<rect x="1000" y="700" width="100" height="100" transform="rotate(-180 1000 700)" fill="#DE0000"/>
<rect x="1000" y="800" width="100" height="100" transform="rotate(-180 1000 800)" fill="#D9D9D9"/>
<rect x="1000" y="500" width="100" height="100" transform="rotate(-180 1000 500)" fill="#DE0000"/>
<rect x="1000" y="600" width="100" height="100" transform="rotate(-180 1000 600)" fill="#D9D9D9"/>
<rect x="1000" y="500" width="100" height="100" transform="rotate(-180 1000 500)" fill="#DE0000"/>
<rect x="1000" y="600" width="100" height="100" transform="rotate(-180 1000 600)" fill="#D9D9D9"/>
<rect x="1000" y="300" width="100" height="100" transform="rotate(-180 1000 300)" fill="#DE0000"/>
<rect x="1000" y="400" width="100" height="100" transform="rotate(-180 1000 400)" fill="#D9D9D9"/>
<rect x="1000" y="100" width="100" height="100" transform="rotate(-180 1000 100)" fill="#DE0000"/>
<rect x="1000" y="200" width="100" height="100" transform="rotate(-180 1000 200)" fill="#D9D9D9"/>
<rect x="1000" y="100" width="100" height="100" transform="rotate(-180 1000 100)" fill="#DE0000"/>
<rect x="1000" y="200" width="100" height="100" transform="rotate(-180 1000 200)" fill="#D9D9D9"/>
<rect x="1000" y="100" width="100" height="100" fill="#DE0000"/>
<rect x="1000" width="100" height="100" fill="#D9D9D9"/>
<rect x="1000" y="100" width="100" height="100" fill="#DE0000"/>
<rect x="1000" width="100" height="100" fill="#D9D9D9"/>
<rect x="1000" y="300" width="100" height="100" fill="#DE0000"/>
<rect x="1000" y="200" width="100" height="100" fill="#D9D9D9"/>
<rect x="1000" y="500" width="100" height="100" fill="#DE0000"/>
<rect x="1000" y="400" width="100" height="100" fill="#D9D9D9"/>
<rect x="1000" y="500" width="100" height="100" fill="#DE0000"/>
<rect x="1000" y="400" width="100" height="100" fill="#D9D9D9"/>
<rect x="1000" y="700" width="100" height="100" fill="#DE0000"/>
<rect x="1000" y="600" width="100" height="100" fill="#D9D9D9"/>
<rect x="1000" y="900" width="100" height="100" fill="#DE0000"/>
<rect x="1000" y="800" width="100" height="100" fill="#D9D9D9"/>
<rect x="1000" y="900" width="100" height="100" fill="#DE0000"/>
<rect x="1000" y="800" width="100" height="100" fill="#D9D9D9"/>
<rect x="1200" y="900" width="100" height="100" transform="rotate(-180 1200 900)" fill="#DE0000"/>
<rect x="1200" y="1000" width="100" height="100" transform="rotate(-180 1200 1000)" fill="#D9D9D9"/>
<rect x="1200" y="900" width="100" height="100" transform="rotate(-180 1200 900)" fill="#DE0000"/>
<rect x="1200" y="1000" width="100" height="100" transform="rotate(-180 1200 1000)" fill="#D9D9D9"/>
<rect x="1200" y="700" width="100" height="100" transform="rotate(-180 1200 700)" fill="#DE0000"/>
<rect x="1200" y="800" width="100" height="100" transform="rotate(-180 1200 800)" fill="#D9D9D9"/>
<rect x="1200" y="500" width="100" height="100" transform="rotate(-180 1200 500)" fill="#DE0000"/>
<rect x="1200" y="600" width="100" height="100" transform="rotate(-180 1200 600)" fill="#D9D9D9"/>
<rect x="1200" y="500" width="100" height="100" transform="rotate(-180 1200 500)" fill="#DE0000"/>
<rect x="1200" y="600" width="100" height="100" transform="rotate(-180 1200 600)" fill="#D9D9D9"/>
<rect x="1200" y="300" width="100" height="100" transform="rotate(-180 1200 300)" fill="#DE0000"/>
<rect x="1200" y="400" width="100" height="100" transform="rotate(-180 1200 400)" fill="#D9D9D9"/>
<rect x="1200" y="100" width="100" height="100" transform="rotate(-180 1200 100)" fill="#DE0000"/>
<rect x="1200" y="200" width="100" height="100" transform="rotate(-180 1200 200)" fill="#D9D9D9"/>
<rect x="1200" y="100" width="100" height="100" transform="rotate(-180 1200 100)" fill="#DE0000"/>
<rect x="1200" y="200" width="100" height="100" transform="rotate(-180 1200 200)" fill="#D9D9D9"/>
<rect x="800" y="100" width="100" height="100" fill="#DE0000"/>
<rect x="800" width="100" height="100" fill="#D9D9D9"/>
<rect x="800" y="100" width="100" height="100" fill="#DE0000"/>
<rect x="800" width="100" height="100" fill="#D9D9D9"/>
<rect x="800" y="300" width="100" height="100" fill="#C97500"/>
<rect x="800" y="200" width="100" height="100" fill="#C97500"/>
<rect x="800" y="500" width="100" height="100" fill="#DE0000"/>
<rect x="800" y="400" width="100" height="100" fill="#D9D9D9"/>
<rect x="800" y="500" width="100" height="100" fill="#C97500"/>
<rect x="800" y="400" width="100" height="100" fill="#C97500"/>
<rect x="800" y="700" width="100" height="100" fill="#DE0000"/>
<rect x="800" y="600" width="100" height="100" fill="#C97500"/>
<rect x="800" y="900" width="100" height="100" fill="#DE0000"/>
<rect x="800" y="800" width="100" height="100" fill="#D9D9D9"/>
<rect x="800" y="900" width="100" height="100" fill="#DE0000"/>
<rect x="800" y="800" width="100" height="100" fill="#D9D9D9"/>
<rect x="1000" y="900" width="100" height="100" transform="rotate(-180 1000 900)" fill="#DE0000"/>
<rect x="1000" y="1000" width="100" height="100" transform="rotate(-180 1000 1000)" fill="#D9D9D9"/>
<rect x="1000" y="900" width="100" height="100" transform="rotate(-180 1000 900)" fill="#DE0000"/>
<rect x="1000" y="1000" width="100" height="100" transform="rotate(-180 1000 1000)" fill="#D9D9D9"/>
<rect x="1000" y="700" width="100" height="100" transform="rotate(-180 1000 700)" fill="#C97500"/>
<rect x="1000" y="800" width="100" height="100" transform="rotate(-180 1000 800)" fill="#D9D9D9"/>
<rect x="1000" y="500" width="100" height="100" transform="rotate(-180 1000 500)" fill="#DE0000"/>
<rect x="1000" y="600" width="100" height="100" transform="rotate(-180 1000 600)" fill="#D9D9D9"/>
<rect x="1000" y="500" width="100" height="100" transform="rotate(-180 1000 500)" fill="#C97500"/>
<rect x="1000" y="600" width="100" height="100" transform="rotate(-180 1000 600)" fill="#C97500"/>
<rect x="1000" y="300" width="100" height="100" transform="rotate(-180 1000 300)" fill="#C97500"/>
<rect x="1000" y="400" width="100" height="100" transform="rotate(-180 1000 400)" fill="#C97500"/>
<rect x="1000" y="100" width="100" height="100" transform="rotate(-180 1000 100)" fill="#DE0000"/>
<rect x="1000" y="200" width="100" height="100" transform="rotate(-180 1000 200)" fill="#D9D9D9"/>
<rect x="1000" y="100" width="100" height="100" transform="rotate(-180 1000 100)" fill="#DE0000"/>
<rect x="1000" y="200" width="100" height="100" transform="rotate(-180 1000 200)" fill="#D9D9D9"/>
<rect x="1000" y="100" width="100" height="100" fill="#DE0000"/>
<rect x="1000" width="100" height="100" fill="#D9D9D9"/>
<rect x="1000" y="100" width="100" height="100" fill="#DE0000"/>
<rect x="1000" width="100" height="100" fill="#D9D9D9"/>
<rect x="1000" y="300" width="100" height="100" fill="#DE0000"/>
<rect x="1000" y="200" width="100" height="100" fill="#D9D9D9"/>
<rect x="1000" y="500" width="100" height="100" fill="#DE0000"/>
<rect x="1000" y="400" width="100" height="100" fill="#D9D9D9"/>
<rect x="1000" y="500" width="100" height="100" fill="#C97500"/>
<rect x="1000" y="400" width="100" height="100" fill="#D9D9D9"/>
<rect x="1000" y="700" width="100" height="100" fill="#DE0000"/>
<rect x="1000" y="600" width="100" height="100" fill="#C97500"/>
<rect x="1000" y="900" width="100" height="100" fill="#DE0000"/>
<rect x="1000" y="800" width="100" height="100" fill="#D9D9D9"/>
<rect x="1000" y="900" width="100" height="100" fill="#DE0000"/>
<rect x="1000" y="800" width="100" height="100" fill="#D9D9D9"/>
<rect x="1200" y="900" width="100" height="100" transform="rotate(-180 1200 900)" fill="#DE0000"/>
<rect x="1200" y="1000" width="100" height="100" transform="rotate(-180 1200 1000)" fill="#D9D9D9"/>
<rect x="1200" y="900" width="100" height="100" transform="rotate(-180 1200 900)" fill="#DE0000"/>
<rect x="1200" y="1000" width="100" height="100" transform="rotate(-180 1200 1000)" fill="#D9D9D9"/>
<rect x="1200" y="700" width="100" height="100" transform="rotate(-180 1200 700)" fill="#C97500"/>
<rect x="1200" y="800" width="100" height="100" transform="rotate(-180 1200 800)" fill="#D9D9D9"/>
<rect x="1200" y="500" width="100" height="100" transform="rotate(-180 1200 500)" fill="#DE0000"/>
<rect x="1200" y="600" width="100" height="100" transform="rotate(-180 1200 600)" fill="#D9D9D9"/>
<rect x="1200" y="500" width="100" height="100" transform="rotate(-180 1200 500)" fill="#DE0000"/>
<rect x="1200" y="600" width="100" height="100" transform="rotate(-180 1200 600)" fill="#C97500"/>
<rect x="1200" y="300" width="100" height="100" transform="rotate(-180 1200 300)" fill="#DE0000"/>
<rect x="1200" y="400" width="100" height="100" transform="rotate(-180 1200 400)" fill="#FAFF04"/>
<rect x="1200" y="100" width="100" height="100" transform="rotate(-180 1200 100)" fill="#DE0000"/>
<rect x="1200" y="200" width="100" height="100" transform="rotate(-180 1200 200)" fill="#D9D9D9"/>
<rect x="1200" y="100" width="100" height="100" transform="rotate(-180 1200 100)" fill="#DE0000"/>
<rect x="1200" y="200" width="100" height="100" transform="rotate(-180 1200 200)" fill="#D9D9D9"/>
<rect x="1200" y="100" width="100" height="100" fill="#DE0000"/>
<rect x="1200" width="100" height="100" fill="#D9D9D9"/>
<rect x="1200" y="100" width="100" height="100" fill="#DE0000"/>
<rect x="1200" width="100" height="100" fill="#D9D9D9"/>
<rect x="1200" y="300" width="100" height="100" fill="#DE0000"/>
<rect x="1200" y="200" width="100" height="100" fill="#D9D9D9"/>
<rect x="1200" y="500" width="100" height="100" fill="#DE0000"/>
<rect x="1200" y="400" width="100" height="100" fill="#D9D9D9"/>
<rect x="1200" y="500" width="100" height="100" fill="#C97500"/>
<rect x="1200" y="400" width="100" height="100" fill="#D9D9D9"/>
<rect x="1200" y="700" width="100" height="100" fill="#DE0000"/>
<rect x="1200" y="600" width="100" height="100" fill="#C97500"/>
<rect x="1200" y="900" width="100" height="100" fill="#DE0000"/>
<rect x="1200" y="800" width="100" height="100" fill="#D9D9D9"/>
<rect x="1200" y="900" width="100" height="100" fill="#DE0000"/>
<rect x="1200" y="800" width="100" height="100" fill="#D9D9D9"/>
<rect x="1400" y="900" width="100" height="100" transform="rotate(-180 1400 900)" fill="#DE0000"/>
<rect x="1400" y="1000" width="100" height="100" transform="rotate(-180 1400 1000)" fill="#D9D9D9"/>
<rect x="1400" y="900" width="100" height="100" transform="rotate(-180 1400 900)" fill="#DE0000"/>
<rect x="1400" y="1000" width="100" height="100" transform="rotate(-180 1400 1000)" fill="#D9D9D9"/>
<rect x="1400" y="700" width="100" height="100" transform="rotate(-180 1400 700)" fill="#C97500"/>
<rect x="1400" y="800" width="100" height="100" transform="rotate(-180 1400 800)" fill="#D9D9D9"/>
<rect x="1400" y="500" width="100" height="100" transform="rotate(-180 1400 500)" fill="#DE0000"/>
<rect x="1400" y="600" width="100" height="100" transform="rotate(-180 1400 600)" fill="#D9D9D9"/>
<rect x="1400" y="500" width="100" height="100" transform="rotate(-180 1400 500)" fill="#DE0000"/>
<rect x="1400" y="600" width="100" height="100" transform="rotate(-180 1400 600)" fill="#C97500"/>
<rect x="1400" y="300" width="100" height="100" transform="rotate(-180 1400 300)" fill="#DE0000"/>
<rect x="1400" y="400" width="100" height="100" transform="rotate(-180 1400 400)" fill="#D9D9D9"/>
<rect x="1400" y="100" width="100" height="100" transform="rotate(-180 1400 100)" fill="#DE0000"/>
<rect x="1400" y="200" width="100" height="100" transform="rotate(-180 1400 200)" fill="#D9D9D9"/>
<rect x="1400" y="100" width="100" height="100" transform="rotate(-180 1400 100)" fill="#DE0000"/>
<rect x="1400" y="200" width="100" height="100" transform="rotate(-180 1400 200)" fill="#D9D9D9"/>
<rect x="1400" y="100" width="100" height="100" fill="#DE0000"/>
<rect x="1400" width="100" height="100" fill="#D9D9D9"/>
<rect x="1400" y="100" width="100" height="100" fill="#DE0000"/>
<rect x="1400" width="100" height="100" fill="#D9D9D9"/>
<rect x="1400" y="300" width="100" height="100" fill="#DE0000"/>
<rect x="1400" y="200" width="100" height="100" fill="#D9D9D9"/>
<rect x="1400" y="500" width="100" height="100" fill="#DE0000"/>
<rect x="1400" y="400" width="100" height="100" fill="#D9D9D9"/>
<rect x="1400" y="500" width="100" height="100" fill="#2A2D28"/>
<rect x="1400" y="400" width="100" height="100" fill="#2A2D28"/>
<rect x="1400" y="700" width="100" height="100" fill="#2A2D28"/>
<rect x="1400" y="600" width="100" height="100" fill="#2A2D28"/>
<rect x="1400" y="900" width="100" height="100" fill="#DE0000"/>
<rect x="1400" y="800" width="100" height="100" fill="#D9D9D9"/>
<rect x="1400" y="900" width="100" height="100" fill="#DE0000"/>
<rect x="1400" y="800" width="100" height="100" fill="#D9D9D9"/>
<rect x="1600" y="900" width="100" height="100" transform="rotate(-180 1600 900)" fill="#DE0000"/>
<rect x="1600" y="1000" width="100" height="100" transform="rotate(-180 1600 1000)" fill="#D9D9D9"/>
<rect x="1600" y="900" width="100" height="100" transform="rotate(-180 1600 900)" fill="#DE0000"/>
<rect x="1600" y="1000" width="100" height="100" transform="rotate(-180 1600 1000)" fill="#D9D9D9"/>
<rect x="1600" y="700" width="100" height="100" transform="rotate(-180 1600 700)" fill="#2A2D28"/>
<rect x="1600" y="800" width="100" height="100" transform="rotate(-180 1600 800)" fill="#2A2D28"/>
<rect x="1600" y="500" width="100" height="100" transform="rotate(-180 1600 500)" fill="#DE0000"/>
<rect x="1600" y="600" width="100" height="100" transform="rotate(-180 1600 600)" fill="#D9D9D9"/>
<rect x="1600" y="500" width="100" height="100" transform="rotate(-180 1600 500)" fill="#2A2D28"/>
<rect x="1600" y="600" width="100" height="100" transform="rotate(-180 1600 600)" fill="#2A2D28"/>
<rect x="1600" y="300" width="100" height="100" transform="rotate(-180 1600 300)" fill="#DE0000"/>
<rect x="1600" y="400" width="100" height="100" transform="rotate(-180 1600 400)" fill="#D9D9D9"/>
<rect x="1600" y="100" width="100" height="100" transform="rotate(-180 1600 100)" fill="#DE0000"/>
<rect x="1600" y="200" width="100" height="100" transform="rotate(-180 1600 200)" fill="#D9D9D9"/>
<rect x="1600" y="100" width="100" height="100" transform="rotate(-180 1600 100)" fill="#DE0000"/>
<path d="M1516.93 39.1818V61H1514.29V41.9517H1514.16L1508.83 45.4886V42.804L1514.29 39.1818H1516.93ZM1530.45 61.2983C1529.55 61.2841 1528.66 61.1136 1527.76 60.7869C1526.87 60.4602 1526.05 59.9098 1525.31 59.1357C1524.57 58.3544 1523.98 57.2997 1523.53 55.9716C1523.09 54.6364 1522.86 52.9602 1522.86 50.9432C1522.86 49.0114 1523.04 47.2997 1523.41 45.8082C1523.77 44.3097 1524.29 43.049 1524.98 42.0263C1525.67 40.9964 1526.5 40.2152 1527.48 39.6825C1528.46 39.1499 1529.56 38.8835 1530.79 38.8835C1532.01 38.8835 1533.1 39.1286 1534.05 39.6186C1535.01 40.1016 1535.79 40.7763 1536.39 41.6428C1537 42.5092 1537.39 43.5071 1537.56 44.6364H1534.97C1534.72 43.6562 1534.25 42.843 1533.56 42.1967C1532.86 41.5504 1531.94 41.2273 1530.79 41.2273C1529.1 41.2273 1527.77 41.9624 1526.79 43.4325C1525.83 44.9027 1525.34 46.9659 1525.33 49.6222H1525.5C1525.9 49.0185 1526.38 48.5036 1526.92 48.0774C1527.48 47.6442 1528.09 47.3104 1528.75 47.076C1529.42 46.8416 1530.13 46.7244 1530.87 46.7244C1532.12 46.7244 1533.27 47.0369 1534.3 47.6619C1535.34 48.2798 1536.17 49.1357 1536.8 50.2294C1537.42 51.3161 1537.74 52.5625 1537.74 53.9688C1537.74 55.3182 1537.43 56.554 1536.83 57.6761C1536.23 58.7912 1535.38 59.679 1534.28 60.3395C1533.2 60.9929 1531.92 61.3125 1530.45 61.2983ZM1530.45 58.9545C1531.34 58.9545 1532.15 58.7308 1532.86 58.2834C1533.57 57.8359 1534.14 57.2358 1534.55 56.483C1534.97 55.7301 1535.18 54.892 1535.18 53.9688C1535.18 53.0668 1534.98 52.2464 1534.57 51.5078C1534.17 50.7621 1533.62 50.169 1532.92 49.7287C1532.22 49.2884 1531.43 49.0682 1530.53 49.0682C1529.86 49.0682 1529.23 49.2031 1528.65 49.473C1528.07 49.7358 1527.55 50.098 1527.11 50.5597C1526.68 51.0213 1526.34 51.5504 1526.09 52.147C1525.84 52.7365 1525.72 53.358 1525.72 54.0114C1525.72 54.8778 1525.92 55.6875 1526.33 56.4403C1526.74 57.1932 1527.3 57.8004 1528.01 58.2621C1528.73 58.7237 1529.54 58.9545 1530.45 58.9545ZM1554.75 57.0795L1542.73 45.0625L1544.35 43.4432L1556.37 55.4602L1554.75 57.0795ZM1544.35 57.0795L1542.73 55.4602L1554.75 43.4432L1556.37 45.0625L1544.35 57.0795ZM1569.37 39.1818V61H1566.73V41.9517H1566.6L1561.27 45.4886V42.804L1566.73 39.1818H1569.37ZM1582.76 61.2983C1581.16 61.2983 1579.79 60.8615 1578.66 59.9879C1577.53 59.1072 1576.67 57.8324 1576.07 56.1634C1575.47 54.4872 1575.18 52.4631 1575.18 50.0909C1575.18 47.733 1575.47 45.7195 1576.07 44.0504C1576.68 42.3743 1577.54 41.0959 1578.67 40.2152C1579.81 39.3274 1581.17 38.8835 1582.76 38.8835C1584.35 38.8835 1585.71 39.3274 1586.84 40.2152C1587.98 41.0959 1588.84 42.3743 1589.44 44.0504C1590.05 45.7195 1590.35 47.733 1590.35 50.0909C1590.35 52.4631 1590.05 54.4872 1589.45 56.1634C1588.86 57.8324 1587.99 59.1072 1586.86 59.9879C1585.73 60.8615 1584.37 61.2983 1582.76 61.2983ZM1582.76 58.9545C1584.35 58.9545 1585.59 58.1875 1586.47 56.6534C1587.35 55.1193 1587.79 52.9318 1587.79 50.0909C1587.79 48.2017 1587.59 46.593 1587.18 45.2649C1586.79 43.9368 1586.21 42.9247 1585.46 42.2287C1584.71 41.5327 1583.81 41.1847 1582.76 41.1847C1581.19 41.1847 1579.95 41.9624 1579.06 43.5178C1578.18 45.0661 1577.73 47.2571 1577.73 50.0909C1577.73 51.9801 1577.93 53.5852 1578.33 54.9062C1578.73 56.2273 1579.3 57.2322 1580.05 57.9212C1580.8 58.6101 1581.7 58.9545 1582.76 58.9545Z" fill="white"/>
<rect x="1600" y="200" width="100" height="100" transform="rotate(-180 1600 200)" fill="#D9D9D9"/>
</g>
<defs>
<clipPath id="clip0_30_4">
<rect width="1600" height="1000" fill="white"/>
</clipPath>
</defs>
</svg>
