<svg width="214" height="401" viewBox="0 0 214 401" fill="none" xmlns="http://www.w3.org/2000/svg">
<path d="M8.56035 107.591L107.509 2.19156L206.457 107.591H8.56035Z" fill="#FF0000" stroke="black" stroke-width="3"/>
<path d="M5.09473 110.005H4.09473V111.005V205.698V206.698V207.698V301.392V302.392V303.392V398.086V399.086H5.09473H105.999H106.999H107.999H208.904H209.904V398.086V303.392V302.392V301.392V207.698V206.698V205.698L209.904 111.005V110.005H208.904H107.999H106.999H105.999H5.09473Z" fill="#A6A7A5" stroke="black" stroke-width="2"/>
<g style="mix-blend-mode:multiply">
<path d="M52.9712 167.178C52.9712 157.318 60.964 149.325 70.8235 149.325C80.6831 149.325 88.6759 157.318 88.6759 167.178V241.105H52.9712V167.178Z" fill="#D9D9D9"/>
<path d="M52.9712 167.178C52.9712 157.318 60.964 149.325 70.8235 149.325C80.6831 149.325 88.6759 157.318 88.6759 167.178V241.105H52.9712V167.178Z" stroke="black" stroke-width="2"/>
</g>
<g style="mix-blend-mode:multiply">
<path d="M121.248 167.178C121.248 157.318 129.241 149.325 139.1 149.325C148.96 149.325 156.953 157.318 156.953 167.178V241.105H121.248V167.178Z" fill="#D9D9D9"/>
<path d="M121.248 167.178C121.248 157.318 129.241 149.325 139.1 149.325C148.96 149.325 156.953 157.318 156.953 167.178V241.105H121.248V167.178Z" stroke="black" stroke-width="2"/>
</g>
<rect y="102.392" width="210.943" height="12.4402" fill="#FF0000"/>
<line x1="15.2856" y1="103.892" x2="2.03805" y2="103.892" stroke="black" stroke-width="3"/>
<line x1="1.55762" y1="114.833" x2="1.55762" y2="102.392" stroke="black" stroke-width="3"/>
<line x1="212.98" y1="115.375" x2="-0.000152588" y2="115.375" stroke="black" stroke-width="3"/>
<line x1="211.98" y1="113.875" x2="211.98" y2="102.392" stroke="black" stroke-width="2"/>
<line x1="210.942" y1="103.892" x2="199.733" y2="103.892" stroke="black" stroke-width="3"/>
<path d="M3.41176 171.96L19.3619 140.81L35.312 171.96H3.41176Z" fill="#FF0000" stroke="black"/>
<g style="mix-blend-mode:multiply">
<rect x="3.55762" y="171.968" width="31.6095" height="226.575" fill="#A6A7A5"/>
<rect x="3.55762" y="171.968" width="31.6095" height="226.575" stroke="black"/>
</g>
<path d="M178.688 172.917L194.638 141.767L210.588 172.917H178.688Z" fill="#FF0000" stroke="black"/>
<g style="mix-blend-mode:multiply">
<rect x="178.834" y="172.924" width="31.6095" height="226.575" fill="#A6A7A5"/>
<rect x="178.834" y="172.924" width="31.6095" height="226.575" stroke="black"/>
</g>
<line x1="44.0576" y1="294.237" x2="52.4498" y2="294.237" stroke="black"/>
<line x1="35.666" y1="290.409" x2="44.0582" y2="290.409" stroke="black"/>
<line x1="52.4507" y1="290.409" x2="60.8428" y2="290.409" stroke="black"/>
<line x1="60.8423" y1="294.237" x2="69.2344" y2="294.237" stroke="black"/>
<line x1="69.2354" y1="290.409" x2="77.6275" y2="290.409" stroke="black"/>
<line x1="77.626" y1="294.237" x2="86.0181" y2="294.237" stroke="black"/>
<line x1="84.9702" y1="290.409" x2="93.3624" y2="290.409" stroke="black"/>
<line x1="93.3618" y1="294.237" x2="101.754" y2="294.237" stroke="black"/>
<line x1="101.754" y1="290.409" x2="110.147" y2="290.409" stroke="black"/>
<line x1="110.146" y1="294.237" x2="118.539" y2="294.237" stroke="black"/>
<line x1="118.539" y1="290.409" x2="126.931" y2="290.409" stroke="black"/>
<line x1="126.93" y1="294.237" x2="135.322" y2="294.237" stroke="black"/>
<line x1="136.373" y1="290.409" x2="144.765" y2="290.409" stroke="black"/>
<line x1="144.763" y1="294.237" x2="153.155" y2="294.237" stroke="black"/>
<line x1="153.156" y1="290.409" x2="161.548" y2="290.409" stroke="black"/>
<line x1="161.548" y1="294.237" x2="169.94" y2="294.237" stroke="black"/>
<line x1="169.94" y1="290.409" x2="178.333" y2="290.409" stroke="black"/>
<line x1="43.5093" y1="289.952" x2="43.5093" y2="294.737" stroke="black"/>
<line x1="52.9507" y1="289.952" x2="52.9507" y2="294.737" stroke="black"/>
<line x1="60.2925" y1="289.952" x2="60.2925" y2="294.737" stroke="black"/>
<line x1="69.7354" y1="289.952" x2="69.7354" y2="294.737" stroke="black"/>
<line x1="77.0771" y1="289.952" x2="77.0771" y2="294.737" stroke="black"/>
<line x1="85.4702" y1="289.952" x2="85.4702" y2="294.737" stroke="black"/>
<line x1="92.813" y1="289.952" x2="92.813" y2="294.737" stroke="black"/>
<line x1="102.254" y1="289.952" x2="102.254" y2="294.737" stroke="black"/>
<line x1="109.597" y1="289.952" x2="109.597" y2="294.737" stroke="black"/>
<line x1="119.039" y1="289.952" x2="119.039" y2="294.737" stroke="black"/>
<line x1="126.381" y1="289.952" x2="126.381" y2="294.737" stroke="black"/>
<line x1="135.823" y1="289.952" x2="135.823" y2="294.737" stroke="black"/>
<line x1="144.214" y1="289.952" x2="144.214" y2="294.737" stroke="black"/>
<line x1="153.656" y1="289.952" x2="153.656" y2="294.737" stroke="black"/>
<line x1="160.999" y1="289.952" x2="160.999" y2="294.737" stroke="black"/>
<line x1="170.44" y1="289.952" x2="170.44" y2="294.737" stroke="black"/>
<line x1="178.833" y1="289.952" x2="178.833" y2="294.737" stroke="black"/>
<line x1="36.166" y1="289.952" x2="36.166" y2="294.737" stroke="black"/>
<line x1="44.0576" y1="293.28" x2="52.4498" y2="293.28" stroke="black"/>
<line x1="35.666" y1="289.452" x2="44.0582" y2="289.452" stroke="black"/>
<line x1="52.4507" y1="289.452" x2="60.8428" y2="289.452" stroke="black"/>
<line x1="60.8423" y1="293.28" x2="69.2344" y2="293.28" stroke="black"/>
<line x1="69.2354" y1="289.452" x2="77.6275" y2="289.452" stroke="black"/>
<line x1="77.626" y1="293.28" x2="86.0181" y2="293.28" stroke="black"/>
<line x1="84.9702" y1="289.452" x2="93.3624" y2="289.452" stroke="black"/>
<line x1="93.3618" y1="293.28" x2="101.754" y2="293.28" stroke="black"/>
<line x1="101.754" y1="289.452" x2="110.147" y2="289.452" stroke="black"/>
<line x1="110.146" y1="293.28" x2="118.539" y2="293.28" stroke="black"/>
<line x1="118.539" y1="289.452" x2="126.931" y2="289.452" stroke="black"/>
<line x1="126.93" y1="293.28" x2="135.322" y2="293.28" stroke="black"/>
<line x1="136.373" y1="289.452" x2="144.765" y2="289.452" stroke="black"/>
<line x1="144.763" y1="293.28" x2="153.155" y2="293.28" stroke="black"/>
<line x1="153.156" y1="289.452" x2="161.548" y2="289.452" stroke="black"/>
<line x1="161.548" y1="293.28" x2="169.94" y2="293.28" stroke="black"/>
<line x1="169.94" y1="289.452" x2="178.333" y2="289.452" stroke="black"/>
<line x1="43.5093" y1="288.995" x2="43.5093" y2="293.78" stroke="black"/>
<line x1="52.9507" y1="288.995" x2="52.9507" y2="293.78" stroke="black"/>
<line x1="60.2925" y1="288.995" x2="60.2925" y2="293.78" stroke="black"/>
<line x1="69.7354" y1="288.995" x2="69.7354" y2="293.78" stroke="black"/>
<line x1="77.0771" y1="288.995" x2="77.0771" y2="293.78" stroke="black"/>
<line x1="85.4702" y1="288.995" x2="85.4702" y2="293.78" stroke="black"/>
<line x1="92.813" y1="288.995" x2="92.813" y2="293.78" stroke="black"/>
<line x1="102.254" y1="288.995" x2="102.254" y2="293.78" stroke="black"/>
<line x1="109.597" y1="288.995" x2="109.597" y2="293.78" stroke="black"/>
<line x1="119.039" y1="288.995" x2="119.039" y2="293.78" stroke="black"/>
<line x1="126.381" y1="288.995" x2="126.381" y2="293.78" stroke="black"/>
<line x1="135.823" y1="288.995" x2="135.823" y2="293.78" stroke="black"/>
<line x1="144.214" y1="288.995" x2="144.214" y2="293.78" stroke="black"/>
<line x1="153.656" y1="288.995" x2="153.656" y2="293.78" stroke="black"/>
<line x1="160.999" y1="288.995" x2="160.999" y2="293.78" stroke="black"/>
<line x1="170.44" y1="288.995" x2="170.44" y2="293.78" stroke="black"/>
<line x1="178.833" y1="288.995" x2="178.833" y2="293.78" stroke="black"/>
<line x1="36.166" y1="288.995" x2="36.166" y2="293.78" stroke="black"/>
<path d="M67.2373 377.094C67.2373 355.416 84.8112 337.842 106.49 337.842C128.168 337.842 145.742 355.416 145.742 377.094V399H67.2373V377.094Z" fill="#664747" stroke="black" stroke-width="2"/>
<line x1="96.2188" y1="338.983" x2="96.2188" y2="398.93" stroke="black"/>
<line x1="73.5405" y1="353.97" x2="73.5405" y2="400" stroke="black"/>
<line x1="101.888" y1="338.983" x2="101.888" y2="398.93" stroke="black"/>
<line x1="79.2095" y1="347.547" x2="79.2095" y2="398.93" stroke="black"/>
<line x1="107.557" y1="338.983" x2="107.557" y2="397.859" stroke="black"/>
<line x1="84.8789" y1="344.335" x2="84.8789" y2="398.93" stroke="black"/>
<line x1="90.5483" y1="340.053" x2="90.5483" y2="398.929" stroke="black"/>
<line x1="113.227" y1="338.983" x2="113.227" y2="398.93" stroke="black"/>
<line x1="118.895" y1="340.053" x2="118.895" y2="398.929" stroke="black"/>
<line x1="124.564" y1="341.124" x2="124.564" y2="400" stroke="black"/>
<line x1="130.234" y1="346.476" x2="130.234" y2="400" stroke="black"/>
<line x1="135.903" y1="349.688" x2="135.903" y2="398.929" stroke="black"/>
<line x1="141.573" y1="357.181" x2="141.573" y2="398.93" stroke="black"/>
<line x1="145.608" y1="372.097" x2="67.3715" y2="372.097" stroke="black" stroke-width="2"/>
</svg>
