<svg width="65" height="60" viewBox="0 0 65 60" fill="none" xmlns="http://www.w3.org/2000/svg">
<rect y="15" width="5" height="5" fill="black"/>
<rect y="10" width="5" height="5" fill="black"/>
<rect y="20" width="5" height="5" fill="black"/>
<rect x="60" y="15" width="5" height="5" fill="black"/>
<rect x="60" y="10" width="5" height="5" fill="black"/>
<rect x="60" y="20" width="5" height="5" fill="black"/>
<rect x="5" y="5" width="5" height="5" fill="black"/>
<rect x="25" y="5" width="5" height="5" fill="black"/>
<rect x="30" y="10" width="5" height="5" fill="black"/>
<rect x="25" y="10" width="5" height="5" fill="#D9D9D9"/>
<rect x="35" y="10" width="5" height="5" fill="#DE0000"/>
<rect x="20" y="40" width="5" height="5" fill="#DE0000"/>
<rect x="20" y="35" width="5" height="5" fill="#DE0000"/>
<rect x="15" y="35" width="5" height="5" fill="#DE0000"/>
<rect x="40" y="35" width="5" height="5" fill="#DE0000"/>
<rect x="45" y="35" width="5" height="5" fill="#DE0000"/>
<rect x="40" y="40" width="5" height="5" fill="#DE0000"/>
<rect x="30" y="50" width="5" height="5" fill="#DE0000"/>
<rect x="25" y="10" width="5" height="5" fill="#DE0000"/>
<rect x="35" y="5" width="5" height="5" fill="black"/>
<rect x="25" y="50" width="5" height="5" fill="black"/>
<rect x="30" y="55" width="5" height="5" fill="black"/>
<rect x="15" y="40" width="5" height="5" fill="black"/>
<rect x="20" y="45" width="5" height="5" fill="black"/>
<rect x="10" y="35" width="5" height="5" fill="black"/>
<rect y="25" width="5" height="5" fill="black"/>
<rect x="5" y="30" width="5" height="5" fill="black"/>
<rect x="35" y="50" width="5" height="5" fill="black"/>
<rect x="40" y="45" width="5" height="5" fill="black"/>
<rect x="45" y="40" width="5" height="5" fill="black"/>
<rect x="50" y="35" width="5" height="5" fill="black"/>
<rect x="55" y="30" width="5" height="5" fill="black"/>
<rect x="60" y="25" width="5" height="5" fill="black"/>
<rect x="55" y="5" width="5" height="5" fill="black"/>
<rect x="10" width="5" height="5" fill="black"/>
<rect x="15" width="5" height="5" fill="black"/>
<rect x="20" width="5" height="5" fill="black"/>
<rect x="10" width="5" height="5" fill="black"/>
<rect x="40" width="5" height="5" fill="black"/>
<rect x="45" width="5" height="5" fill="black"/>
<rect x="50" width="5" height="5" fill="black"/>
<rect x="40" width="5" height="5" fill="black"/>
<rect x="10" y="5" width="15" height="30" fill="#DE0000"/>
<rect x="40" y="5" width="15" height="30" fill="#DE0000"/>
<rect x="25" y="15" width="15" height="35" fill="#DE0000"/>
<rect x="5" y="10" width="5" height="20" fill="#DE0000"/>
<rect x="55" y="10" width="5" height="20" fill="#DE0000"/>
<rect x="10" y="15" width="5" height="5" fill="#D9D9D9"/>
<rect x="10" y="20" width="5" height="5" fill="#D9D9D9"/>
<rect x="15" y="25" width="5" height="5" fill="#D9D9D9"/>
<rect x="15" y="10" width="5" height="5" fill="#D9D9D9"/>
<rect x="15" y="15" width="5" height="5" fill="#D9D9D9"/>
</svg>
