<svg width="1600" height="1000" viewBox="0 0 1600 1000" fill="none" xmlns="http://www.w3.org/2000/svg">
<g clip-path="url(#clip0_38_428)">
<rect width="1600" height="1000" fill="white"/>
<rect y="100" width="100" height="100" fill="#DE0000"/>
<rect width="100" height="100" fill="#D9D9D9"/>
<rect y="100" width="100" height="100" fill="#DE0000"/>
<rect y="300" width="100" height="100" fill="#DE0000"/>
<rect y="200" width="100" height="100" fill="#D9D9D9"/>
<rect y="500" width="100" height="100" fill="#DE0000"/>
<rect y="400" width="100" height="100" fill="#D9D9D9"/>
<rect y="500" width="100" height="100" fill="#DE0000"/>
<rect y="400" width="100" height="100" fill="#D9D9D9"/>
<rect y="700" width="100" height="100" fill="#DE0000"/>
<rect y="600" width="100" height="100" fill="#D9D9D9"/>
<rect y="900" width="100" height="100" fill="#DE0000"/>
<rect y="800" width="100" height="100" fill="#D9D9D9"/>
<rect y="900" width="100" height="100" fill="#DE0000"/>
<rect y="800" width="100" height="100" fill="#D9D9D9"/>
<rect x="200" y="900" width="100" height="100" transform="rotate(-180 200 900)" fill="#DE0000"/>
<rect x="200" y="1000" width="100" height="100" transform="rotate(-180 200 1000)" fill="#D9D9D9"/>
<rect x="200" y="900" width="100" height="100" transform="rotate(-180 200 900)" fill="#DE0000"/>
<rect x="200" y="1000" width="100" height="100" transform="rotate(-180 200 1000)" fill="#D9D9D9"/>
<rect x="200" y="700" width="100" height="100" transform="rotate(-180 200 700)" fill="#DE0000"/>
<rect x="200" y="800" width="100" height="100" transform="rotate(-180 200 800)" fill="#D9D9D9"/>
<rect x="200" y="500" width="100" height="100" transform="rotate(-180 200 500)" fill="#DE0000"/>
<rect x="200" y="600" width="100" height="100" transform="rotate(-180 200 600)" fill="#D9D9D9"/>
<rect x="200" y="500" width="100" height="100" transform="rotate(-180 200 500)" fill="#DE0000"/>
<rect x="200" y="600" width="100" height="100" transform="rotate(-180 200 600)" fill="#D9D9D9"/>
<rect x="200" y="300" width="100" height="100" transform="rotate(-180 200 300)" fill="#DE0000"/>
<rect x="200" y="400" width="100" height="100" transform="rotate(-180 200 400)" fill="#D9D9D9"/>
<rect x="200" y="100" width="100" height="100" transform="rotate(-180 200 100)" fill="#DE0000"/>
<rect x="200" y="200" width="100" height="100" transform="rotate(-180 200 200)" fill="#D9D9D9"/>
<rect x="200" y="100" width="100" height="100" transform="rotate(-180 200 100)" fill="#DE0000"/>
<rect x="200" y="200" width="100" height="100" transform="rotate(-180 200 200)" fill="#D9D9D9"/>
<rect x="200" y="100" width="100" height="100" fill="#DE0000"/>
<rect x="200" width="100" height="100" fill="#D9D9D9"/>
<rect x="200" y="100" width="100" height="100" fill="#DE0000"/>
<rect x="200" width="100" height="100" fill="#D9D9D9"/>
<rect x="200" y="300" width="100" height="100" fill="#DE0000"/>
<rect x="200" y="200" width="100" height="100" fill="#D9D9D9"/>
<rect x="200" y="500" width="100" height="100" fill="#DE0000"/>
<rect x="200" y="400" width="100" height="100" fill="#D9D9D9"/>
<rect x="200" y="500" width="100" height="100" fill="#DE0000"/>
<rect x="200" y="400" width="100" height="100" fill="#D9D9D9"/>
<rect x="200" y="700" width="100" height="100" fill="#DE0000"/>
<rect x="200" y="600" width="100" height="100" fill="#D9D9D9"/>
<rect x="200" y="900" width="100" height="100" fill="#DE0000"/>
<rect x="200" y="800" width="100" height="100" fill="#D9D9D9"/>
<rect x="200" y="900" width="100" height="100" fill="#DE0000"/>
<rect x="200" y="800" width="100" height="100" fill="#D9D9D9"/>
<rect x="400" y="900" width="100" height="100" transform="rotate(-180 400 900)" fill="#DE0000"/>
<rect x="400" y="1000" width="100" height="100" transform="rotate(-180 400 1000)" fill="#D9D9D9"/>
<rect x="400" y="900" width="100" height="100" transform="rotate(-180 400 900)" fill="#DE0000"/>
<rect x="400" y="1000" width="100" height="100" transform="rotate(-180 400 1000)" fill="#D9D9D9"/>
<rect x="400" y="700" width="100" height="100" transform="rotate(-180 400 700)" fill="#DE0000"/>
<rect x="400" y="800" width="100" height="100" transform="rotate(-180 400 800)" fill="#D9D9D9"/>
<rect x="400" y="500" width="100" height="100" transform="rotate(-180 400 500)" fill="#DE0000"/>
<rect x="400" y="600" width="100" height="100" transform="rotate(-180 400 600)" fill="#D9D9D9"/>
<rect x="400" y="500" width="100" height="100" transform="rotate(-180 400 500)" fill="#DE0000"/>
<rect x="400" y="600" width="100" height="100" transform="rotate(-180 400 600)" fill="#D9D9D9"/>
<rect x="400" y="300" width="100" height="100" transform="rotate(-180 400 300)" fill="#00CD52"/>
<rect x="400" y="400" width="100" height="100" transform="rotate(-180 400 400)" fill="#D9D9D9"/>
<rect x="400" y="100" width="100" height="100" transform="rotate(-180 400 100)" fill="#DE0000"/>
<rect x="400" y="200" width="100" height="100" transform="rotate(-180 400 200)" fill="#D9D9D9"/>
<rect x="400" y="100" width="100" height="100" transform="rotate(-180 400 100)" fill="#DE0000"/>
<rect x="400" y="200" width="100" height="100" transform="rotate(-180 400 200)" fill="#D9D9D9"/>
<rect y="100" width="100" height="100" fill="#DE0000"/>
<rect y="100" width="100" height="100" fill="#00CD52"/>
<rect y="300" width="100" height="100" fill="#00CD52"/>
<rect y="200" width="100" height="100" fill="#00CD52"/>
<rect y="500" width="100" height="100" fill="#DE0000"/>
<rect y="400" width="100" height="100" fill="#D9D9D9"/>
<rect y="500" width="100" height="100" fill="#00CD52"/>
<rect y="400" width="100" height="100" fill="#00CD52"/>
<rect y="700" width="100" height="100" fill="#C97500"/>
<rect y="600" width="100" height="100" fill="#C97500"/>
<rect y="900" width="100" height="100" fill="#DE0000"/>
<rect y="800" width="100" height="100" fill="#D9D9D9"/>
<rect y="900" width="100" height="100" fill="#00CD52"/>
<rect y="800" width="100" height="100" fill="#00CD52"/>
<rect x="200" y="900" width="100" height="100" transform="rotate(-180 200 900)" fill="#DE0000"/>
<rect x="200" y="1000" width="100" height="100" transform="rotate(-180 200 1000)" fill="#D9D9D9"/>
<rect x="200" y="900" width="100" height="100" transform="rotate(-180 200 900)" fill="#00CD52"/>
<rect x="200" y="1000" width="100" height="100" transform="rotate(-180 200 1000)" fill="#00CD52"/>
<rect x="200" y="700" width="100" height="100" transform="rotate(-180 200 700)" fill="#C97500"/>
<rect x="200" y="800" width="100" height="100" transform="rotate(-180 200 800)" fill="#C97500"/>
<rect x="200" y="500" width="100" height="100" transform="rotate(-180 200 500)" fill="#DE0000"/>
<rect x="200" y="600" width="100" height="100" transform="rotate(-180 200 600)" fill="#D9D9D9"/>
<rect x="279" y="450" width="100" height="100" transform="rotate(-180 279 450)" fill="#04BC4E"/>
<rect x="200" y="600" width="100" height="100" transform="rotate(-180 200 600)" fill="#00CD52"/>
<rect x="200" y="300" width="100" height="100" transform="rotate(-180 200 300)" fill="#00CD52"/>
<rect x="200" y="400" width="100" height="100" transform="rotate(-180 200 400)" fill="#00CD52"/>
<rect x="200" y="200" width="100" height="100" transform="rotate(-180 200 200)" fill="#D9D9D9"/>
<rect x="200" y="200" width="100" height="100" transform="rotate(-180 200 200)" fill="#00CD52"/>
<rect x="200" y="100" width="100" height="100" fill="#DE0000"/>
<path d="M0 1.11288e-06H100V100H0V1.11288e-06Z" fill="#9C3800"/>
<path d="M200 100H100V1.11288e-06L200 0L200 100Z" fill="#9C3800"/>
<path d="M200 0L300 1.11288e-06V100H200L200 0Z" fill="#9C3800"/>
<rect x="200" y="100" width="100" height="100" fill="#00CD52"/>
<rect x="200" y="300" width="100" height="100" fill="#00CD52"/>
<rect x="200" y="200" width="100" height="100" fill="#00CD52"/>
<rect x="200" y="500" width="100" height="100" fill="#C97500"/>
<rect x="200" y="400" width="100" height="100" fill="#D9D9D9"/>
<path d="M200 500H300V550C300 577.614 277.614 600 250 600H200V500Z" fill="#00CD52"/>
<rect x="200" y="400" width="100" height="100" fill="#00CD52"/>
<rect x="200" y="700" width="100" height="100" fill="#C97500"/>
<rect x="200" y="600" width="100" height="100" fill="#C97500"/>
<rect x="200" y="900" width="100" height="100" fill="#DE0000"/>
<rect x="200" y="800" width="100" height="100" fill="#D9D9D9"/>
<rect x="200" y="900" width="100" height="100" fill="#00CD52"/>
<rect x="200" y="800" width="100" height="100" fill="#00CD52"/>
<rect x="400" y="900" width="100" height="100" transform="rotate(-180 400 900)" fill="#DE0000"/>
<rect x="400" y="1000" width="100" height="100" transform="rotate(-180 400 1000)" fill="#D9D9D9"/>
<rect x="400" y="900" width="100" height="100" transform="rotate(-180 400 900)" fill="#00CD52"/>
<rect x="400" y="1000" width="100" height="100" transform="rotate(-180 400 1000)" fill="#00CD52"/>
<rect x="400" y="700" width="100" height="100" transform="rotate(-180 400 700)" fill="#C97500"/>
<rect x="400" y="800" width="100" height="100" transform="rotate(-180 400 800)" fill="#C97500"/>
<rect x="400" y="500" width="100" height="100" transform="rotate(-180 400 500)" fill="#DE0000"/>
<rect x="400" y="600" width="100" height="100" transform="rotate(-180 400 600)" fill="#D9D9D9"/>
<rect x="400" y="500" width="100" height="100" transform="rotate(-180 400 500)" fill="#C97500"/>
<rect x="400" y="600" width="100" height="100" transform="rotate(-180 400 600)" fill="#C97500"/>
<rect x="400" y="400" width="100" height="100" transform="rotate(-180 400 400)" fill="#C97500"/>
<rect x="400" y="100" width="100" height="100" transform="rotate(-180 400 100)" fill="#DE0000"/>
<rect x="400" y="200" width="100" height="100" transform="rotate(-180 400 200)" fill="#D9D9D9"/>
<rect x="400" y="200" width="100" height="100" transform="rotate(-180 400 200)" fill="#00CD52"/>
<rect x="400" y="100" width="100" height="100" fill="#DE0000"/>
<rect x="400" width="100" height="100" fill="#D9D9D9"/>
<rect x="400" y="100" width="100" height="100" fill="#00CD52"/>
<rect x="400" y="300" width="100" height="100" fill="#C97500"/>
<rect x="400" y="200" width="100" height="100" fill="#C97500"/>
<rect x="400" y="500" width="100" height="100" fill="#DE0000"/>
<rect x="400" y="400" width="100" height="100" fill="#D9D9D9"/>
<rect x="400" y="500" width="100" height="100" fill="#C97500"/>
<rect x="400" y="400" width="100" height="100" fill="#C97500"/>
<rect x="400" y="600" width="100" height="100" fill="#C97500"/>
<rect x="400" y="900" width="100" height="100" fill="#DE0000"/>
<rect x="400" y="800" width="100" height="100" fill="#D9D9D9"/>
<rect x="400" y="900" width="100" height="100" fill="#00CD52"/>
<rect x="400" y="800" width="100" height="100" fill="#00CD52"/>
<rect x="600" y="900" width="100" height="100" transform="rotate(-180 600 900)" fill="#DE0000"/>
<rect x="600" y="1000" width="100" height="100" transform="rotate(-180 600 1000)" fill="#D9D9D9"/>
<rect x="600" y="900" width="100" height="100" transform="rotate(-180 600 900)" fill="#00CD52"/>
<rect x="600" y="1000" width="100" height="100" transform="rotate(-180 600 1000)" fill="#00CD52"/>
<rect x="600" y="700" width="100" height="100" transform="rotate(-180 600 700)" fill="#00CD52"/>
<rect x="600" y="800" width="100" height="100" transform="rotate(-180 600 800)" fill="#00CD52"/>
<rect x="500" y="801" width="100" height="100" transform="rotate(-180 500 801)" fill="#00CD52"/>
<rect x="600" y="500" width="100" height="100" transform="rotate(-180 600 500)" fill="#C97500"/>
<rect x="600" y="600" width="100" height="100" transform="rotate(-180 600 600)" fill="#D9D9D9"/>
<path d="M600 500L500 500L500 450C500 422.386 522.386 400 550 400L600 400L600 500Z" fill="#00CD52"/>
<rect x="600" y="600" width="100" height="100" transform="rotate(-180 600 600)" fill="#00CD52"/>
<rect x="600" y="300" width="100" height="100" transform="rotate(-180 600 300)" fill="#C97500"/>
<rect x="600" y="400" width="100" height="100" transform="rotate(-180 600 400)" fill="#C97500"/>
<rect x="600" y="100" width="100" height="100" transform="rotate(-180 600 100)" fill="#DE0000"/>
<rect x="600" y="200" width="100" height="100" transform="rotate(-180 600 200)" fill="#D9D9D9"/>
<rect x="400" y="100" width="100" height="100" transform="rotate(-180 400 100)" fill="#9C3800"/>
<rect x="400" width="100" height="100" fill="#9C3800"/>
<rect x="600" y="100" width="100" height="100" transform="rotate(-180 600 100)" fill="#9C3800"/>
<rect x="600" y="200" width="100" height="100" transform="rotate(-180 600 200)" fill="#00CD52"/>
<rect x="600" y="100" width="100" height="100" fill="#DE0000"/>
<rect x="600" width="100" height="100" fill="#D9D9D9"/>
<rect x="600" y="100" width="100" height="100" fill="#00CD52"/>
<rect x="600" width="100" height="100" fill="#00CD52"/>
<rect x="600" y="300" width="100" height="100" fill="#C97500"/>
<rect x="600" y="200" width="100" height="100" fill="#C97500"/>
<rect x="600" y="400" width="100" height="100" fill="#D9D9D9"/>
<rect x="600" y="400" width="100" height="100" fill="#00CD52"/>
<rect x="600" y="700" width="100" height="100" fill="#00CD52"/>
<rect x="600" y="600" width="100" height="100" fill="#00CD52"/>
<rect x="600" y="900" width="100" height="100" fill="#DE0000"/>
<rect x="600" y="800" width="100" height="100" fill="#D9D9D9"/>
<rect x="600" y="900" width="100" height="100" fill="#00CD52"/>
<rect x="600" y="800" width="100" height="100" fill="#00CD52"/>
<rect x="800" y="900" width="100" height="100" transform="rotate(-180 800 900)" fill="#DE0000"/>
<rect x="800" y="1000" width="100" height="100" transform="rotate(-180 800 1000)" fill="#D9D9D9"/>
<rect x="800" y="900" width="100" height="100" transform="rotate(-180 800 900)" fill="#00CD52"/>
<rect x="800" y="1000" width="100" height="100" transform="rotate(-180 800 1000)" fill="#00CD52"/>
<rect x="800" y="700" width="100" height="100" transform="rotate(-180 800 700)" fill="#00CD52"/>
<rect x="800" y="800" width="100" height="100" transform="rotate(-180 800 800)" fill="#00CD52"/>
<rect x="800" y="500" width="100" height="100" transform="rotate(-180 800 500)" fill="#C97500"/>
<rect x="800" y="600" width="100" height="100" transform="rotate(-180 800 600)" fill="#D9D9D9"/>
<path d="M800 500L700 500L700 400L750 400C777.614 400 800 422.386 800 450L800 500Z" fill="#00CD52"/>
<rect x="800" y="600" width="100" height="100" transform="rotate(-180 800 600)" fill="#00CD52"/>
<rect x="800" y="300" width="100" height="100" transform="rotate(-180 800 300)" fill="#C97500"/>
<rect x="800" y="400" width="100" height="100" transform="rotate(-180 800 400)" fill="#C97500"/>
<rect x="800" y="100" width="100" height="100" transform="rotate(-180 800 100)" fill="#DE0000"/>
<rect x="800" y="200" width="100" height="100" transform="rotate(-180 800 200)" fill="#D9D9D9"/>
<rect x="800" y="100" width="100" height="100" transform="rotate(-180 800 100)" fill="#00CD52"/>
<rect x="800" y="200" width="100" height="100" transform="rotate(-180 800 200)" fill="#00CD52"/>
<rect x="800" y="100" width="100" height="100" fill="#DE0000"/>
<rect x="800" width="100" height="100" fill="#D9D9D9"/>
<rect x="800" y="100" width="100" height="100" fill="#DE0000"/>
<rect x="800" width="100" height="100" fill="#D9D9D9"/>
<rect x="800" y="300" width="100" height="100" fill="#DE0000"/>
<rect x="800" y="200" width="100" height="100" fill="#D9D9D9"/>
<rect x="800" y="500" width="100" height="100" fill="#DE0000"/>
<rect x="800" y="400" width="100" height="100" fill="#D9D9D9"/>
<rect x="800" y="500" width="100" height="100" fill="#DE0000"/>
<rect x="800" y="400" width="100" height="100" fill="#D9D9D9"/>
<rect x="800" y="700" width="100" height="100" fill="#DE0000"/>
<rect x="800" y="600" width="100" height="100" fill="#00CD52"/>
<rect x="800" y="900" width="100" height="100" fill="#DE0000"/>
<rect x="800" y="800" width="100" height="100" fill="#D9D9D9"/>
<rect x="800" y="900" width="100" height="100" fill="#DE0000"/>
<rect x="800" y="800" width="100" height="100" fill="#D9D9D9"/>
<rect x="1000" y="900" width="100" height="100" transform="rotate(-180 1000 900)" fill="#DE0000"/>
<rect x="1000" y="1000" width="100" height="100" transform="rotate(-180 1000 1000)" fill="#D9D9D9"/>
<rect x="1000" y="900" width="100" height="100" transform="rotate(-180 1000 900)" fill="#DE0000"/>
<rect x="1000" y="1000" width="100" height="100" transform="rotate(-180 1000 1000)" fill="#D9D9D9"/>
<rect x="1000" y="700" width="100" height="100" transform="rotate(-180 1000 700)" fill="#DE0000"/>
<rect x="1000" y="800" width="100" height="100" transform="rotate(-180 1000 800)" fill="#D9D9D9"/>
<rect x="1000" y="500" width="100" height="100" transform="rotate(-180 1000 500)" fill="#DE0000"/>
<rect x="1000" y="600" width="100" height="100" transform="rotate(-180 1000 600)" fill="#D9D9D9"/>
<rect x="1000" y="500" width="100" height="100" transform="rotate(-180 1000 500)" fill="#DE0000"/>
<rect x="1000" y="600" width="100" height="100" transform="rotate(-180 1000 600)" fill="#D9D9D9"/>
<rect x="1000" y="300" width="100" height="100" transform="rotate(-180 1000 300)" fill="#00CD52"/>
<rect x="1000" y="400" width="100" height="100" transform="rotate(-180 1000 400)" fill="#D9D9D9"/>
<rect x="1000" y="100" width="100" height="100" transform="rotate(-180 1000 100)" fill="#DE0000"/>
<rect x="1000" y="200" width="100" height="100" transform="rotate(-180 1000 200)" fill="#D9D9D9"/>
<rect x="1000" y="100" width="100" height="100" transform="rotate(-180 1000 100)" fill="#DE0000"/>
<rect x="1000" y="200" width="100" height="100" transform="rotate(-180 1000 200)" fill="#D9D9D9"/>
<rect x="1000" y="100" width="100" height="100" fill="#DE0000"/>
<rect x="1000" width="100" height="100" fill="#D9D9D9"/>
<rect x="1000" y="100" width="100" height="100" fill="#DE0000"/>
<rect x="1000" width="100" height="100" fill="#D9D9D9"/>
<rect x="1000" y="300" width="100" height="100" fill="#DE0000"/>
<rect x="1000" y="200" width="100" height="100" fill="#D9D9D9"/>
<rect x="1000" y="500" width="100" height="100" fill="#DE0000"/>
<rect x="1000" y="400" width="100" height="100" fill="#D9D9D9"/>
<rect x="1000" y="500" width="100" height="100" fill="#DE0000"/>
<rect x="1000" y="400" width="100" height="100" fill="#D9D9D9"/>
<rect x="1000" y="700" width="100" height="100" fill="#DE0000"/>
<rect x="1000" y="600" width="100" height="100" fill="#D9D9D9"/>
<rect x="1000" y="900" width="100" height="100" fill="#DE0000"/>
<rect x="1000" y="800" width="100" height="100" fill="#D9D9D9"/>
<rect x="1000" y="900" width="100" height="100" fill="#DE0000"/>
<rect x="1000" y="800" width="100" height="100" fill="#D9D9D9"/>
<rect x="1200" y="900" width="100" height="100" transform="rotate(-180 1200 900)" fill="#DE0000"/>
<rect x="1200" y="1000" width="100" height="100" transform="rotate(-180 1200 1000)" fill="#D9D9D9"/>
<rect x="1200" y="900" width="100" height="100" transform="rotate(-180 1200 900)" fill="#DE0000"/>
<rect x="1200" y="1000" width="100" height="100" transform="rotate(-180 1200 1000)" fill="#D9D9D9"/>
<rect x="1200" y="700" width="100" height="100" transform="rotate(-180 1200 700)" fill="#DE0000"/>
<rect x="1200" y="800" width="100" height="100" transform="rotate(-180 1200 800)" fill="#D9D9D9"/>
<rect x="1200" y="500" width="100" height="100" transform="rotate(-180 1200 500)" fill="#DE0000"/>
<rect x="1200" y="600" width="100" height="100" transform="rotate(-180 1200 600)" fill="#D9D9D9"/>
<rect x="1200" y="500" width="100" height="100" transform="rotate(-180 1200 500)" fill="#DE0000"/>
<rect x="1200" y="600" width="100" height="100" transform="rotate(-180 1200 600)" fill="#D9D9D9"/>
<rect x="1200" y="300" width="100" height="100" transform="rotate(-180 1200 300)" fill="#DE0000"/>
<rect x="1200" y="400" width="100" height="100" transform="rotate(-180 1200 400)" fill="#D9D9D9"/>
<rect x="1200" y="100" width="100" height="100" transform="rotate(-180 1200 100)" fill="#DE0000"/>
<rect x="1200" y="200" width="100" height="100" transform="rotate(-180 1200 200)" fill="#D9D9D9"/>
<rect x="1200" y="100" width="100" height="100" transform="rotate(-180 1200 100)" fill="#DE0000"/>
<rect x="1200" y="200" width="100" height="100" transform="rotate(-180 1200 200)" fill="#D9D9D9"/>
<rect x="800" y="100" width="100" height="100" fill="#DE0000"/>
<rect x="800" width="100" height="100" fill="#D9D9D9"/>
<rect x="800" y="100" width="100" height="100" fill="#00CD52"/>
<rect x="800" width="100" height="100" fill="#00CD52"/>
<rect x="800" y="300" width="100" height="100" fill="#C97500"/>
<rect x="800" y="200" width="100" height="100" fill="#C97500"/>
<rect x="800" y="500" width="100" height="100" fill="#DE0000"/>
<rect x="800" y="400" width="100" height="100" fill="#D9D9D9"/>
<rect x="800" y="500" width="100" height="100" fill="#C97500"/>
<rect x="800" y="400" width="100" height="100" fill="#C97500"/>
<rect x="800" y="700" width="100" height="100" fill="#00CD52"/>
<rect x="800" y="900" width="100" height="100" fill="#DE0000"/>
<rect x="800" y="800" width="100" height="100" fill="#D9D9D9"/>
<rect x="800" y="900" width="100" height="100" fill="#00CD52"/>
<rect x="800" y="800" width="100" height="100" fill="#00CD52"/>
<rect x="1000" y="900" width="100" height="100" transform="rotate(-180 1000 900)" fill="#DE0000"/>
<rect x="1000" y="1000" width="100" height="100" transform="rotate(-180 1000 1000)" fill="#D9D9D9"/>
<rect x="1000" y="900" width="100" height="100" transform="rotate(-180 1000 900)" fill="#00CD52"/>
<rect x="1000" y="1000" width="100" height="100" transform="rotate(-180 1000 1000)" fill="#00CD52"/>
<rect x="1000" y="700" width="100" height="100" transform="rotate(-180 1000 700)" fill="#C97500"/>
<rect x="1000" y="800" width="100" height="100" transform="rotate(-180 1000 800)" fill="#00CD52"/>
<rect x="1000" y="500" width="100" height="100" transform="rotate(-180 1000 500)" fill="#DE0000"/>
<rect x="1000" y="600" width="100" height="100" transform="rotate(-180 1000 600)" fill="#D9D9D9"/>
<rect x="1000" y="500" width="100" height="100" transform="rotate(-180 1000 500)" fill="#C97500"/>
<rect x="1000" y="600" width="100" height="100" transform="rotate(-180 1000 600)" fill="#C97500"/>
<rect x="1000" y="400" width="100" height="100" transform="rotate(-180 1000 400)" fill="#C97500"/>
<rect x="1000" y="100" width="100" height="100" transform="rotate(-180 1000 100)" fill="#DE0000"/>
<rect x="1000" y="200" width="100" height="100" transform="rotate(-180 1000 200)" fill="#D9D9D9"/>
<rect x="1000" y="100" width="100" height="100" transform="rotate(-180 1000 100)" fill="#00CD52"/>
<rect x="1000" y="200" width="100" height="100" transform="rotate(-180 1000 200)" fill="#00CD52"/>
<rect x="1000" y="100" width="100" height="100" fill="#DE0000"/>
<rect x="1000" width="100" height="100" fill="#D9D9D9"/>
<rect x="1000" y="100" width="100" height="100" fill="#00CD52"/>
<rect x="1000" width="100" height="100" fill="#00CD52"/>
<rect x="1000" y="300" width="100" height="100" fill="#00CD52"/>
<rect x="1000" y="200" width="100" height="100" fill="#00CD52"/>
<rect x="1000" y="500" width="100" height="100" fill="#DE0000"/>
<rect x="1000" y="400" width="100" height="100" fill="#C97500"/>
<rect x="1000" y="500" width="100" height="100" fill="#C97500"/>
<path d="M1000 400H1100V500H1050C1022.39 500 1000 477.614 1000 450V400Z" fill="#00CD52"/>
<rect x="1000" y="700" width="100" height="100" fill="#00CD52"/>
<rect x="1000" y="600" width="100" height="100" fill="#C97500"/>
<rect x="1000" y="900" width="100" height="100" fill="#DE0000"/>
<rect x="1000" y="800" width="100" height="100" fill="#D9D9D9"/>
<rect x="1000" y="900" width="100" height="100" fill="#00CD52"/>
<rect x="1000" y="800" width="100" height="100" fill="#00CD52"/>
<rect x="1200" y="900" width="100" height="100" transform="rotate(-180 1200 900)" fill="#DE0000"/>
<rect x="1200" y="1000" width="100" height="100" transform="rotate(-180 1200 1000)" fill="#D9D9D9"/>
<rect x="1200" y="900" width="100" height="100" transform="rotate(-180 1200 900)" fill="#00CD52"/>
<rect x="1200" y="1000" width="100" height="100" transform="rotate(-180 1200 1000)" fill="#00CD52"/>
<rect x="1200" y="700" width="100" height="100" transform="rotate(-180 1200 700)" fill="#C97500"/>
<rect x="1200" y="800" width="100" height="100" transform="rotate(-180 1200 800)" fill="#00CD52"/>
<rect x="1200" y="500" width="100" height="100" transform="rotate(-180 1200 500)" fill="#DE0000"/>
<rect x="1200" y="600" width="100" height="100" transform="rotate(-180 1200 600)" fill="#D9D9D9"/>
<rect x="1200" y="500" width="100" height="100" transform="rotate(-180 1200 500)" fill="#00CD52"/>
<rect x="1200" y="600" width="100" height="100" transform="rotate(-180 1200 600)" fill="#C97500"/>
<rect x="1200" y="300" width="100" height="100" transform="rotate(-180 1200 300)" fill="#00CD52"/>
<rect x="1200" y="100" width="100" height="100" transform="rotate(-180 1200 100)" fill="#DE0000"/>
<rect x="1200" y="200" width="100" height="100" transform="rotate(-180 1200 200)" fill="#D9D9D9"/>
<rect x="1200" y="100" width="100" height="100" transform="rotate(-180 1200 100)" fill="#00CD52"/>
<rect x="1200" y="200" width="100" height="100" transform="rotate(-180 1200 200)" fill="#00CD52"/>
<rect x="1200" y="100" width="100" height="100" fill="#DE0000"/>
<rect x="1200" width="100" height="100" fill="#D9D9D9"/>
<rect x="1200" y="100" width="100" height="100" fill="#00CD52"/>
<rect x="1200" width="100" height="100" fill="#00CD52"/>
<rect x="1200" y="300" width="100" height="100" fill="#00CD52"/>
<rect x="1200" y="200" width="100" height="100" fill="#00CD52"/>
<rect x="1200" y="500" width="100" height="100" fill="#DE0000"/>
<rect x="1200" y="400" width="100" height="100" fill="#D9D9D9"/>
<rect x="1200" y="500" width="100" height="100" fill="#C97500"/>
<rect x="1200" y="400" width="100" height="100" fill="#00CD52"/>
<rect x="1200" y="700" width="100" height="100" fill="#00CD52"/>
<rect x="1200" y="600" width="100" height="100" fill="#C97500"/>
<rect x="1200" y="900" width="100" height="100" fill="#DE0000"/>
<rect x="1200" y="800" width="100" height="100" fill="#D9D9D9"/>
<rect x="1200" y="900" width="100" height="100" fill="#00CD52"/>
<rect x="1200" y="800" width="100" height="100" fill="#00CD52"/>
<rect x="1400" y="900" width="100" height="100" transform="rotate(-180 1400 900)" fill="#DE0000"/>
<rect x="1400" y="1000" width="100" height="100" transform="rotate(-180 1400 1000)" fill="#D9D9D9"/>
<rect x="1400" y="900" width="100" height="100" transform="rotate(-180 1400 900)" fill="#00CD52"/>
<rect x="1400" y="1000" width="100" height="100" transform="rotate(-180 1400 1000)" fill="#00CD52"/>
<rect x="1400" y="700" width="100" height="100" transform="rotate(-180 1400 700)" fill="#C97500"/>
<rect x="1400" y="800" width="100" height="100" transform="rotate(-180 1400 800)" fill="#00CD52"/>
<rect x="1400" y="500" width="100" height="100" transform="rotate(-180 1400 500)" fill="#DE0000"/>
<rect x="1400" y="600" width="100" height="100" transform="rotate(-180 1400 600)" fill="#D9D9D9"/>
<rect x="1400" y="500" width="100" height="100" transform="rotate(-180 1400 500)" fill="#C97500"/>
<rect x="1400" y="600" width="100" height="100" transform="rotate(-180 1400 600)" fill="#C97500"/>
<rect x="1400" y="300" width="100" height="100" transform="rotate(-180 1400 300)" fill="#00CD52"/>
<rect x="1400" y="400" width="100" height="100" transform="rotate(-180 1400 400)" fill="#00CD52"/>
<rect x="1400" y="100" width="100" height="100" transform="rotate(-180 1400 100)" fill="#DE0000"/>
<rect x="1400" y="200" width="100" height="100" transform="rotate(-180 1400 200)" fill="#D9D9D9"/>
<rect x="1400" y="100" width="100" height="100" transform="rotate(-180 1400 100)" fill="#00CD52"/>
<rect x="1400" y="200" width="100" height="100" transform="rotate(-180 1400 200)" fill="#00CD52"/>
<rect x="1400" y="100" width="100" height="100" fill="#DE0000"/>
<rect x="1400" width="100" height="100" fill="#D9D9D9"/>
<rect x="1400" y="100" width="100" height="100" fill="#00CD52"/>
<rect x="1400" width="100" height="100" fill="#00CD52"/>
<rect x="1400" y="300" width="100" height="100" fill="#00CD52"/>
<rect x="1400" y="200" width="100" height="100" fill="#00CD52"/>
<rect x="1400" y="400" width="100" height="100" fill="#C97500"/>
<rect x="1396" y="300" width="104" height="100" fill="#C97500"/>
<rect x="1500" y="300" width="100" height="100" fill="#C97500"/>
<rect x="1400" y="900" width="100" height="100" fill="#DE0000"/>
<rect x="1400" y="800" width="100" height="100" fill="#D9D9D9"/>
<rect x="1400" y="900" width="100" height="100" fill="#00CD52"/>
<rect x="1400" y="800" width="100" height="100" fill="#00CD52"/>
<rect x="1600" y="900" width="100" height="100" transform="rotate(-180 1600 900)" fill="#DE0000"/>
<rect x="1600" y="1000" width="100" height="100" transform="rotate(-180 1600 1000)" fill="#D9D9D9"/>
<rect x="1600" y="900" width="100" height="100" transform="rotate(-180 1600 900)" fill="#00CD52"/>
<rect x="1600" y="1000" width="100" height="100" transform="rotate(-180 1600 1000)" fill="#00CD52"/>
<rect x="1600" y="500" width="100" height="100" transform="rotate(-180 1600 500)" fill="#C97500"/>
<rect x="1600" y="300" width="100" height="100" transform="rotate(-180 1600 300)" fill="#00CD52"/>
<rect x="1600" y="100" width="100" height="100" transform="rotate(-180 1600 100)" fill="#DE0000"/>
<rect x="1600" y="200" width="100" height="100" transform="rotate(-180 1600 200)" fill="#D9D9D9"/>
<rect x="1600" y="100" width="100" height="100" transform="rotate(-180 1600 100)" fill="#00CD52"/>
<rect x="1600" y="200" width="100" height="100" transform="rotate(-180 1600 200)" fill="#00CD52"/>
<path d="M452 101H453H600H601V100V52V51V50L601 2V1H600L453 1H452H451H304H303V2V50V51V52V100V101H304H451H452Z" fill="url(#paint0_radial_38_428)" stroke="black" stroke-width="2"/>
<path d="M152 101H153H302H303V100V52V51V50L303 2V1H302L153 1H152H151H2H1V2V50V51V52V100V101H2H151H152Z" fill="url(#paint1_radial_38_428)" stroke="black" stroke-width="2"/>
<path d="M650 832.333L627.041 893L559.864 900L525 832.333L559.864 852.167L543.707 832.333L581.973 841.667L573.469 804.333L595.578 846.333L603.231 767L620.238 852.167L627.041 799.667L632.993 852.167L650 832.333Z" fill="url(#paint2_linear_38_428)" stroke="url(#paint3_linear_38_428)" stroke-width="3"/>
<path d="M1133 132.333L1111.88 193L1050.07 200L1018 132.333L1050.07 152.167L1035.21 132.333L1070.41 141.667L1062.59 104.333L1082.93 146.333L1089.97 67L1105.62 152.167L1111.88 99.6667L1117.35 152.167L1133 132.333Z" fill="url(#paint4_linear_38_428)" stroke="url(#paint5_linear_38_428)" stroke-width="3"/>
<path d="M1100 882.333L1119.84 943L1177.88 950L1208 882.333L1177.88 902.167L1191.84 882.333L1158.78 891.667L1166.12 854.333L1147.02 896.333L1140.41 817L1125.71 902.167L1119.84 849.667L1114.69 902.167L1100 882.333Z" fill="url(#paint6_linear_38_428)" stroke="url(#paint7_linear_38_428)" stroke-width="3"/>
<path d="M40 248.333L59.8367 309L117.878 316L148 248.333L117.878 268.167L131.837 248.333L98.7755 257.667L106.122 220.333L87.0204 262.333L80.4082 183L65.7143 268.167L59.8367 215.667L54.6939 268.167L40 248.333Z" fill="url(#paint8_linear_38_428)" stroke="url(#paint9_linear_38_428)" stroke-width="3"/>
<rect x="700" y="600" width="100" height="100" transform="rotate(-180 700 600)" fill="#D9D9D9"/>
<rect x="200" y="500" width="100" height="100" transform="rotate(-180 200 500)" fill="#D9D9D9"/>
<rect x="100" y="400" width="100" height="100" fill="#00CD52"/>
<rect x="1400" y="700" width="100" height="100" fill="#00CD52"/>
<rect x="1500" y="700" width="100" height="100" fill="#00CD52"/>
<rect x="1400" y="500" width="100" height="100" fill="#C97500"/>
<rect x="1500" y="500" width="100" height="100" fill="#C97500"/>
<rect x="1500" y="600" width="100" height="100" fill="#00CD52"/>
<rect x="1400" y="600" width="100" height="100" fill="#C97500"/>
<path d="M441 293C441 320.614 418.614 343 391 343L350 343C322.386 343 300 320.614 300 293L300 250C300 222.386 322.386 200 350 200L391 200C418.614 200 441 222.386 441 250L441 293Z" fill="#C97500"/>
<path d="M500 750C500 777.614 477.614 800 450 800L409 800C381.386 800 359 777.614 359 750L359 707C359 679.386 381.386 657 409 657L450 657C477.614 657 500 679.386 500 707L500 750Z" fill="#C97500"/>
<path d="M1000 293C1000 320.614 977.614 343 950 343L909 343C881.386 343 859 320.614 859 293L859 250C859 222.386 881.386 200 909 200L950 200C977.614 200 1000 222.386 1000 250L1000 293Z" fill="#C97500"/>
<path d="M941 651C941 678.614 918.614 701 891 701L850 701C822.386 701 800 678.614 800 651L800 608C800 580.386 822.386 558 850 558L891 558C918.614 558 941 580.386 941 608L941 651Z" fill="#C97500"/>
<rect x="1398" y="116" width="100" height="100" transform="rotate(-180 1398 116)" fill="#00CD52"/>
<rect x="1396" y="403" width="100" height="100" transform="rotate(-180 1396 403)" fill="#00CD52"/>
<path d="M1600 650C1600 677.614 1577.61 700 1550 700L1504 700C1476.39 700 1454 677.614 1454 650L1454 607C1454 579.386 1476.39 557 1504 557L1550 557C1577.61 557 1600 579.386 1600 607L1600 650Z" fill="#C97500"/>
<path d="M1296 400H1396V450C1396 477.614 1373.61 500 1346 500H1296V400Z" fill="#00CD52"/>
<rect x="600" y="500" width="100" height="100" fill="#00CD52"/>
<rect x="1100" y="300" width="100" height="100" fill="#00CD52"/>
</g>
<defs>
<radialGradient id="paint0_radial_38_428" cx="0" cy="0" r="1" gradientUnits="userSpaceOnUse" gradientTransform="translate(452 51) rotate(90) scale(49 148)">
<stop stop-color="#CB4A01"/>
<stop offset="1" stop-color="#CB4A01" stop-opacity="0"/>
</radialGradient>
<radialGradient id="paint1_radial_38_428" cx="0" cy="0" r="1" gradientUnits="userSpaceOnUse" gradientTransform="translate(152 51) rotate(90) scale(49 150)">
<stop stop-color="#CB4A01"/>
<stop offset="1" stop-color="#CB4A01" stop-opacity="0"/>
</radialGradient>
<linearGradient id="paint2_linear_38_428" x1="587.5" y1="767" x2="587.5" y2="900" gradientUnits="userSpaceOnUse">
<stop stop-color="#00CD52"/>
<stop offset="0.0001" stop-color="#00CD52" stop-opacity="0.947917"/>
<stop offset="1" stop-color="#00CD52" stop-opacity="0"/>
</linearGradient>
<linearGradient id="paint3_linear_38_428" x1="587.5" y1="767" x2="587.5" y2="900" gradientUnits="userSpaceOnUse">
<stop stop-color="#259300"/>
<stop offset="1" stop-color="#259300" stop-opacity="0"/>
</linearGradient>
<linearGradient id="paint4_linear_38_428" x1="1075.5" y1="67" x2="1075.5" y2="200" gradientUnits="userSpaceOnUse">
<stop stop-color="#00CD52"/>
<stop offset="0.0001" stop-color="#00CD52" stop-opacity="0.947917"/>
<stop offset="1" stop-color="#00CD52" stop-opacity="0"/>
</linearGradient>
<linearGradient id="paint5_linear_38_428" x1="1075.5" y1="67" x2="1075.5" y2="200" gradientUnits="userSpaceOnUse">
<stop stop-color="#259300"/>
<stop offset="1" stop-color="#259300" stop-opacity="0"/>
</linearGradient>
<linearGradient id="paint6_linear_38_428" x1="1154" y1="817" x2="1154" y2="950" gradientUnits="userSpaceOnUse">
<stop stop-color="#00CD52"/>
<stop offset="0.0001" stop-color="#00CD52" stop-opacity="0.947917"/>
<stop offset="1" stop-color="#00CD52" stop-opacity="0"/>
</linearGradient>
<linearGradient id="paint7_linear_38_428" x1="1154" y1="817" x2="1154" y2="950" gradientUnits="userSpaceOnUse">
<stop stop-color="#259300"/>
<stop offset="1" stop-color="#259300" stop-opacity="0"/>
</linearGradient>
<linearGradient id="paint8_linear_38_428" x1="94" y1="183" x2="94" y2="316" gradientUnits="userSpaceOnUse">
<stop stop-color="#00CD52"/>
<stop offset="0.0001" stop-color="#00CD52" stop-opacity="0.947917"/>
<stop offset="1" stop-color="#00CD52" stop-opacity="0"/>
</linearGradient>
<linearGradient id="paint9_linear_38_428" x1="94" y1="183" x2="94" y2="316" gradientUnits="userSpaceOnUse">
<stop stop-color="#259300"/>
<stop offset="1" stop-color="#259300" stop-opacity="0"/>
</linearGradient>
<clipPath id="clip0_38_428">
<rect width="1600" height="1000" fill="white"/>
</clipPath>
</defs>
</svg>
