<svg width="300" height="300" viewBox="0 0 300 300" fill="none" xmlns="http://www.w3.org/2000/svg">
<rect x="5" y="5" width="290" height="290" rx="45" fill="#FAFF00" stroke="black" stroke-width="10"/>
<path d="M42.791 151.2V164H29.6831V156.583L31.8706 156.156V145.594L29.6831 145.167V137.75H42.791L48.2939 147.833L53.7456 137.75H66.8706V145.167L64.6831 145.594V156.156L66.8706 156.583V164H53.7456V151.2L48.2939 160.633L42.791 151.2ZM96.812 147.064C96.8006 147.406 96.7949 147.742 96.7949 148.072C96.7949 148.391 96.7949 148.699 96.7949 148.995V151.644C96.7949 153.923 96.4816 155.877 95.855 157.506C95.2284 159.124 94.3796 160.451 93.3086 161.488C92.2376 162.525 90.9787 163.254 89.5317 163.675C88.0962 164.097 86.5695 164.308 84.9517 164.308C83.0832 164.308 81.3343 164.097 79.7051 163.675C78.0872 163.254 76.6745 162.525 75.4668 161.488C74.2705 160.44 73.3249 159.107 72.6299 157.489C71.9463 155.871 71.6045 153.923 71.6045 151.644V147.064L69.5537 146.671V139.938H82.9009V146.671L80.8501 147.064V149.098C80.8501 149.371 80.8501 149.65 80.8501 149.935C80.8501 150.208 80.8501 150.465 80.8501 150.704C80.8615 150.943 80.8672 151.154 80.8672 151.336C80.8672 151.507 80.8672 151.621 80.8672 151.678C80.8672 151.94 80.8729 152.248 80.8843 152.601C80.8957 152.943 80.9412 153.302 81.021 153.678C81.1007 154.042 81.2204 154.407 81.3799 154.771C81.5508 155.125 81.7843 155.444 82.0806 155.729C82.3882 156.013 82.7699 156.247 83.2256 156.429C83.6927 156.6 84.2681 156.686 84.9517 156.686C85.6353 156.686 86.2106 156.6 86.6777 156.429C87.1562 156.247 87.5436 156.013 87.8398 155.729C88.1475 155.432 88.3867 155.102 88.5576 154.737C88.7285 154.373 88.8481 154.008 88.9165 153.644C88.9963 153.268 89.0418 152.909 89.0532 152.567C89.076 152.214 89.0874 151.906 89.0874 151.644C89.0874 151.564 89.0874 151.439 89.0874 151.268C89.0874 151.086 89.0817 150.881 89.0703 150.653C89.0703 150.414 89.0703 150.163 89.0703 149.901C89.0703 149.627 89.0703 149.36 89.0703 149.098V147.064L87.0195 146.671V139.938H98.8799V146.671L96.812 147.064ZM113.868 157.438C114.346 157.438 114.802 157.375 115.235 157.25C115.668 157.113 116.067 156.942 116.431 156.737C116.807 156.52 117.143 156.287 117.439 156.036C117.747 155.774 118.015 155.512 118.243 155.25H121.097V164H101.546V157.181L103.597 156.788V147.064L101.546 146.671V139.938H115.936V146.671L113.868 147.064V157.438ZM127.522 146.295C126.93 146.295 126.406 146.375 125.95 146.534C125.494 146.694 125.113 146.893 124.805 147.132C124.498 147.372 124.264 147.634 124.104 147.918C123.945 148.192 123.865 148.448 123.865 148.688H121.011V139.938H144.322V148.688H141.468C141.468 148.448 141.388 148.192 141.229 147.918C141.069 147.634 140.835 147.372 140.528 147.132C140.22 146.893 139.839 146.694 139.383 146.534C138.927 146.375 138.403 146.295 137.811 146.295V156.788L139.861 157.181V164H125.472V157.181L127.522 156.788V146.295ZM146.663 139.938H161.053V146.671L159.002 147.064V156.788L161.053 157.181V164H146.663V157.181L148.714 156.788V147.064L146.663 146.671V139.938ZM164.368 139.938H178.365C180.188 139.938 181.766 140.017 183.099 140.177C184.443 140.336 185.582 140.564 186.517 140.86C187.462 141.157 188.231 141.521 188.824 141.954C189.428 142.387 189.895 142.877 190.225 143.424C190.567 143.959 190.795 144.552 190.909 145.201C191.034 145.839 191.097 146.523 191.097 147.252C191.097 148.004 191.023 148.71 190.875 149.371C190.738 150.032 190.476 150.641 190.088 151.2C189.701 151.747 189.166 152.242 188.482 152.687C187.81 153.119 186.938 153.49 185.867 153.797C184.808 154.094 183.526 154.321 182.022 154.481C180.518 154.64 178.746 154.72 176.707 154.72V156.788L178.758 157.181V164H164.368V157.181L166.419 156.788V147.064L164.368 146.671V139.938ZM176.707 150.396C177.334 150.396 177.898 150.362 178.399 150.294C178.912 150.226 179.345 150.077 179.698 149.85C180.062 149.622 180.341 149.291 180.535 148.858C180.729 148.425 180.826 147.839 180.826 147.098C180.826 146.415 180.729 145.873 180.535 145.475C180.341 145.076 180.062 144.768 179.698 144.552C179.345 144.335 178.912 144.199 178.399 144.142C177.898 144.073 177.334 144.039 176.707 144.039V150.396ZM205.572 157.438C206.05 157.438 206.506 157.375 206.939 157.25C207.372 157.113 207.771 156.942 208.135 156.737C208.511 156.52 208.847 156.287 209.144 156.036C209.451 155.774 209.719 155.512 209.947 155.25H212.801V164H193.25V157.181L195.301 156.788V147.064L193.25 146.671V139.938H207.64V146.671L205.572 147.064V157.438ZM231.924 164L231.07 159.95H224.354L223.499 164H214.356V156.07L216.338 155.677L221.072 139.938H234.334L239.102 155.677L241.067 156.07V164H231.924ZM225.396 154.549H230.027L227.703 145.099L225.396 154.549ZM247.664 164V157.215L249.715 156.703L242.657 147.047L240.059 146.671V139.938H253.782V146.671L252.176 147.047L255.44 151.986L258.687 147.047L257.081 146.671V139.938H270.787V146.671L268.206 147.047L261.148 156.703L263.216 157.215V164H247.664Z" fill="black"/>
</svg>
