<svg width="300" height="300" viewBox="0 0 300 300" fill="none" xmlns="http://www.w3.org/2000/svg">
<rect x="5" y="5" width="290" height="290" rx="45" fill="#FAFF00" stroke="black" stroke-width="10"/>
<path d="M55.0562 167H41.0815C40.6421 166.165 40.188 165.279 39.7192 164.341C39.2505 163.404 38.7964 162.43 38.3569 161.419C37.9175 160.408 37.5073 159.361 37.1265 158.277C36.7456 157.193 36.4233 156.08 36.1597 154.937H35.3906V167H18.5156V157.464L21.3281 156.915V143.335L18.5156 142.786V133.25H37.6538C40.188 133.25 42.3779 133.367 44.2236 133.602C46.0693 133.836 47.6367 134.173 48.9258 134.612C50.2148 135.037 51.2549 135.564 52.0459 136.194C52.8516 136.81 53.4741 137.513 53.9136 138.304C54.3677 139.08 54.668 139.937 54.8145 140.875C54.9756 141.797 55.0562 142.779 55.0562 143.819C55.0562 144.874 54.9536 145.833 54.7485 146.697C54.5581 147.547 54.2139 148.331 53.7158 149.048C53.2178 149.766 52.5366 150.425 51.6724 151.026C50.8081 151.612 49.7095 152.168 48.3765 152.696C48.6548 153.282 49.0723 153.97 49.6289 154.761C50.1855 155.538 50.7861 156.336 51.4307 157.156C52.0752 157.962 52.7197 158.753 53.3643 159.529C54.0234 160.291 54.5874 160.943 55.0562 161.485V167ZM35.3906 148.455C36.2402 148.455 37.0093 148.418 37.6978 148.345C38.4009 148.272 38.9941 148.104 39.4775 147.84C39.9756 147.576 40.3564 147.188 40.6201 146.675C40.8838 146.163 41.0156 145.474 41.0156 144.61C41.0156 143.76 40.8838 143.086 40.6201 142.588C40.3564 142.076 39.9756 141.68 39.4775 141.402C38.9941 141.124 38.4009 140.94 37.6978 140.853C37.0093 140.765 36.2402 140.721 35.3906 140.721V148.455ZM75.8203 158.562C76.8164 158.562 77.7539 158.482 78.6328 158.321C79.5117 158.145 80.3174 157.925 81.0498 157.662C81.7969 157.398 82.4707 157.098 83.0713 156.761C83.6719 156.424 84.1992 156.087 84.6533 155.75H88.3228V167H58.9453V157.464L61.7578 156.915V143.379L58.9453 142.83V133.25H88.3228V144.5H84.7852C84.3164 144.178 83.7744 143.848 83.1592 143.511C82.5439 143.174 81.8555 142.874 81.0938 142.61C80.3467 142.332 79.5337 142.112 78.6548 141.951C77.7759 141.775 76.8311 141.688 75.8203 141.688V147.686L82.4121 146.258V154.036L75.8203 152.608V158.562ZM105.044 149.729C105.044 150.989 105.205 152.073 105.527 152.981C105.85 153.89 106.318 154.637 106.934 155.223C107.563 155.809 108.325 156.241 109.219 156.519C110.127 156.797 111.16 156.937 112.317 156.937C113.694 156.937 115.32 156.768 117.195 156.431C119.07 156.094 121.143 155.574 123.413 154.871V165.154C121.055 165.945 118.755 166.517 116.514 166.868C114.287 167.22 112.09 167.396 109.922 167.396C107.271 167.396 104.788 167.066 102.473 166.407C100.173 165.748 98.1665 164.686 96.4526 163.221C94.7534 161.741 93.4131 159.881 92.4316 157.64C91.4502 155.398 90.9595 152.762 90.9595 149.729C90.9595 146.771 91.4062 144.222 92.2998 142.083C93.208 139.944 94.4824 138.187 96.123 136.81C97.7783 135.418 99.7559 134.393 102.056 133.733C104.37 133.074 106.934 132.745 109.746 132.745C111.475 132.745 113.027 132.833 114.404 133.008C115.796 133.184 117.048 133.404 118.162 133.667C119.275 133.931 120.256 134.231 121.106 134.568C121.97 134.891 122.739 135.206 123.413 135.513V145.621H116.799C116.052 144.566 115.217 143.79 114.294 143.292C113.386 142.793 112.449 142.544 111.482 142.544C110.662 142.544 109.863 142.706 109.087 143.028C108.325 143.35 107.644 143.819 107.043 144.434C106.443 145.049 105.959 145.804 105.593 146.697C105.227 147.576 105.044 148.587 105.044 149.729ZM146.55 167.396C144.763 167.396 143.035 167.286 141.365 167.066C139.709 166.846 138.149 166.436 136.685 165.835C135.234 165.235 133.909 164.466 132.708 163.528C131.506 162.576 130.474 161.441 129.609 160.123C128.745 158.79 128.071 157.266 127.588 155.552C127.119 153.824 126.885 151.883 126.885 149.729C126.885 147.708 127.119 145.884 127.588 144.258C128.057 142.632 128.716 141.189 129.565 139.93C130.415 138.67 131.433 137.586 132.62 136.678C133.821 135.77 135.146 135.03 136.597 134.458C138.062 133.873 139.629 133.44 141.299 133.162C142.983 132.884 144.734 132.745 146.55 132.745C148.367 132.745 150.117 132.884 151.802 133.162C153.486 133.44 155.061 133.873 156.526 134.458C157.991 135.044 159.316 135.792 160.503 136.7C161.704 137.608 162.729 138.692 163.579 139.952C164.429 141.211 165.088 142.654 165.557 144.28C166.025 145.892 166.26 147.708 166.26 149.729C166.26 152.894 165.74 155.611 164.7 157.881C163.674 160.137 162.268 161.983 160.481 163.418C158.694 164.854 156.606 165.879 154.219 166.495C151.831 167.095 149.275 167.396 146.55 167.396ZM146.55 142.786C145.613 142.786 144.822 142.911 144.177 143.16C143.547 143.394 143.02 143.709 142.595 144.104C142.185 144.5 141.87 144.947 141.65 145.445C141.431 145.943 141.262 146.448 141.145 146.961C141.042 147.474 140.984 147.972 140.969 148.455C140.955 148.938 140.947 149.363 140.947 149.729C140.947 150.096 140.955 150.521 140.969 151.004C140.984 151.487 141.042 151.993 141.145 152.52C141.262 153.033 141.431 153.545 141.65 154.058C141.87 154.571 142.185 155.032 142.595 155.442C143.02 155.838 143.547 156.16 144.177 156.409C144.822 156.658 145.613 156.783 146.55 156.783C147.488 156.783 148.271 156.658 148.901 156.409C149.546 156.16 150.081 155.838 150.505 155.442C150.93 155.032 151.252 154.571 151.472 154.058C151.707 153.545 151.875 153.033 151.978 152.52C152.08 151.993 152.139 151.487 152.153 151.004C152.183 150.521 152.197 150.096 152.197 149.729C152.197 149.363 152.183 148.938 152.153 148.455C152.139 147.972 152.08 147.474 151.978 146.961C151.875 146.448 151.707 145.943 151.472 145.445C151.252 144.947 150.93 144.5 150.505 144.104C150.081 143.709 149.546 143.394 148.901 143.16C148.271 142.911 147.488 142.786 146.55 142.786ZM206.14 167H192.166C191.726 166.165 191.272 165.279 190.803 164.341C190.334 163.404 189.88 162.43 189.441 161.419C189.001 160.408 188.591 159.361 188.21 158.277C187.83 157.193 187.507 156.08 187.244 154.937H186.475V167H169.6V157.464L172.412 156.915V143.335L169.6 142.786V133.25H188.738C191.272 133.25 193.462 133.367 195.308 133.602C197.153 133.836 198.721 134.173 200.01 134.612C201.299 135.037 202.339 135.564 203.13 136.194C203.936 136.81 204.558 137.513 204.998 138.304C205.452 139.08 205.752 139.937 205.898 140.875C206.06 141.797 206.14 142.779 206.14 143.819C206.14 144.874 206.038 145.833 205.833 146.697C205.642 147.547 205.298 148.331 204.8 149.048C204.302 149.766 203.621 150.425 202.756 151.026C201.892 151.612 200.793 152.168 199.46 152.696C199.739 153.282 200.156 153.97 200.713 154.761C201.27 155.538 201.87 156.336 202.515 157.156C203.159 157.962 203.804 158.753 204.448 159.529C205.107 160.291 205.671 160.943 206.14 161.485V167ZM186.475 148.455C187.324 148.455 188.093 148.418 188.782 148.345C189.485 148.272 190.078 148.104 190.562 147.84C191.06 147.576 191.44 147.188 191.704 146.675C191.968 146.163 192.1 145.474 192.1 144.61C192.1 143.76 191.968 143.086 191.704 142.588C191.44 142.076 191.06 141.68 190.562 141.402C190.078 141.124 189.485 140.94 188.782 140.853C188.093 140.765 187.324 140.721 186.475 140.721V148.455ZM235.562 133.25C237.686 133.704 239.597 134.363 241.296 135.228C242.996 136.077 244.438 137.168 245.625 138.501C246.826 139.834 247.742 141.431 248.372 143.292C249.016 145.137 249.338 147.283 249.338 149.729C249.338 152.967 248.796 155.691 247.712 157.903C246.628 160.101 245.098 161.873 243.12 163.221C241.157 164.568 238.792 165.535 236.023 166.121C233.254 166.707 230.193 167 226.838 167H209.963V157.464L212.776 156.915V142.522L209.963 141.973V133.25H235.562ZM228.992 156.915C230.559 156.915 231.768 156.746 232.617 156.409C233.467 156.058 234.082 155.567 234.463 154.937C234.858 154.307 235.085 153.553 235.144 152.674C235.217 151.795 235.254 150.813 235.254 149.729C235.254 148.646 235.217 147.664 235.144 146.785C235.085 145.892 234.858 145.13 234.463 144.5C234.082 143.87 233.467 143.387 232.617 143.05C231.768 142.698 230.559 142.522 228.992 142.522H226.838V156.915H228.992ZM282.012 156.409C281.997 157.859 281.785 159.148 281.375 160.276C280.979 161.39 280.422 162.356 279.705 163.177C278.987 163.982 278.145 164.671 277.178 165.242C276.211 165.799 275.171 166.253 274.058 166.604C272.944 166.941 271.772 167.154 270.542 167.242C269.326 167.344 268.103 167.396 266.873 167.396C264.646 167.396 262.69 167.308 261.006 167.132C260.039 167.015 258.596 166.692 256.677 166.165C255.11 165.74 253.879 165.293 252.986 164.825V156.146H259.6C260.361 157.2 261.218 157.977 262.17 158.475C263.137 158.973 264.126 159.222 265.137 159.222C265.4 159.222 265.693 159.2 266.016 159.156C266.338 159.112 266.638 158.987 266.917 158.782C267.209 158.577 267.451 158.255 267.642 157.815C267.847 157.376 267.949 156.761 267.949 155.97C266.689 155.853 265.437 155.684 264.192 155.464C262.961 155.245 261.782 154.944 260.654 154.563C259.526 154.183 258.472 153.707 257.49 153.135C256.523 152.549 255.681 151.846 254.963 151.026C254.26 150.206 253.704 149.246 253.293 148.147C252.898 147.034 252.7 145.752 252.7 144.302C252.7 142.75 252.905 141.387 253.315 140.215C253.726 139.029 254.282 138.011 254.985 137.161C255.703 136.297 256.538 135.586 257.49 135.03C258.457 134.458 259.49 134.004 260.588 133.667C261.702 133.331 262.852 133.118 264.038 133.03C265.239 132.942 266.433 132.898 267.62 132.898C269.348 132.898 270.901 132.964 272.278 133.096C273.669 133.213 274.922 133.404 276.035 133.667C277.148 133.931 278.13 134.231 278.979 134.568C279.844 134.891 280.613 135.206 281.287 135.513V144.083H274.673C273.926 143.028 273.091 142.251 272.168 141.753C271.26 141.255 270.322 141.006 269.355 141.006C269.092 141.006 268.792 141.043 268.455 141.116C268.118 141.175 267.803 141.329 267.51 141.578C267.217 141.812 266.968 142.164 266.763 142.632C266.558 143.086 266.455 143.709 266.455 144.5C269.019 144.588 271.274 144.866 273.223 145.335C275.171 145.804 276.79 146.514 278.079 147.466C279.382 148.404 280.364 149.612 281.023 151.092C281.682 152.557 282.012 154.329 282.012 156.409Z" fill="black"/>
</svg>
