<svg width="300" height="300" viewBox="0 0 300 300" fill="none" xmlns="http://www.w3.org/2000/svg">
<rect x="5" y="5" width="290" height="290" rx="45" fill="#FAFF00" stroke="black" stroke-width="10"/>
<path d="M52.7051 157.266C52.7051 158.628 52.5073 159.837 52.1118 160.892C51.731 161.932 51.2036 162.84 50.5298 163.616C49.8706 164.378 49.0796 165.015 48.1567 165.528C47.2485 166.041 46.2671 166.458 45.2124 166.78C44.1577 167.088 43.0518 167.264 41.8945 167.308C40.752 167.366 39.6094 167.396 38.4668 167.396C36.8848 167.396 35.4565 167.359 34.1821 167.286C32.9077 167.212 31.7651 167.051 30.7544 166.802C29.7583 166.553 28.8721 166.282 28.0957 165.989C27.334 165.682 26.6602 165.381 26.0742 165.088V157.464H32.2925C32.9077 158.431 33.6108 159.141 34.4019 159.595C35.1929 160.049 36.0059 160.276 36.8408 160.276C37.0898 160.276 37.3682 160.254 37.6758 160.21C37.9834 160.167 38.269 160.027 38.5327 159.793C38.7964 159.559 39.0161 159.2 39.1919 158.716C39.3823 158.218 39.4775 157.522 39.4775 156.629C38.291 156.526 37.1118 156.38 35.9399 156.189C34.7827 155.984 33.6694 155.713 32.6001 155.376C31.5454 155.04 30.564 154.615 29.6558 154.102C28.7476 153.575 27.9565 152.945 27.2827 152.212C26.6235 151.465 26.1035 150.594 25.7227 149.598C25.3418 148.587 25.1514 147.43 25.1514 146.126C25.1514 144.632 25.3418 143.328 25.7227 142.215C26.1035 141.087 26.6235 140.12 27.2827 139.314C27.9419 138.509 28.7183 137.842 29.6118 137.315C30.52 136.788 31.4941 136.37 32.5342 136.062C33.5742 135.755 34.6582 135.542 35.7861 135.425C36.9141 135.293 38.042 135.228 39.1699 135.228C40.7666 135.228 42.1948 135.308 43.4546 135.469C44.729 135.63 45.8643 135.835 46.8604 136.084C47.8711 136.333 48.7573 136.612 49.519 136.919C50.2954 137.212 50.9839 137.498 51.5845 137.776V145.467H44.9268C44.3701 144.412 43.7329 143.643 43.0151 143.16C42.2974 142.676 41.5649 142.435 40.8179 142.435C40.5688 142.435 40.2832 142.479 39.9609 142.566C39.6387 142.64 39.3384 142.815 39.0601 143.094C38.7817 143.372 38.5474 143.782 38.3569 144.324C38.1665 144.866 38.0713 145.599 38.0713 146.521C40.4883 146.609 42.605 146.866 44.4214 147.291C46.2524 147.715 47.7832 148.353 49.0137 149.202C50.2441 150.037 51.167 151.121 51.7822 152.454C52.3975 153.772 52.7051 155.376 52.7051 157.266ZM72.1289 149.664L78.2153 148.367V154.629L72.1289 153.311V158.167C73.0078 158.167 73.8574 158.108 74.6777 157.991C75.498 157.859 76.2598 157.684 76.9629 157.464C77.666 157.244 78.3105 156.988 78.8965 156.695C79.4824 156.402 79.9878 156.087 80.4126 155.75H83.4229V167H56.2646V158.233L58.9014 157.728V145.269L56.2646 144.764V136.062H83.4229V147.312H80.4126C79.9878 146.99 79.4824 146.683 78.8965 146.39C78.3105 146.097 77.666 145.84 76.9629 145.621C76.2598 145.401 75.498 145.225 74.6777 145.093C73.8574 144.961 73.0078 144.896 72.1289 144.896V149.664ZM94.0796 144.236C93.3179 144.236 92.644 144.339 92.0581 144.544C91.4722 144.749 90.9814 145.005 90.5859 145.313C90.1904 145.621 89.8901 145.958 89.6851 146.324C89.48 146.675 89.3774 147.005 89.3774 147.312H85.708V136.062H115.679V147.312H112.009C112.009 147.005 111.907 146.675 111.702 146.324C111.497 145.958 111.196 145.621 110.801 145.313C110.405 145.005 109.915 144.749 109.329 144.544C108.743 144.339 108.069 144.236 107.307 144.236V157.728L109.944 158.233V167H91.4429V158.233L94.0796 157.728V144.236ZM125.808 144.236C125.046 144.236 124.373 144.339 123.787 144.544C123.201 144.749 122.71 145.005 122.314 145.313C121.919 145.621 121.619 145.958 121.414 146.324C121.208 146.675 121.106 147.005 121.106 147.312H117.437V136.062H147.407V147.312H143.738C143.738 147.005 143.635 146.675 143.43 146.324C143.225 145.958 142.925 145.621 142.529 145.313C142.134 145.005 141.643 144.749 141.057 144.544C140.471 144.339 139.797 144.236 139.036 144.236V157.728L141.672 158.233V167H123.171V158.233L125.808 157.728V144.236ZM150.417 136.062H168.918V144.72L166.282 145.225V157.728L168.918 158.233V167H150.417V158.233L153.054 157.728V145.225L150.417 144.72V136.062ZM183.75 150.762V157.728L186.409 158.211V167H173.181V158.233L175.818 157.728V145.225L173.181 144.72V136.062H189.045L199.614 152.74V145.269L196.978 144.72V136.062H210.183V144.72L207.546 145.225V157.728L210.183 158.233V167H194.319L183.75 150.762ZM213.347 151.114C213.347 148.36 213.765 145.987 214.6 143.995C215.435 141.988 216.621 140.34 218.159 139.051C219.697 137.747 221.55 136.788 223.718 136.172C225.901 135.542 228.333 135.228 231.013 135.228C232.639 135.228 234.104 135.308 235.408 135.469C236.726 135.63 237.905 135.835 238.945 136.084C240 136.333 240.923 136.612 241.714 136.919C242.52 137.212 243.23 137.498 243.845 137.776V147.334H237.627C237.29 146.851 236.953 146.434 236.616 146.082C236.294 145.716 235.942 145.423 235.562 145.203C235.181 144.969 234.756 144.793 234.287 144.676C233.818 144.559 233.269 144.5 232.639 144.5C231.877 144.5 231.13 144.617 230.398 144.852C229.68 145.071 229.036 145.445 228.464 145.972C227.908 146.485 227.454 147.166 227.102 148.016C226.765 148.851 226.597 149.883 226.597 151.114C226.597 152.549 226.736 153.729 227.014 154.651C227.292 155.56 227.695 156.285 228.223 156.827C228.75 157.354 229.395 157.72 230.156 157.925C230.933 158.13 231.819 158.233 232.815 158.233C233.342 158.233 233.884 158.196 234.441 158.123C235.012 158.05 235.627 157.911 236.287 157.706V155.201H231.87V149.795H244.724V164.385C243.64 164.839 242.49 165.264 241.274 165.66C240.059 166.055 238.835 166.399 237.605 166.692C236.389 166.985 235.195 167.176 234.023 167.264C232.852 167.352 231.768 167.396 230.771 167.396C228.325 167.396 226.04 167.103 223.916 166.517C221.792 165.931 219.946 164.957 218.379 163.594C216.812 162.232 215.581 160.518 214.688 158.453C213.794 156.373 213.347 153.926 213.347 151.114ZM274.893 157.266C274.893 158.628 274.695 159.837 274.299 160.892C273.918 161.932 273.391 162.84 272.717 163.616C272.058 164.378 271.267 165.015 270.344 165.528C269.436 166.041 268.455 166.458 267.4 166.78C266.345 167.088 265.239 167.264 264.082 167.308C262.939 167.366 261.797 167.396 260.654 167.396C259.072 167.396 257.644 167.359 256.37 167.286C255.095 167.212 253.953 167.051 252.942 166.802C251.946 166.553 251.06 166.282 250.283 165.989C249.521 165.682 248.848 165.381 248.262 165.088V157.464H254.48C255.095 158.431 255.798 159.141 256.589 159.595C257.38 160.049 258.193 160.276 259.028 160.276C259.277 160.276 259.556 160.254 259.863 160.21C260.171 160.167 260.457 160.027 260.72 159.793C260.984 159.559 261.204 159.2 261.379 158.716C261.57 158.218 261.665 157.522 261.665 156.629C260.479 156.526 259.299 156.38 258.127 156.189C256.97 155.984 255.857 155.713 254.788 155.376C253.733 155.04 252.751 154.615 251.843 154.102C250.935 153.575 250.144 152.945 249.47 152.212C248.811 151.465 248.291 150.594 247.91 149.598C247.529 148.587 247.339 147.43 247.339 146.126C247.339 144.632 247.529 143.328 247.91 142.215C248.291 141.087 248.811 140.12 249.47 139.314C250.129 138.509 250.906 137.842 251.799 137.315C252.708 136.788 253.682 136.37 254.722 136.062C255.762 135.755 256.846 135.542 257.974 135.425C259.102 135.293 260.229 135.228 261.357 135.228C262.954 135.228 264.382 135.308 265.642 135.469C266.917 135.63 268.052 135.835 269.048 136.084C270.059 136.333 270.945 136.612 271.707 136.919C272.483 137.212 273.171 137.498 273.772 137.776V145.467H267.114C266.558 144.412 265.92 143.643 265.203 143.16C264.485 142.676 263.752 142.435 263.005 142.435C262.756 142.435 262.471 142.479 262.148 142.566C261.826 142.64 261.526 142.815 261.248 143.094C260.969 143.372 260.735 143.782 260.544 144.324C260.354 144.866 260.259 145.599 260.259 146.521C262.676 146.609 264.792 146.866 266.609 147.291C268.44 147.715 269.971 148.353 271.201 149.202C272.432 150.037 273.354 151.121 273.97 152.454C274.585 153.772 274.893 155.376 274.893 157.266Z" fill="black"/>
</svg>
