<svg width="320" height="320" viewBox="0 0 320 320" fill="none" xmlns="http://www.w3.org/2000/svg">
<rect x="5" y="5" width="310" height="310" rx="55" fill="#FAFF00" stroke="black" stroke-width="10"/>
<path d="M84.0312 168.938C84.0104 171 83.7083 172.833 83.125 174.438C82.5625 176.021 81.7708 177.396 80.75 178.562C79.7292 179.708 78.5312 180.688 77.1562 181.5C75.7812 182.292 74.3021 182.938 72.7188 183.438C71.1354 183.917 69.4688 184.219 67.7188 184.344C65.9896 184.49 64.25 184.562 62.5 184.562C59.3333 184.562 56.5521 184.438 54.1562 184.188C52.7812 184.021 50.7292 183.562 48 182.812C45.7708 182.208 44.0208 181.573 42.75 180.906V168.562H52.1562C53.2396 170.062 54.4583 171.167 55.8125 171.875C57.1875 172.583 58.5938 172.938 60.0312 172.938C60.4062 172.938 60.8229 172.906 61.2812 172.844C61.7396 172.781 62.1667 172.604 62.5625 172.312C62.9792 172.021 63.3229 171.562 63.5938 170.938C63.8854 170.312 64.0312 169.438 64.0312 168.312C62.2396 168.146 60.4583 167.906 58.6875 167.594C56.9375 167.281 55.2604 166.854 53.6562 166.312C52.0521 165.771 50.5521 165.094 49.1562 164.281C47.7812 163.448 46.5833 162.448 45.5625 161.281C44.5625 160.115 43.7708 158.75 43.1875 157.188C42.625 155.604 42.3438 153.781 42.3438 151.719C42.3438 149.51 42.6354 147.573 43.2188 145.906C43.8021 144.219 44.5938 142.771 45.5938 141.562C46.6146 140.333 47.8021 139.323 49.1562 138.531C50.5312 137.719 52 137.073 53.5625 136.594C55.1458 136.115 56.7812 135.812 58.4688 135.688C60.1771 135.562 61.875 135.5 63.5625 135.5C66.0208 135.5 68.2292 135.594 70.1875 135.781C72.1667 135.948 73.9479 136.219 75.5312 136.594C77.1146 136.969 78.5104 137.396 79.7188 137.875C80.9479 138.333 82.0417 138.781 83 139.219V151.406H73.5938C72.5312 149.906 71.3438 148.802 70.0312 148.094C68.7396 147.385 67.4062 147.031 66.0312 147.031C65.6562 147.031 65.2292 147.083 64.75 147.188C64.2708 147.271 63.8229 147.49 63.4062 147.844C62.9896 148.177 62.6354 148.677 62.3438 149.344C62.0521 149.99 61.9062 150.875 61.9062 152C65.5521 152.125 68.7604 152.521 71.5312 153.188C74.3021 153.854 76.6042 154.865 78.4375 156.219C80.2917 157.552 81.6875 159.271 82.625 161.375C83.5625 163.458 84.0312 165.979 84.0312 168.938ZM99.625 151.625C98.5417 151.625 97.5833 151.771 96.75 152.062C95.9167 152.354 95.2188 152.719 94.6562 153.156C94.0938 153.594 93.6667 154.073 93.375 154.594C93.0833 155.094 92.9375 155.562 92.9375 156H87.7188V140H130.344V156H125.125C125.125 155.562 124.979 155.094 124.688 154.594C124.396 154.073 123.969 153.594 123.406 153.156C122.844 152.719 122.146 152.354 121.312 152.062C120.479 151.771 119.521 151.625 118.438 151.625V170.812L122.188 171.531V184H95.875V171.531L99.625 170.812V151.625ZM162.656 184L161.094 176.594H148.812L147.25 184H130.531V169.5L134.156 168.781L142.812 140H167.062L175.781 168.781L179.375 169.5V184H162.656ZM150.719 166.719H159.188L154.938 149.438L150.719 166.719ZM232.906 184H214.219C213.635 182.917 213.031 181.771 212.406 180.562C211.781 179.333 211.177 178.052 210.594 176.719C210.01 175.385 209.458 174.01 208.938 172.594C208.438 171.177 208.01 169.719 207.656 168.219H206.625V184H184.062V171.531L187.812 170.812V153.031L184.062 152.312V140H209.656C213.052 140 215.979 140.146 218.438 140.438C220.917 140.729 223.01 141.156 224.719 141.719C226.448 142.281 227.844 142.969 228.906 143.781C229.969 144.573 230.792 145.479 231.375 146.5C231.979 147.5 232.385 148.604 232.594 149.812C232.802 151.021 232.906 152.302 232.906 153.656C232.906 155.031 232.771 156.281 232.5 157.406C232.25 158.531 231.792 159.562 231.125 160.5C230.458 161.438 229.542 162.302 228.375 163.094C227.229 163.865 225.76 164.594 223.969 165.281C224.344 166.031 224.896 166.927 225.625 167.969C226.375 168.99 227.188 170.042 228.062 171.125C228.938 172.188 229.802 173.219 230.656 174.219C231.531 175.219 232.281 176.073 232.906 176.781V184ZM206.625 159.75C207.771 159.75 208.802 159.698 209.719 159.594C210.656 159.469 211.448 159.219 212.094 158.844C212.76 158.448 213.271 157.875 213.625 157.125C213.979 156.375 214.156 155.365 214.156 154.094C214.156 152.844 213.979 151.844 213.625 151.094C213.271 150.344 212.76 149.771 212.094 149.375C211.448 148.958 210.656 148.688 209.719 148.562C208.802 148.438 207.771 148.375 206.625 148.375V159.75ZM248.312 151.625C247.229 151.625 246.271 151.771 245.438 152.062C244.604 152.354 243.906 152.719 243.344 153.156C242.781 153.594 242.354 154.073 242.062 154.594C241.771 155.094 241.625 155.562 241.625 156H236.406V140H279.031V156H273.812C273.812 155.562 273.667 155.094 273.375 154.594C273.083 154.073 272.656 153.594 272.094 153.156C271.531 152.719 270.833 152.354 270 152.062C269.167 151.771 268.208 151.625 267.125 151.625V170.812L270.875 171.531V184H244.562V171.531L248.312 170.812V151.625Z" fill="black"/>
</svg>
